<?xml version="1.0" encoding="utf-8"?>
<!-- Generator: Adobe Illustrator 16.0.0, SVG Export Plug-In . SVG Version: 6.00 Build 0)  -->
<!DOCTYPE svg PUBLIC "-//W3C//DTD SVG 1.1//EN" "http://www.w3.org/Graphics/SVG/1.1/DTD/svg11.dtd">
<svg version="1.1" xmlns="http://www.w3.org/2000/svg" xmlns:xlink="http://www.w3.org/1999/xlink" x="0px" y="0px" width="500px"
	 height="500px" viewBox="0 0 500 500" enable-background="new 0 0 500 500" xml:space="preserve">
<g id="Floor">
	<path id="Floor_4_" fill="#F5F5F5" d="M418.236,240.292c93.019,53.704,93.018,140.776-0.001,194.481
		c-93.02,53.705-243.833,53.705-336.852,0.001c-93.019-53.705-93.018-140.777,0.001-194.481
		C174.404,186.587,325.218,186.587,418.236,240.292z"/>
</g>
<g id="Shadows">
	<path id="Shadow_3_" fill="#E0E0E0" d="M421.523,361.941c-0.041-0.093-0.093-0.176-0.155-0.259
		c-0.042-0.062-0.083-0.104-0.135-0.166c-0.042-0.062-0.094-0.125-0.156-0.187c-0.052-0.052-0.114-0.114-0.176-0.166
		c-0.177-0.156-0.395-0.312-0.644-0.457L197.566,232.153c-1.982-1.142-5.199-1.142-7.181,0L74.514,298.868
		c-0.155,0.093-0.301,0.176-0.425,0.27c-0.052,0.042-0.104,0.072-0.145,0.114c-0.26,0.218-0.457,0.436-0.602,0.674
		c-0.042,0.052-0.073,0.114-0.104,0.176c-0.052,0.094-0.093,0.187-0.114,0.28c-0.021,0.073-0.042,0.146-0.052,0.218
		c-0.031,0.125-0.042,0.239-0.042,0.363c0,0.083,0.01,0.166,0.021,0.249c0.021,0.094,0.042,0.187,0.073,0.28
		c0.031,0.093,0.073,0.187,0.114,0.27c0.229,0.457,0.654,0.882,1.276,1.246l222.692,128.554c0.612,0.353,1.359,0.592,2.138,0.727
		c0.467,0.083,0.965,0.114,1.452,0.125c0.488,0,0.976-0.042,1.442-0.114c0.166-0.021,0.322-0.052,0.467-0.093
		c0.457-0.104,0.893-0.249,1.297-0.436c0.136-0.062,0.26-0.135,0.385-0.208l115.871-66.715
		C421.617,364.059,422.042,362.938,421.523,361.941z"/>
	<path id="Shadow_2_" fill="#E0E0E0" d="M442.335,319.153c-19.343,11.168-50.703,11.168-70.046,0
		c-19.343-11.167-19.343-29.273,0-40.441c19.342-11.167,50.703-11.167,70.045,0C461.677,289.88,461.677,307.986,442.335,319.153z"/>
	<path id="Shadow_1_" fill="#E0E0E0" d="M146.805,447.061c-2.13,0-4.178-0.506-5.767-1.426l-99.195-57.268l-0.094-0.064
		c-1.929-1.153-3.063-2.963-3.047-4.928c0.015-1.979,1.195-3.791,3.24-4.971l65.438-37.78c1.582-0.914,3.624-1.417,5.75-1.417
		c2.131,0,4.18,0.502,5.77,1.416l99.125,57.222c2.046,1.188,3.222,3.005,3.232,4.987c0.01,1.887-1.037,3.626-2.883,4.805
		c-0.126,0.094-0.261,0.181-0.403,0.259l-49.517,28.57l-15.889,9.172C150.978,446.556,148.932,447.061,146.805,447.061
		C146.806,447.061,146.806,447.061,146.805,447.061z"/>
</g>
<g id="Device">
	<g id="Device_1_">
		<g id="Mobile">
			<g>
				<path id="XMLID_617_" fill="#455A64" d="M411.859,347.204c-0.042-0.093-0.094-0.176-0.156-0.259
					c-0.041-0.062-0.083-0.104-0.135-0.166c-0.041-0.062-0.094-0.125-0.155-0.187c-0.052-0.052-0.114-0.114-0.177-0.166
					c-0.176-0.156-0.395-0.312-0.644-0.457L193.967,220.898c-1.982-1.142-5.199-1.142-7.181,0L80.579,282.214
					c-0.155,0.093-0.301,0.176-0.425,0.27c-0.052,0.041-0.104,0.072-0.145,0.114c-0.26,0.218-0.457,0.436-0.602,0.674
					c-0.042,0.052-0.073,0.114-0.104,0.177c-0.052,0.093-0.093,0.187-0.114,0.28c-0.021,0.073-0.042,0.145-0.052,0.218
					c-0.031,0.125-0.042,0.239-0.042,0.363c0,0.083,0.01,0.166,0.021,0.249c0.021,0.093,0.042,0.187,0.073,0.28
					c0.031,0.093,0.073,0.187,0.114,0.27c0.228,0.457,0.654,0.882,1.276,1.245l216.627,125.072c0.612,0.353,1.359,0.591,2.138,0.727
					c0.467,0.083,0.965,0.114,1.452,0.125c0.488,0,0.976-0.042,1.442-0.114c0.166-0.021,0.322-0.052,0.467-0.093
					c0.457-0.104,0.893-0.249,1.297-0.436c0.136-0.062,0.26-0.135,0.385-0.208l106.206-61.316
					C411.952,349.321,412.378,348.2,411.859,347.204z M388.532,342.763l-6.797,3.922l-90.486,52.206
					c-0.238,0.135-0.477,0.259-0.726,0.363c-1.494,0.612-3.165,0.612-4.66,0c-0.248-0.104-0.498-0.229-0.736-0.363l-171.809-99.192
					l-8.312-4.794c-0.322-0.187-0.581-0.395-0.778-0.612c-0.861-0.944-0.591-2.148,0.778-2.947l97.241-56.138
					c1.235-0.706,2.512-1.214,3.777-1.048c0.312,0.042,0.613,0.125,0.924,0.249c0.156,0.063,0.321,0.135,0.478,0.229
					l181.106,104.567C389.901,339.992,389.901,341.975,388.532,342.763z"/>
			</g>
			<g>
				<path id="XMLID_615_" fill="#37474F" d="M80.158,282.488c-1.789,1.267-3.169,3.817-3.178,5.948l0.002,4.745
					c-0.002,2.298,1.596,5.079,3.59,6.23l216.611,125.061c0.755,0.436,1.671,0.698,2.637,0.804c0.316,0.039,0.634,0.058,0.96,0.062
					c0.005-0.008,0.013-0.003,0.013-0.003l-0.002-13.05l0.005-0.008c-0.49-0.005-0.981-0.043-1.451-0.119
					c-0.784-0.135-1.526-0.379-2.143-0.734L80.575,286.354C78.75,285.3,78.604,283.634,80.158,282.488z"/>
			</g>
			<path fill="#27DEBF" d="M354.485,372.669c-3.476-2.003-9.339-2.003-12.815,0c-0.893,0.519-1.557,1.121-1.919,1.754
				c-1.152,1.992,0.954,3.497,1.919,4.057c3.477,2.002,9.34,2.002,12.815,0c0.882-0.519,1.547-1.121,1.92-1.754
				C357.558,374.734,355.44,373.229,354.485,372.669z"/>
			<g id="XMLID_608_">
				<path id="XMLID_612_" fill="#263238" d="M142.373,257.178c0.969-0.56,0.969-1.467,0-2.027s-2.541-0.56-3.511,0
					c-0.969,0.56-0.969,1.467,0,2.027C139.832,257.738,141.404,257.737,142.373,257.178z"/>
				<g>
					<path id="XMLID_610_" fill="#263238" d="M136.855,266.78c0.859-0.496,0.859-1.301,0-1.798s-2.254-0.497-3.114,0
						s-0.86,1.301,0,1.798S135.995,267.276,136.855,266.78z"/>
					<path id="XMLID_609_" fill="#263238" d="M142.129,263.808l17.437-10.067c0.956-0.552,1.003-1.418,0.107-1.936
						c-0.896-0.518-2.397-0.49-3.353,0.062l-17.438,10.067c-0.956,0.552-1.003,1.418-0.107,1.936
						C139.673,264.387,141.174,264.359,142.129,263.808z"/>
				</g>
			</g>
			<g>
				<path id="XMLID_607_" fill="#263238" d="M411.065,346.285c1.488,1.157,1.327,2.789-0.473,3.824l-106.209,61.323
					c-0.986,0.57-2.29,0.854-3.593,0.852l0.002,13.05c1.307-0.005,2.591-0.291,3.581-0.869l106.208-61.303
					c1.98-1.136,3.59-3.923,3.593-6.222l0.015-4.755C414.18,350.085,412.829,347.57,411.065,346.285z"/>
			</g>
			<g>
				<g>
					<path fill="#455A64" d="M131.239,319.267c1.025,0.592,1.856,1.972,1.856,3.083c0,0.536-0.195,0.908-0.512,1.083
						c-0.223,0.124-1.067,0.628-1.3,0.758c-0.337,0.188-0.812,0.151-1.339-0.153l-24.15-13.943
						c-1.025-0.592-1.856-1.972-1.856-3.083c0-0.512,0.178-0.874,0.47-1.058c0.229-0.145,1.108-0.652,1.34-0.781
						c0.337-0.189,0.813-0.153,1.342,0.152L131.239,319.267z"/>
					<path fill="#263238" d="M129.944,320.015l-24.15-13.943c-1.025-0.592-1.856-0.171-1.856,0.939c0,1.111,0.831,2.491,1.856,3.083
						l24.15,13.943c1.025,0.592,1.856,0.172,1.856-0.939C131.801,321.987,130.97,320.606,129.944,320.015z"/>
				</g>
				<g>
					<path fill="#455A64" d="M98.912,300.603c1.025,0.592,1.856,1.972,1.856,3.083c0,0.536-0.195,0.908-0.511,1.083
						c-0.224,0.124-1.068,0.628-1.3,0.758c-0.337,0.188-0.813,0.151-1.34-0.153l-11.385-6.574c-1.025-0.592-1.856-1.972-1.856-3.083
						c0-0.512,0.178-0.874,0.469-1.058c0.229-0.145,1.109-0.652,1.34-0.781c0.337-0.189,0.813-0.153,1.342,0.152L98.912,300.603z"/>
					<path fill="#263238" d="M97.617,301.351l-11.385-6.573c-1.025-0.592-1.856-0.171-1.856,0.939c0,1.111,0.831,2.491,1.856,3.083
						l11.385,6.574c1.025,0.592,1.856,0.171,1.856-0.939C99.474,303.323,98.643,301.943,97.617,301.351z"/>
				</g>
			</g>
		</g>
		<g id="Window_4_">
			<path fill="#27DEBF" d="M388.532,342.711l-6.797,3.922l-90.486,52.206c-0.238,0.135-0.477,0.259-0.726,0.363
				c-1.494,0.612-3.165,0.612-4.66,0c-0.248-0.104-0.498-0.229-0.736-0.363l-171.809-99.192l-8.312-4.794
				c-0.322-0.187-0.581-0.394-0.778-0.612c-0.861-0.944-0.591-2.147,0.778-2.947l97.241-56.138c1.235-0.706,2.512-1.214,3.777-1.048
				c0.312,0.042,0.613,0.125,0.924,0.249c0.156,0.062,0.321,0.135,0.478,0.228l181.106,104.567
				C389.901,339.941,389.901,341.923,388.532,342.711z"/>
			<path opacity="0.8" fill="#FFFFFF" d="M388.532,342.711l-6.797,3.922l-90.486,52.206c-0.238,0.135-0.477,0.259-0.726,0.363
				c-1.494,0.612-3.165,0.612-4.66,0c-0.248-0.104-0.498-0.229-0.736-0.363l-171.809-99.192l-8.312-4.794
				c-0.322-0.187-0.581-0.394-0.778-0.612c-0.861-0.944-0.591-2.147,0.778-2.947l97.241-56.138c1.235-0.706,2.512-1.214,3.777-1.048
				c0.312,0.042,0.613,0.125,0.924,0.249c0.156,0.062,0.321,0.135,0.478,0.228l181.106,104.567
				C389.901,339.941,389.901,341.923,388.532,342.711z"/>
			<g>
				<g id="XMLID_598_">
					<path id="XMLID_603_" fill="#455A64" d="M125.542,287.505c-0.042-0.001-0.09-0.016-0.14-0.045l-0.478-0.275l-1.148,0.664
						c-0.063,0.036-0.129,0.035-0.197-0.004l-0.171-0.099c-0.038-0.022-0.065-0.042-0.079-0.059
						c-0.013-0.016-0.026-0.039-0.037-0.067l-0.487-1.693c-0.009-0.031-0.01-0.054-0.004-0.07c0.005-0.017,0.025-0.035,0.063-0.056
						l0.16-0.092c0.048-0.028,0.095-0.041,0.143-0.039c0.046,0.002,0.097,0.019,0.15,0.049l1.667,0.963l0.254-0.147
						c0.049-0.028,0.094-0.041,0.136-0.038c0.044,0.003,0.092,0.019,0.145,0.05l0.113,0.065c0.051,0.029,0.077,0.056,0.08,0.08
						c0.003,0.024-0.019,0.05-0.068,0.078l-0.253,0.146l0.477,0.276c0.05,0.029,0.077,0.056,0.078,0.081
						c0.001,0.025-0.023,0.052-0.073,0.081l-0.193,0.111C125.631,287.493,125.586,287.507,125.542,287.505z M124.595,286.906
						l-1.189-0.687l0.355,1.168L124.595,286.906z"/>
					<path id="XMLID_600_" fill="#455A64" d="M126.62,286.55c-0.482-0.019-0.962-0.166-1.439-0.441
						c-0.475-0.274-0.729-0.551-0.761-0.831c-0.032-0.28,0.157-0.538,0.565-0.773c0.164-0.095,0.337-0.173,0.52-0.232
						c0.182-0.06,0.355-0.096,0.523-0.109c0.038-0.003,0.067,0.001,0.087,0.013c0.013,0.008,0.026,0.021,0.035,0.037l0.104,0.182
						c0.01,0.023,0.01,0.039-0.005,0.047c-0.008,0.004-0.031,0.009-0.068,0.015c-0.271,0.034-0.52,0.116-0.747,0.248
						c-0.275,0.159-0.403,0.336-0.38,0.531c0.024,0.195,0.218,0.398,0.584,0.609c0.369,0.213,0.719,0.327,1.05,0.342
						c0.331,0.016,0.629-0.054,0.896-0.207c0.097-0.056,0.182-0.115,0.255-0.179s0.123-0.122,0.148-0.175l-0.775-0.447l-0.479,0.276
						c-0.048,0.028-0.093,0.041-0.137,0.038s-0.091-0.019-0.145-0.05l-0.109-0.063c-0.053-0.03-0.08-0.057-0.082-0.081
						c-0.002-0.023,0.021-0.049,0.07-0.077l0.765-0.442c0.053-0.03,0.107-0.044,0.159-0.04c0.052,0.003,0.109,0.023,0.17,0.059
						l1.106,0.638c0.042,0.024,0.07,0.044,0.083,0.061c0.015,0.016,0.017,0.036,0.01,0.06c-0.06,0.222-0.282,0.443-0.664,0.664
						C127.547,286.459,127.101,286.569,126.62,286.55z"/>
				</g>
				<g id="XMLID_575_">
					<g id="XMLID_596_">
						<path id="XMLID_597_" fill="#455A64" d="M136.134,280.854c0.369,0.212,0.369,0.558,0,0.771c-0.369,0.212-0.966,0.212-1.334,0
							c-0.369-0.213-0.369-0.558,0-0.771C135.168,280.641,135.766,280.641,136.134,280.854z"/>
					</g>
					<g id="XMLID_580_">
						<g id="XMLID_593_">
							<path id="XMLID_594_" fill="#455A64" d="M133.708,280.224c-0.672,0.388-0.879,0.943-0.622,1.434
								c0.052,0.1,0.223,0.163,0.401,0.15h0.002c0.225-0.016,0.376-0.145,0.309-0.271c-0.187-0.346-0.04-0.738,0.434-1.011
								c0.474-0.273,1.152-0.357,1.75-0.25c0.218,0.039,0.442-0.048,0.469-0.179v-0.001c0.021-0.103-0.088-0.201-0.26-0.231
								C135.342,279.716,134.38,279.835,133.708,280.224z"/>
						</g>
					</g>
					<g id="XMLID_576_">
						<g id="XMLID_577_">
							<path id="XMLID_578_" fill="#455A64" d="M132.639,279.606c-0.999,0.577-1.356,1.387-1.074,2.132
								c0.042,0.109,0.215,0.186,0.408,0.172h0.003c0.219-0.015,0.363-0.136,0.315-0.26c-0.236-0.607,0.054-1.269,0.871-1.741
								s1.965-0.641,3.019-0.504c0.214,0.028,0.424-0.055,0.45-0.181l0,0c0.023-0.111-0.108-0.211-0.297-0.236
								C135.048,278.822,133.641,279.028,132.639,279.606z"/>
						</g>
					</g>
				</g>
				<g>
					<path fill="#455A64" d="M152.314,270.09c-0.047-0.004-0.084-0.016-0.113-0.037c-0.028-0.021-0.039-0.046-0.033-0.073
						l0.202-0.989c0.007-0.024,0.014-0.047,0.023-0.071c0.009-0.024,0.028-0.044,0.057-0.062l0.345-0.199
						c0.033-0.019,0.072-0.028,0.12-0.028c0.046,0,0.085,0.009,0.118,0.028l2.852,1.646c0.032,0.019,0.049,0.042,0.049,0.068
						c0,0.027-0.016,0.05-0.049,0.069l-0.357,0.207c-0.033,0.019-0.071,0.028-0.119,0.028c-0.046,0-0.087-0.009-0.12-0.028
						l-2.181-1.259l-0.136,0.645c-0.006,0.027-0.027,0.048-0.063,0.063c-0.035,0.016-0.077,0.022-0.128,0.021L152.314,270.09z"/>
					<path fill="#455A64" d="M154.547,268.8c-0.046-0.003-0.084-0.016-0.112-0.037c-0.028-0.021-0.039-0.045-0.033-0.072
						l0.204-0.989c0.005-0.023,0.013-0.047,0.022-0.071c0.009-0.023,0.028-0.044,0.058-0.061l0.344-0.199
						c0.033-0.019,0.072-0.028,0.12-0.028c0.047,0,0.087,0.009,0.119,0.028l2.852,1.646c0.033,0.019,0.048,0.042,0.049,0.069
						c0,0.027-0.016,0.05-0.049,0.069l-0.357,0.206c-0.033,0.02-0.072,0.028-0.12,0.028c-0.046,0-0.086-0.009-0.119-0.028
						l-2.181-1.259l-0.136,0.645c-0.007,0.027-0.027,0.048-0.063,0.063c-0.036,0.016-0.078,0.022-0.128,0.021L154.547,268.8z"/>
					<path fill="#455A64" d="M157.354,267.037c0.033-0.019,0.073-0.028,0.12-0.028c0.047,0,0.087,0.009,0.119,0.028l0.433,0.25
						c0.032,0.019,0.048,0.042,0.048,0.069c0,0.027-0.017,0.05-0.049,0.069l-0.41,0.237c-0.032,0.019-0.071,0.028-0.12,0.028
						c-0.046,0-0.087-0.009-0.119-0.028l-0.433-0.25c-0.033-0.019-0.048-0.042-0.049-0.069c0-0.027,0.017-0.05,0.049-0.069
						L157.354,267.037z M158.9,267.929c0.032-0.019,0.072-0.028,0.12-0.028c0.047,0,0.086,0.009,0.119,0.028l0.433,0.25
						c0.032,0.019,0.048,0.042,0.048,0.069c0,0.027-0.017,0.05-0.049,0.069l-0.41,0.237c-0.032,0.019-0.071,0.028-0.12,0.028
						c-0.046,0-0.086-0.01-0.119-0.028l-0.433-0.25c-0.033-0.019-0.048-0.042-0.049-0.069c0.001-0.027,0.017-0.05,0.049-0.069
						L158.9,267.929z"/>
					<path fill="#455A64" d="M161.929,266.955c-0.033,0.019-0.072,0.028-0.12,0.028c-0.046,0-0.086-0.009-0.119-0.028l-0.534-0.309
						l-1.369,0.79c-0.033,0.019-0.072,0.028-0.118,0.028c-0.048,0-0.088-0.009-0.12-0.028l-0.313-0.181
						c-0.041-0.024-0.067-0.05-0.08-0.079c-0.011-0.03-0.021-0.062-0.03-0.097l-0.335-1.754c-0.015-0.077,0.009-0.133,0.07-0.168
						l0.336-0.194c0.033-0.019,0.072-0.028,0.12-0.028c0.047,0,0.086,0.009,0.118,0.028l1.766,1.02l0.38-0.22
						c0.032-0.019,0.073-0.028,0.119-0.028c0.047,0,0.087,0.01,0.119,0.028l0.314,0.181c0.032,0.018,0.049,0.042,0.048,0.068
						c0.001,0.027-0.017,0.05-0.048,0.069l-0.38,0.219l0.535,0.309c0.032,0.019,0.049,0.042,0.049,0.068
						c0,0.028-0.017,0.05-0.049,0.069L161.929,266.955z M160.604,266.328l-0.945-0.545l0.189,0.981L160.604,266.328z"/>
					<path fill="#455A64" d="M160.731,264.215c-0.032-0.019-0.048-0.042-0.047-0.069c-0.001-0.027,0.016-0.05,0.048-0.069
						l1.66-0.958c0.033-0.019,0.072-0.028,0.119-0.028c0.047,0,0.087,0.009,0.12,0.028l0.314,0.181
						c0.032,0.019,0.047,0.042,0.047,0.069c0,0.027-0.016,0.05-0.048,0.069l-1.24,0.716l0.517,0.354
						c0.046-0.064,0.106-0.121,0.179-0.169c0.072-0.048,0.133-0.087,0.183-0.116c0.165-0.095,0.34-0.17,0.525-0.227
						s0.373-0.089,0.563-0.099c0.19-0.009,0.377,0.006,0.563,0.045c0.186,0.039,0.36,0.106,0.525,0.201
						c0.188,0.109,0.32,0.219,0.393,0.331c0.073,0.112,0.102,0.224,0.083,0.334c-0.017,0.11-0.076,0.218-0.178,0.322
						c-0.102,0.105-0.232,0.203-0.391,0.294c-0.204,0.117-0.401,0.204-0.593,0.261c-0.193,0.057-0.378,0.09-0.555,0.098
						s-0.342-0.003-0.494-0.036c-0.154-0.032-0.291-0.08-0.411-0.143c-0.039-0.018-0.056-0.042-0.053-0.068
						c0.002-0.027,0.021-0.05,0.053-0.069l0.358-0.207c0.029-0.017,0.065-0.027,0.107-0.029c0.043-0.002,0.085,0.003,0.126,0.016
						c0.085,0.03,0.168,0.045,0.25,0.047c0.08,0.003,0.159-0.003,0.233-0.018c0.076-0.015,0.148-0.037,0.219-0.067
						c0.071-0.031,0.14-0.066,0.208-0.105c0.168-0.097,0.257-0.201,0.269-0.313c0.011-0.112-0.062-0.214-0.221-0.306
						c-0.132-0.077-0.295-0.111-0.486-0.102c-0.191,0.008-0.371,0.06-0.542,0.155c-0.088,0.051-0.152,0.095-0.189,0.132
						c-0.039,0.038-0.065,0.071-0.08,0.1c-0.014,0.029-0.027,0.055-0.042,0.078c-0.013,0.023-0.04,0.046-0.082,0.07l-0.407,0.234
						c-0.031,0.018-0.072,0.028-0.118,0.028c-0.047,0-0.087-0.009-0.119-0.028L160.731,264.215z"/>
				</g>
				<g>
					<polygon fill="#455A64" points="113.196,295.043 112.276,294.512 113.503,293.804 114.423,294.335 					"/>
					<polygon fill="#455A64" points="115.037,293.981 113.197,292.918 114.424,292.21 116.264,293.272 					"/>
					<polygon fill="#455A64" points="116.878,292.918 114.118,291.324 115.345,290.616 118.105,292.21 					"/>
					<polygon fill="#455A64" points="118.718,291.855 115.038,289.73 116.265,289.022 119.945,291.147 					"/>
				</g>
				<g id="XMLID_557_">
					<path id="XMLID_571_" fill="#455A64" d="M201.901,240.381c-0.302-0.024-0.557,0.014-0.722,0.109l-4.589,2.642
						c-0.298,0.171-0.22,0.485,0.175,0.713l1.673,0.966c0.221,0.127,0.508,0.211,0.808,0.236c0.128,0.011,0.251,0.01,0.363-0.003
						c0.146-0.017,0.266-0.052,0.358-0.106l4.59-2.642c0.297-0.172,0.22-0.484-0.176-0.713l-1.673-0.965
						C202.488,240.49,202.201,240.406,201.901,240.381z M199.203,244.877c-0.109-0.009-0.235-0.051-0.346-0.115l-1.673-0.966
						c-0.292-0.168-0.353-0.417-0.134-0.543l4.589-2.642c0.053-0.031,0.119-0.052,0.187-0.06c0.038-0.004,0.076-0.005,0.116-0.001
						c0.109,0.009,0.235,0.051,0.345,0.114l1.673,0.965c0.292,0.169,0.354,0.418,0.135,0.544l-4.589,2.642
						C199.423,244.865,199.315,244.887,199.203,244.877z"/>
					<g id="XMLID_568_">
						<path fill="#455A64" d="M198.211,242.919l1.979,1.143l-0.723,0.415c-0.062,0.035-0.199,0.047-0.244,0.021l-1.472-0.85
							c-0.211-0.122-0.257-0.311-0.103-0.404L198.211,242.919z"/>
						<polygon fill="#455A64" points="198.55,242.73 199.408,242.231 201.387,243.374 200.523,243.869 						"/>
						<polygon fill="#455A64" points="199.747,242.042 200.605,241.544 202.59,242.689 201.727,243.185 						"/>
						<path fill="#455A64" d="M201.934,240.932l1.426,0.823c0.262,0.151,0.206,0.373-0.146,0.575l-0.291,0.167l-1.979-1.143
							l0.685-0.396C201.71,240.914,201.876,240.899,201.934,240.932z"/>
					</g>
					<g id="XMLID_564_">
						<path id="XMLID_567_" fill="#455A64" d="M202.891,240.525c0.125-0.074,0.506,0.027,0.849,0.225l0.311,0.179
							c0.343,0.198,0.524,0.423,0.404,0.502l-0.218,0.143l-1.575-0.916C202.663,240.659,202.765,240.599,202.891,240.525z"/>
					</g>
				</g>
				<polygon fill="#455A64" points="190.214,248.099 193.772,245.007 195.647,247.677 193.188,247.007 				"/>
			</g>
		</g>
		<g id="Button">
			<g id="XMLID_606_">
				<path id="XMLID_618_" fill="#27DEBF" d="M265.962,378.055v0.874c0,1.397,0.981,3.097,2.191,3.796l17.156,9.897
					c1.21,0.699,3.173,0.699,4.383,0l84.567-48.855c1.21-0.699,2.191-2.398,2.191-3.796v-0.874c0-1.397-0.981-3.097-2.191-3.796
					l-17.157-9.898c-1.21-0.699-3.173-0.699-4.383,0l-84.566,48.855C266.942,374.958,265.962,376.657,265.962,378.055z"/>
				<path id="XMLID_616_" opacity="0.15" d="M374.554,335.496c0.909,0.697,0.808,1.699-0.289,2.338l-84.578,48.855
					c-0.602,0.354-1.398,0.518-2.186,0.527l-0.001,5.923c0.791,0.006,1.584-0.172,2.196-0.521l84.562-48.851
					c1.215-0.704,2.196-2.403,2.192-3.797l0.001-0.874C376.445,337.82,375.628,336.275,374.554,335.496z"/>
				<path id="XMLID_614_" opacity="0.3" d="M267.818,374.494c-1.05,0.786-1.855,2.295-1.854,3.555l-0.007,0.884
					c0.003,1.394,0.986,3.088,2.199,3.788l17.153,9.896c0.605,0.35,1.402,0.531,2.189,0.522l0.001-5.923
					c-0.792-0.006-1.594-0.178-2.19-0.522l-17.162-9.902C267.064,376.167,266.953,375.188,267.818,374.494z"/>
			</g>
			<g>
				<g>
					<path fill="#455A64" d="M293.21,368.252c0.142-0.082,0.288-0.121,0.44-0.12c0.152,0.002,0.281,0.018,0.389,0.047l8.999,2.524
						c0.098,0.025,0.167,0.046,0.201,0.067c0.064,0.036,0.096,0.082,0.096,0.135c0,0.053-0.031,0.097-0.096,0.134l-1.337,0.772
						c-0.142,0.083-0.273,0.122-0.393,0.122c-0.121,0.001-0.217-0.011-0.287-0.036l-1.178-0.338l-2.823,1.63l0.583,0.681
						c0.043,0.041,0.063,0.096,0.064,0.165c-0.001,0.069-0.07,0.145-0.212,0.227l-1.338,0.771c-0.063,0.037-0.141,0.056-0.233,0.055
						c-0.091,0.001-0.169-0.018-0.233-0.055c-0.034-0.02-0.075-0.059-0.116-0.116l-4.372-5.196c-0.051-0.062-0.077-0.136-0.08-0.224
						c-0.004-0.087,0.064-0.172,0.207-0.254L293.21,368.252z M296.129,371.923l1.719-0.993l-3.406-0.975L296.129,371.923z"/>
					<path fill="#455A64" d="M300.002,364.331c0.488-0.282,1.007-0.497,1.555-0.647c0.549-0.149,1.1-0.232,1.656-0.251
						c0.555-0.018,1.098,0.03,1.63,0.144c0.529,0.115,1.021,0.29,1.474,0.527c0.156,0.081,0.295,0.158,0.418,0.229
						c0.125,0.072,0.244,0.14,0.356,0.206c0.113,0.065,0.231,0.133,0.351,0.202c0.12,0.07,0.248,0.147,0.382,0.233
						c0.417,0.266,0.726,0.549,0.924,0.852c0.197,0.303,0.285,0.612,0.261,0.928c-0.025,0.317-0.163,0.631-0.415,0.943
						c-0.251,0.313-0.62,0.61-1.108,0.892l-2.866,1.654c-0.077,0.044-0.173,0.067-0.285,0.067c-0.113,0-0.209-0.023-0.287-0.067
						l-6.856-3.958c-0.078-0.045-0.115-0.1-0.117-0.165c0.001-0.065,0.039-0.121,0.117-0.165L300.002,364.331z M304.311,365.214
						c-0.855-0.446-1.744-0.403-2.663,0.128l-1.082,0.625l4.032,2.329l1.135-0.655c0.892-0.515,0.948-1.018,0.171-1.508
						c-0.143-0.09-0.277-0.172-0.409-0.249c-0.13-0.075-0.258-0.148-0.382-0.22c-0.124-0.072-0.25-0.144-0.377-0.218
						C304.608,365.373,304.466,365.295,304.311,365.214z"/>
					<path fill="#455A64" d="M307.675,359.901c0.488-0.282,1.007-0.497,1.555-0.646c0.549-0.149,1.1-0.232,1.655-0.251
						c0.556-0.018,1.099,0.03,1.63,0.144c0.53,0.115,1.021,0.291,1.475,0.527c0.156,0.082,0.296,0.159,0.419,0.229
						c0.123,0.072,0.243,0.14,0.355,0.206c0.113,0.065,0.23,0.133,0.351,0.202c0.121,0.07,0.248,0.147,0.383,0.233
						c0.416,0.266,0.725,0.549,0.924,0.852c0.197,0.302,0.284,0.611,0.26,0.928c-0.025,0.316-0.163,0.631-0.416,0.943
						c-0.25,0.313-0.62,0.61-1.107,0.891l-2.865,1.655c-0.078,0.044-0.175,0.067-0.286,0.067c-0.113,0-0.21-0.023-0.287-0.067
						l-6.856-3.959c-0.078-0.044-0.116-0.099-0.118-0.165c0.002-0.065,0.04-0.121,0.118-0.165L307.675,359.901z M311.984,360.784
						c-0.856-0.446-1.744-0.403-2.664,0.128l-1.082,0.625l4.032,2.329l1.135-0.655c0.892-0.515,0.948-1.017,0.171-1.507
						c-0.143-0.09-0.278-0.173-0.41-0.249c-0.13-0.075-0.258-0.149-0.381-0.22c-0.124-0.072-0.25-0.145-0.377-0.218
						C312.281,360.943,312.139,360.865,311.984,360.784z"/>
					<path fill="#455A64" d="M319.699,352.959c0.078-0.045,0.173-0.067,0.285-0.068c0.115,0.001,0.21,0.023,0.288,0.068l1.125,0.648
						c0.078,0.045,0.116,0.101,0.116,0.166s-0.038,0.121-0.116,0.166l-1.868,1.078l5.445,3.143c0.077,0.044,0.116,0.101,0.116,0.165
						c0,0.066-0.04,0.121-0.116,0.166l-1.392,0.802c-0.077,0.046-0.174,0.068-0.285,0.068c-0.114,0-0.21-0.022-0.287-0.068
						l-5.444-3.143l-1.868,1.079c-0.078,0.044-0.174,0.067-0.285,0.067c-0.114,0-0.21-0.023-0.288-0.067L314,356.581
						c-0.078-0.045-0.116-0.1-0.117-0.166c0-0.064,0.039-0.121,0.117-0.165L319.699,352.959z"/>
					<path fill="#455A64" d="M323.34,354.056c-0.375-0.241-0.661-0.506-0.859-0.797c-0.199-0.29-0.287-0.589-0.266-0.9
						c0.021-0.31,0.154-0.625,0.403-0.943c0.248-0.319,0.633-0.629,1.156-0.931c0.516-0.299,1.053-0.52,1.608-0.665
						c0.555-0.146,1.102-0.224,1.64-0.236c0.537-0.013,1.057,0.039,1.561,0.152c0.501,0.115,0.962,0.281,1.378,0.497
						c0.319,0.168,0.645,0.347,0.977,0.539c0.333,0.192,0.638,0.376,0.914,0.552c0.373,0.241,0.66,0.506,0.858,0.796
						c0.198,0.291,0.29,0.592,0.271,0.904c-0.018,0.313-0.153,0.628-0.408,0.947c-0.255,0.318-0.64,0.626-1.156,0.924
						c-0.524,0.303-1.06,0.526-1.608,0.671s-1.093,0.223-1.635,0.232c-0.54,0.011-1.063-0.041-1.565-0.156
						c-0.502-0.115-0.962-0.279-1.379-0.497c-0.305-0.159-0.622-0.334-0.956-0.527C323.94,354.427,323.629,354.239,323.34,354.056z
						 M329.834,352.426c-0.12-0.078-0.255-0.163-0.402-0.257c-0.149-0.094-0.305-0.188-0.467-0.281
						c-0.163-0.094-0.324-0.183-0.483-0.268c-0.16-0.083-0.302-0.158-0.431-0.223c-0.19-0.094-0.391-0.167-0.6-0.218
						s-0.422-0.077-0.642-0.076c-0.22,0-0.441,0.028-0.668,0.085c-0.228,0.057-0.45,0.149-0.669,0.276
						c-0.219,0.126-0.379,0.255-0.477,0.386c-0.101,0.131-0.15,0.259-0.15,0.386c0,0.126,0.044,0.25,0.133,0.371
						c0.089,0.121,0.215,0.236,0.378,0.346c0.106,0.078,0.232,0.162,0.381,0.251c0.149,0.09,0.306,0.182,0.469,0.276
						c0.162,0.094,0.322,0.185,0.481,0.272c0.159,0.088,0.309,0.165,0.451,0.229c0.382,0.188,0.799,0.288,1.248,0.298
						c0.448,0.01,0.893-0.112,1.331-0.365c0.438-0.253,0.646-0.508,0.626-0.765C330.322,352.892,330.153,352.65,329.834,352.426z"/>
					<path fill="#455A64" d="M335.215,347.261c0.084,0.057,0.207,0.134,0.365,0.229s0.326,0.194,0.5,0.294
						c0.173,0.101,0.345,0.197,0.514,0.291c0.17,0.094,0.304,0.166,0.403,0.214c0.177,0.086,0.365,0.158,0.563,0.215
						c0.197,0.057,0.406,0.087,0.625,0.091c0.221,0.005,0.445-0.021,0.675-0.076c0.23-0.055,0.466-0.153,0.705-0.291
						c0.241-0.139,0.411-0.27,0.509-0.393c0.1-0.123,0.159-0.236,0.176-0.339c0.018-0.104,0.004-0.2-0.043-0.289
						c-0.045-0.088-0.097-0.164-0.154-0.23c-0.076-0.085-0.116-0.154-0.12-0.205s0.054-0.111,0.175-0.18l1.39-0.803
						c0.063-0.037,0.143-0.055,0.234-0.055s0.169,0.018,0.233,0.055c0.354,0.212,0.604,0.46,0.754,0.742
						c0.147,0.282,0.189,0.576,0.127,0.883c-0.064,0.305-0.227,0.614-0.488,0.924s-0.626,0.6-1.093,0.871
						c-0.51,0.294-1.04,0.513-1.593,0.655c-0.552,0.143-1.1,0.221-1.646,0.233c-0.543,0.013-1.067-0.039-1.57-0.153
						c-0.502-0.114-0.958-0.277-1.368-0.49c-0.305-0.158-0.623-0.335-0.956-0.527c-0.332-0.191-0.644-0.379-0.935-0.563
						c-0.373-0.232-0.658-0.495-0.854-0.787s-0.282-0.595-0.265-0.908c0.017-0.312,0.151-0.628,0.403-0.949
						c0.252-0.321,0.631-0.629,1.14-0.923c0.468-0.269,0.971-0.479,1.508-0.631c0.538-0.151,1.071-0.245,1.603-0.282
						c0.53-0.036,1.04-0.012,1.528,0.073c0.488,0.086,0.916,0.231,1.284,0.436c0.064,0.036,0.096,0.082,0.095,0.135
						c0.001,0.053-0.03,0.098-0.095,0.135l-1.391,0.803c-0.12,0.069-0.225,0.104-0.313,0.101c-0.087-0.002-0.206-0.025-0.355-0.07
						c-0.113-0.033-0.246-0.063-0.397-0.089c-0.151-0.027-0.319-0.035-0.499-0.025c-0.181,0.011-0.377,0.045-0.589,0.102
						c-0.212,0.057-0.438,0.156-0.679,0.294c-0.24,0.14-0.408,0.275-0.504,0.408s-0.141,0.262-0.133,0.389
						c0.007,0.127,0.06,0.248,0.159,0.361C334.942,347.05,335.066,347.159,335.215,347.261z"/>
					<path fill="#455A64" d="M341.932,340.122c0.143-0.082,0.289-0.121,0.441-0.12c0.152,0.003,0.281,0.018,0.388,0.046l8.999,2.524
						c0.099,0.024,0.167,0.047,0.202,0.068c0.063,0.036,0.096,0.082,0.095,0.135c0,0.053-0.031,0.098-0.095,0.135l-1.337,0.772
						c-0.143,0.082-0.273,0.122-0.394,0.122s-0.215-0.012-0.286-0.037l-1.179-0.336l-2.822,1.63l0.584,0.68
						c0.042,0.041,0.063,0.096,0.063,0.166c0,0.069-0.07,0.145-0.213,0.227l-1.337,0.772c-0.063,0.037-0.141,0.055-0.233,0.055
						c-0.092,0-0.169-0.018-0.232-0.055c-0.035-0.02-0.076-0.059-0.118-0.117l-4.371-5.195c-0.051-0.062-0.077-0.137-0.08-0.225
						c-0.004-0.087,0.065-0.173,0.206-0.254L341.932,340.122z M344.851,343.792l1.72-0.993l-3.406-0.974L344.851,343.792z"/>
					<path fill="#455A64" d="M348.788,336.164c0.467-0.269,0.935-0.482,1.401-0.637c0.466-0.155,0.929-0.25,1.385-0.286
						c0.456-0.034,0.907-0.003,1.354,0.096c0.445,0.098,0.873,0.266,1.283,0.502c0.531,0.307,0.861,0.623,0.993,0.953
						c0.131,0.328,0.087,0.662-0.133,1.001l3.842,0.699c0.063,0.011,0.114,0.028,0.149,0.048c0.063,0.037,0.094,0.082,0.094,0.135
						c0,0.053-0.031,0.098-0.094,0.135l-1.444,0.833c-0.142,0.083-0.274,0.123-0.398,0.121c-0.123-0.003-0.235-0.012-0.334-0.028
						l-3.449-0.631l-0.977,0.563l2.271,1.311c0.078,0.046,0.117,0.101,0.117,0.166s-0.039,0.121-0.117,0.165l-1.39,0.803
						c-0.079,0.044-0.174,0.067-0.286,0.067c-0.114,0-0.21-0.023-0.288-0.067l-6.854-3.959c-0.078-0.044-0.117-0.099-0.118-0.166
						c0-0.065,0.04-0.12,0.118-0.165L348.788,336.164z M350.805,338.713l1.199-0.692c0.297-0.172,0.485-0.346,0.566-0.524
						c0.083-0.177-0.024-0.352-0.322-0.523c-0.297-0.172-0.6-0.234-0.908-0.187c-0.308,0.047-0.609,0.157-0.906,0.327l-1.199,0.693
						L350.805,338.713z"/>
					<path fill="#455A64" d="M358.393,330.619c0.078-0.045,0.174-0.067,0.286-0.067c0.114,0,0.209,0.021,0.286,0.067l1.127,0.65
						c0.078,0.044,0.115,0.1,0.116,0.165c-0.001,0.066-0.04,0.12-0.117,0.166l-1.868,1.078l5.444,3.144
						c0.078,0.045,0.117,0.1,0.118,0.166c-0.001,0.065-0.04,0.12-0.118,0.165l-1.39,0.803c-0.078,0.044-0.174,0.067-0.286,0.067
						c-0.113,0-0.21-0.023-0.288-0.067l-5.444-3.143l-1.866,1.078c-0.079,0.044-0.174,0.067-0.287,0.067s-0.209-0.022-0.287-0.067
						l-1.124-0.65c-0.078-0.045-0.117-0.1-0.118-0.166c0.001-0.064,0.04-0.121,0.118-0.165L358.393,330.619z"/>
				</g>
				<path fill="#455A64" d="M279.946,374.027c-2.682,1.548-2.682,4.058,0,5.606c2.681,1.548,7.028,1.548,9.71,0
					c2.682-1.548,2.682-4.058,0-5.606S282.627,372.479,279.946,374.027z M287.923,375.861l-1.804,1.041l1.804,1.041
					c0.33,0.19,0.33,0.5,0,0.69s-0.865,0.19-1.195,0l-1.804-1.041l-1.803,1.041c-0.33,0.19-0.865,0.19-1.195,0s-0.33-0.5,0-0.69
					l1.803-1.041l-1.803-1.041c-0.33-0.191-0.33-0.5,0-0.69s0.865-0.19,1.195,0l1.803,1.041l1.804-1.041
					c0.33-0.19,0.865-0.19,1.195,0S288.253,375.67,287.923,375.861z"/>
			</g>
		</g>
	</g>
</g>
<g id="Cart_1_">
	<g id="Cart_2_">
		<g>
			<g>
				<path id="XMLID_119_" fill="#37474F" d="M298.198,308.631c0.027-4.292-2.952-9.531-6.656-11.7
					c-1.943-1.139-3.692-1.195-4.927-0.38l0,0l-4.556,2.562l9.549,16.465l4.516-2.56l-0.007-0.012
					C297.384,312.33,298.185,310.821,298.198,308.631z"/>
				<path id="XMLID_118_" fill="#455A64" d="M286.81,299.614c3.704,2.17,6.684,7.408,6.656,11.701
					c-0.027,4.292-3.052,6.013-6.755,3.843c-3.704-2.17-6.684-7.408-6.656-11.701C280.082,299.165,283.106,297.444,286.81,299.614z"
					/>
				<path id="XMLID_117_" fill="#263238" d="M284.493,306.057c0.011-1.678,1.036-2.442,2.29-1.708
					c1.254,0.735,2.261,2.69,2.25,4.368s-1.035,2.443-2.289,1.708S284.482,307.735,284.493,306.057z"/>
				<path opacity="0.15" d="M293.466,311.314c0.009-1.445-0.329-2.997-0.914-4.503l-11.565-6.714
					c-0.581,0.809-0.923,1.94-0.932,3.359c0,0.053,0.005,0.107,0.006,0.161l13.4,7.78
					C293.462,311.369,293.466,311.343,293.466,311.314z"/>
			</g>
			<g>
				<path fill="#455A64" d="M250.317,345.219c-2.543,0.144-5.116-0.27-7.116-1.276l-63.044-36.315
					c-3.811-1.916-8.085-6.899-8.352-11.614l-1.939-44.911l3.511-0.198l1.939,44.911c0.181,3.207,3.537,7.221,6.416,8.668
					l63.045,36.315c2.916,1.465,7.859,1.179,10.584-0.612l42.042-24.22c1.005-0.661,1.583-1.451,1.544-2.112
					c-0.037-0.656-0.669-1.339-1.732-1.874L229.722,272.8c-3.803-1.914-8.064-6.897-8.331-11.619l-0.942-24.906l3.511-0.198
					l0.942,24.906c0.182,3.214,3.525,7.229,6.394,8.673l67.492,39.181c2.255,1.134,3.556,2.843,3.67,4.815
					c0.113,1.959-1.025,3.875-3.125,5.255l-42.042,24.221C255.407,344.365,252.877,345.074,250.317,345.219z"/>
			</g>
			<g>
				<path id="XMLID_116_" fill="#37474F" d="M238.979,344.209c0.027-4.292-2.953-9.53-6.656-11.7
					c-1.944-1.139-3.693-1.195-4.927-0.38l0,0l-4.556,2.563l9.549,16.464l4.516-2.56l-0.006-0.011
					C238.165,347.909,238.966,346.4,238.979,344.209z"/>
				<path id="XMLID_115_" fill="#455A64" d="M227.594,335.194c3.704,2.17,6.684,7.408,6.656,11.701
					c-0.027,4.292-3.052,6.013-6.755,3.843s-6.684-7.408-6.656-11.701C220.866,334.745,223.891,333.024,227.594,335.194z"/>
				<path id="XMLID_114_" fill="#263238" d="M225.274,341.636c0.011-1.678,1.036-2.443,2.29-1.708
					c1.253,0.734,2.261,2.69,2.25,4.368c-0.011,1.677-1.036,2.442-2.289,1.708C226.271,345.27,225.264,343.314,225.274,341.636z"/>
			</g>
			<g>
				<path id="XMLID_113_" fill="#37474F" d="M192.42,317.362c0.036-4.292-2.935-9.536-6.635-11.713
					c-1.942-1.143-3.69-1.201-4.926-0.389l0,0l-4.561,2.554l9.519,16.481l4.521-2.551l-0.006-0.012
					C191.6,321.06,192.403,319.552,192.42,317.362z"/>
				<path id="XMLID_112_" fill="#455A64" d="M181.052,308.326c3.699,2.177,6.669,7.421,6.634,11.713
					c-0.035,4.292-3.063,6.007-6.762,3.831s-6.67-7.42-6.635-11.713C174.325,307.864,177.352,306.149,181.052,308.326z"/>
				<path id="XMLID_111_" fill="#263238" d="M178.72,314.763c0.014-1.678,1.04-2.44,2.293-1.704
					c1.252,0.737,2.256,2.694,2.242,4.372s-1.04,2.441-2.292,1.704C179.71,318.398,178.707,316.441,178.72,314.763z"/>
			</g>
		</g>
		<g id="XMLID_109_">
			<path id="XMLID_110_" fill="#455A64" d="M162.383,196.677c-1.342-4.354,0.679-9.96,4.49-12.457l41.91-23.688
				c3.812-2.497,7.979-0.762,9.32,3.592l2.906,9.432l-2.875,1.677l-3.113-9.528c-0.742-2.306-3-3.097-5.019-1.757l-40.811,23.076
				c-2.437,1.617-3.758,5.236-2.936,8.042l2.462,9.047l-3.429,1.996L162.383,196.677z"/>
		</g>
		<g>
			<g>
				<polygon id="XMLID_108_" fill="#27DEBF" points="227.179,242.124 170.881,274.628 253.163,322.133 309.46,289.619 				"/>
				<polygon id="XMLID_107_" opacity="0.5" points="227.179,242.124 170.881,274.628 253.163,322.133 309.46,289.619 				"/>
			</g>
			<g>
				<polygon id="XMLID_106_" fill="#27DEBF" points="165.29,206.107 221.01,173.555 227.179,242.124 170.881,274.628 				"/>
				<polygon id="XMLID_105_" opacity="0.35" points="165.29,206.107 221.01,173.555 227.179,242.124 170.881,274.628 				"/>
			</g>
			<g>
				<path id="XMLID_100_" fill="#27DEBF" d="M221.01,173.555l6.169,68.569l82.281,47.495l12.991-57.507L221.01,173.555z
					 M249.775,239.476c-2.27,0.874-4.909-0.494-5.896-3.055l-13.597-35.29c-0.987-2.562,0.052-5.348,2.322-6.222
					c2.27-0.874,4.91,0.493,5.896,3.055l13.597,35.29C253.085,235.815,252.045,238.601,249.775,239.476z M275.467,251.563
					c-2.27,0.875-4.909-0.493-5.896-3.055l-13.597-35.29c-0.987-2.562,0.053-5.348,2.322-6.222c2.27-0.875,4.909,0.493,5.896,3.055
					l13.597,35.289C278.776,247.904,277.736,250.689,275.467,251.563z M301.159,263.652c-2.27,0.875-4.91-0.493-5.896-3.055
					l-13.598-35.29c-0.986-2.562,0.053-5.348,2.323-6.222c2.27-0.874,4.909,0.494,5.896,3.056l13.597,35.289
					C304.469,259.992,303.429,262.777,301.159,263.652z"/>
				<path id="XMLID_95_" opacity="0.23" d="M221.01,173.555l6.169,68.569l82.281,47.495l12.991-57.507L221.01,173.555z
					 M249.775,239.476c-2.27,0.874-4.909-0.494-5.896-3.055l-13.597-35.29c-0.987-2.562,0.052-5.348,2.322-6.222
					c2.27-0.874,4.91,0.493,5.896,3.055l13.597,35.29C253.085,235.815,252.045,238.601,249.775,239.476z M275.467,251.563
					c-2.27,0.875-4.909-0.493-5.896-3.055l-13.597-35.29c-0.987-2.562,0.053-5.348,2.322-6.222c2.27-0.875,4.909,0.493,5.896,3.055
					l13.597,35.289C278.776,247.904,277.736,250.689,275.467,251.563z M301.159,263.652c-2.27,0.875-4.91-0.493-5.896-3.055
					l-13.598-35.29c-0.986-2.562,0.053-5.348,2.323-6.222c2.27-0.874,4.909,0.494,5.896,3.056l13.597,35.289
					C304.469,259.992,303.429,262.777,301.159,263.652z"/>
			</g>
			<g>
				<g>
					<path id="XMLID_90_" fill="#27DEBF" d="M165.29,206.107l5.591,68.521l82.282,47.505l12.991-57.506L165.29,206.107z
						 M197.769,273.557c-2.27,0.875-4.91-0.493-5.896-3.055l-13.597-35.29c-0.987-2.562,0.053-5.347,2.322-6.222
						s4.909,0.493,5.896,3.055l13.597,35.29C201.078,269.896,200.039,272.682,197.769,273.557z M223.46,285.645
						c-2.27,0.875-4.91-0.494-5.897-3.055L203.967,247.3c-0.987-2.562,0.052-5.348,2.322-6.222c2.27-0.875,4.91,0.493,5.896,3.055
						l13.597,35.29C226.77,281.984,225.73,284.77,223.46,285.645z M249.152,297.732c-2.27,0.875-4.91-0.493-5.897-3.055
						l-13.597-35.289c-0.987-2.562,0.052-5.348,2.322-6.222c2.27-0.875,4.91,0.494,5.897,3.055l13.597,35.29
						C252.461,294.072,251.422,296.858,249.152,297.732z"/>
				</g>
				<g opacity="0.15">
					<path id="XMLID_85_" d="M165.29,206.107l5.591,68.521l82.282,47.505l12.991-57.506L165.29,206.107z M197.769,273.557
						c-2.27,0.875-4.91-0.493-5.896-3.055l-13.597-35.29c-0.987-2.562,0.053-5.347,2.322-6.222s4.909,0.493,5.896,3.055
						l13.597,35.29C201.078,269.896,200.039,272.682,197.769,273.557z M223.46,285.645c-2.27,0.875-4.91-0.494-5.897-3.055
						L203.967,247.3c-0.987-2.562,0.052-5.348,2.322-6.222c2.27-0.875,4.91,0.493,5.896,3.055l13.597,35.29
						C226.77,281.984,225.73,284.77,223.46,285.645z M249.152,297.732c-2.27,0.875-4.91-0.493-5.897-3.055l-13.597-35.289
						c-0.987-2.562,0.052-5.348,2.322-6.222c2.27-0.875,4.91,0.494,5.897,3.055l13.597,35.29
						C252.461,294.072,251.422,296.858,249.152,297.732z"/>
				</g>
				<g>
					<polygon id="XMLID_84_" fill="#27DEBF" points="266.154,264.627 322.452,232.123 309.461,289.629 253.163,322.133 					"/>
					<polygon id="XMLID_83_" opacity="0.4" points="266.154,264.627 322.452,232.123 309.461,289.629 253.163,322.133 					"/>
				</g>
			</g>
		</g>
	</g>
</g>
<g id="Arrow_1_">
	<g id="Arrow">
		<polygon fill="#37474F" points="286.429,140.476 279.928,144.291 279.949,124.604 276.011,122.33 258.172,132.629 
			258.142,156.916 247.738,162.814 271.024,177.906 290.367,142.75 		"/>
		<polygon fill="#455A64" points="262.11,134.903 262.08,159.19 251.677,165.088 271.024,177.906 290.367,142.75 279.919,148.891 
			279.949,124.604 		"/>
		<polygon fill="#263238" points="258.172,132.629 262.11,134.903 262.08,159.19 258.142,156.916 		"/>
	</g>
</g>
<g id="Bag_1_">
	<g id="Bag_2_">
		<polygon id="XMLID_82_" fill="#27DEBF" points="177.566,155.771 233.949,123.219 229.25,55.401 177.566,85.241 		"/>
		<polygon id="XMLID_81_" opacity="0.6" fill="#FFFFFF" points="177.566,155.771 233.949,123.219 229.25,55.401 177.566,85.241 		
			"/>
		<polygon id="XMLID_80_" fill="#27DEBF" points="177.566,85.241 177.566,79.815 163.471,77.103 215.154,47.263 219.853,55.401 
			229.25,55.401 		"/>
		<polygon id="XMLID_79_" opacity="0.3" fill="#FFFFFF" points="177.566,85.241 177.566,79.815 163.471,77.103 215.154,47.263 
			219.853,55.401 229.25,55.401 		"/>
		<polygon id="XMLID_78_" fill="#27DEBF" points="215.154,47.263 215.154,63.539 219.853,60.826 219.853,55.401 		"/>
		<polygon id="XMLID_77_" opacity="0.1" points="215.154,47.263 215.154,63.539 219.853,60.826 219.853,55.401 		"/>
		<polygon id="XMLID_76_" fill="#27DEBF" points="229.25,55.401 219.853,55.401 219.853,60.826 		"/>
		<polygon id="XMLID_75_" opacity="0.2" points="229.25,55.401 219.853,55.401 219.853,60.826 		"/>
		<polygon id="XMLID_74_" fill="#27DEBF" points="163.471,77.103 158.772,144.92 177.566,155.771 177.566,85.241 177.566,79.815 		
			"/>
		<polygon id="XMLID_73_" opacity="0.1" points="163.471,77.103 158.772,144.92 177.566,155.771 177.566,85.241 177.566,79.815 		
			"/>
		<polygon id="XMLID_72_" fill="#27DEBF" points="177.566,79.815 168.17,150.345 177.566,155.771 		"/>
		<polygon id="XMLID_71_" opacity="0.2" points="177.566,79.815 168.17,150.345 177.566,155.771 		"/>
		<polygon fill="#27DEBF" points="177.566,155.771 168.953,144.464 158.772,144.92 		"/>
		<g>
			<path id="XMLID_70_" fill="#37474F" d="M178.708,76.38c0,0.923,0.647,1.297,1.447,0.835c0.799-0.461,1.446-1.583,1.446-2.506
				c0-0.922-0.647-1.296-1.446-0.835C179.355,74.336,178.708,75.458,178.708,76.38z"/>
			<path id="XMLID_69_" fill="#37474F" d="M197.944,65.529c0,0.922,0.648,1.296,1.447,0.835c0.799-0.461,1.447-1.583,1.447-2.505
				s-0.647-1.296-1.447-0.835C198.592,63.485,197.944,64.606,197.944,65.529z"/>
			<g id="XMLID_68_">
				<path fill="#37474F" d="M180.153,75.332c-0.268,0-0.485-0.217-0.485-0.485v-11.85c0-5.162,4.424-11.916,9.862-15.056
					c3.026-1.747,5.902-2.09,7.893-0.942c1.582,0.914,2.454,2.696,2.454,5.019v11.978c0,0.269-0.217,0.485-0.485,0.485
					s-0.485-0.217-0.485-0.485V52.017c0-1.99-0.681-3.434-1.968-4.177c-1.681-0.971-4.205-0.627-6.922,0.942
					c-5.17,2.985-9.376,9.362-9.376,14.214v11.85C180.639,75.114,180.422,75.332,180.153,75.332z"/>
			</g>
		</g>
		<g>
			<path id="XMLID_67_" fill="#455A64" d="M193.024,84.518c0,0.922,0.648,1.296,1.447,0.835c0.799-0.461,1.447-1.583,1.447-2.505
				c0-0.923-0.648-1.296-1.447-0.835C193.672,82.474,193.024,83.595,193.024,84.518z"/>
			<path id="XMLID_66_" fill="#455A64" d="M212.262,73.667c0,0.923,0.648,1.296,1.447,0.835c0.799-0.461,1.447-1.583,1.447-2.506
				c0-0.922-0.648-1.296-1.447-0.835S212.262,72.745,212.262,73.667z"/>
			<g id="XMLID_65_">
				<path fill="#455A64" d="M194.471,83.469c-0.269,0-0.486-0.217-0.486-0.485v-11.85c0-5.162,4.423-11.916,9.861-15.055
					c3.025-1.747,5.903-2.091,7.894-0.942c1.583,0.914,2.454,2.696,2.454,5.019v11.978c0,0.269-0.217,0.485-0.486,0.485
					c-0.268,0-0.485-0.217-0.485-0.485V60.154c0-1.989-0.681-3.434-1.968-4.177c-1.68-0.971-4.203-0.627-6.923,0.942
					c-5.169,2.985-9.375,9.362-9.375,14.214v11.85C194.957,83.252,194.739,83.469,194.471,83.469z"/>
			</g>
		</g>
	</g>
</g>
<g id="Credit_Card">
	<g id="Card_1_">
		<path id="XMLID_861_" fill="#27DEBF" d="M151.125,442.194l65.438-37.78c1.292-0.746,1.761-1.725,1.769-2.705
			c0.014-1.003,0.018-4.642,0.018-4.642c-0.02,0.031-1.75,2.503-1.779,2.52l-49.571,28.601l-15.89,9.174
			c-2.383,1.375-6.229,1.376-8.613-0.003L43.4,380.146c-0.031-0.021-1.684-1.956-1.715-1.977c0,0-0.092,3.421-0.045,4.562
			c0.02,0.831,0.692,1.629,1.762,2.255l99.11,57.205C144.882,443.579,148.742,443.569,151.125,442.194z"/>
		<path id="XMLID_854_" opacity="0.15" d="M151.125,442.194l65.438-37.78c1.292-0.746,1.761-1.725,1.769-2.705
			c0.014-1.003,0.018-4.642,0.018-4.642c-0.02,0.031-1.75,2.503-1.779,2.52l-49.571,28.601l-15.89,9.174
			c-2.383,1.375-6.229,1.376-8.613-0.003L43.4,380.146c-0.031-0.021-1.684-1.956-1.715-1.977c0,0-0.092,3.421-0.045,4.562
			c0.02,0.831,0.692,1.629,1.762,2.255l99.11,57.205C144.882,443.579,148.742,443.569,151.125,442.194z"/>
		<path fill="#37474F" d="M197.705,410.471L197.705,410.471v4.83l18.858-10.888c1.292-0.746,1.761-1.725,1.769-2.705
			c0.014-1.003,0.018-4.642,0.018-4.642c-0.02,0.031-1.75,2.503-1.779,2.52L197.705,410.471z"/>
		<path id="XMLID_860_" fill="#27DEBF" d="M216.57,399.586c0.029-0.017,0.072-0.042,0.092-0.072c2.28-1.354,2.237-3.55-0.094-4.903
			l-99.119-57.219c-2.376-1.365-6.231-1.378-8.613-0.003l-65.438,37.78c-2.354,1.359-2.371,3.551-0.091,4.914
			c0.031,0.021,0.062,0.041,0.093,0.062l99.096,57.212c2.385,1.379,6.23,1.378,8.613,0.003l15.89-9.174L216.57,399.586z"/>
		<path fill="#455A64" d="M197.705,410.471l18.865-10.885c0.029-0.017,0.072-0.042,0.092-0.073c2.28-1.354,2.237-3.55-0.094-4.902
			l-99.119-57.219c-2.376-1.365-6.231-1.378-8.613-0.003l-18.856,10.886L197.705,410.471z"/>
		<path opacity="0.15" d="M41.685,378.169c0,0-0.092,3.421-0.045,4.563c0.02,0.83,0.692,1.629,1.761,2.255l99.111,57.205
			c1.479,0.866,3.539,1.187,5.458,0.973v-4.837c-1.919,0.216-3.982-0.106-5.473-0.969l-99.097-57.213
			C43.369,380.125,41.715,378.189,41.685,378.169z"/>
		<g id="XMLID_833_">
			<path fill="#FFFFFF" d="M73.757,371.69l-1.917-1.107c-0.086-0.05-0.135-0.109-0.144-0.175c-0.01-0.067,0.023-0.123,0.1-0.167
				c0.076-0.044,0.173-0.064,0.292-0.059c0.117,0.003,0.219,0.031,0.305,0.081l0.639,0.369l2.765-1.597
				c0.152-0.088,0.222-0.197,0.205-0.33c-0.017-0.132-0.111-0.251-0.281-0.353c-0.003-0.001-0.006-0.002-0.01-0.005
				c-0.088-0.051-0.138-0.11-0.146-0.177c-0.008-0.066,0.026-0.121,0.103-0.165c0.076-0.044,0.172-0.064,0.289-0.061
				s0.22,0.032,0.309,0.083l-0.004,0.002l0.004-0.002c0.354,0.205,0.546,0.441,0.579,0.708c0.035,0.271-0.102,0.493-0.407,0.669
				l-2.765,1.597l0.638,0.369c0.089,0.05,0.138,0.111,0.145,0.178s-0.028,0.122-0.104,0.166s-0.173,0.063-0.288,0.059
				C73.945,371.769,73.843,371.741,73.757,371.69z"/>
			<path fill="#FFFFFF" d="M79.571,373.132l-1.278-0.738c-0.175-0.101-0.38-0.157-0.613-0.167c-0.233-0.01-0.425,0.03-0.578,0.118
				l-0.415,0.239c-0.038,0.022-0.055,0.049-0.05,0.083c0.004,0.034,0.027,0.063,0.071,0.088l2.719,1.57
				c0.086,0.05,0.134,0.109,0.143,0.178c0.009,0.068-0.025,0.124-0.102,0.168c-0.076,0.044-0.173,0.063-0.289,0.058
				c-0.118-0.007-0.219-0.035-0.306-0.084l-3.197-1.847c-0.087-0.05-0.135-0.108-0.145-0.175c-0.009-0.066,0.025-0.122,0.103-0.167
				l0.829-0.479c0.306-0.176,0.691-0.255,1.155-0.237c0.467,0.021,0.875,0.132,1.227,0.334l1.278,0.739
				c0.177,0.102,0.382,0.158,0.616,0.168c0.234,0.01,0.428-0.028,0.581-0.116l0.553-0.319c0.152-0.088,0.22-0.2,0.203-0.334
				s-0.115-0.254-0.294-0.356l-1.278-0.739c-0.175-0.101-0.38-0.157-0.613-0.167c-0.233-0.009-0.425,0.03-0.577,0.119
				c-0.078,0.045-0.175,0.064-0.29,0.06c-0.115-0.005-0.216-0.033-0.304-0.084c-0.088-0.05-0.138-0.11-0.148-0.178
				c-0.009-0.066,0.025-0.122,0.103-0.167c0.305-0.176,0.69-0.255,1.155-0.237c0.467,0.021,0.875,0.132,1.227,0.334l1.278,0.739
				c0.355,0.204,0.551,0.442,0.584,0.711c0.033,0.267-0.103,0.491-0.408,0.667l-0.553,0.319c-0.305,0.176-0.692,0.254-1.156,0.236
				C80.338,373.45,79.926,373.336,79.571,373.132z"/>
			<path fill="#FFFFFF" d="M85.679,376.977l-0.276,0.16c-0.305,0.176-0.691,0.255-1.156,0.235s-0.875-0.131-1.227-0.334
				l-1.277-0.737c-0.352-0.204-0.545-0.44-0.579-0.708c-0.034-0.269,0.103-0.492,0.408-0.667c0.075-0.043,0.171-0.063,0.287-0.059
				s0.219,0.032,0.307,0.082c0.088,0.051,0.136,0.11,0.145,0.178c0.009,0.068-0.024,0.125-0.099,0.168
				c-0.153,0.088-0.221,0.199-0.205,0.333c0.017,0.134,0.114,0.253,0.289,0.354l1.277,0.737c0.177,0.102,0.381,0.158,0.614,0.167
				c0.232,0.01,0.425-0.03,0.578-0.118l0.276-0.16c0.153-0.088,0.221-0.199,0.205-0.333c-0.017-0.135-0.114-0.253-0.29-0.355
				l-0.319-0.185c-0.09-0.052-0.139-0.11-0.146-0.176c-0.008-0.066,0.025-0.122,0.102-0.167c0.076-0.044,0.173-0.063,0.289-0.059
				s0.219,0.031,0.309,0.083l0.319,0.185c0.177,0.102,0.381,0.158,0.614,0.168c0.232,0.009,0.425-0.03,0.578-0.119l0.276-0.16
				c0.153-0.088,0.221-0.199,0.205-0.333c-0.017-0.134-0.114-0.253-0.29-0.355l-1.277-0.737c-0.175-0.1-0.38-0.157-0.613-0.166
				c-0.232-0.01-0.425,0.03-0.577,0.118c-0.078,0.045-0.176,0.063-0.292,0.058c-0.117-0.006-0.219-0.034-0.307-0.084
				c-0.088-0.051-0.137-0.109-0.145-0.176c-0.009-0.066,0.026-0.123,0.104-0.167c0.306-0.176,0.691-0.255,1.156-0.235
				c0.466,0.019,0.875,0.131,1.227,0.334l1.277,0.737c0.353,0.204,0.546,0.44,0.579,0.708c0.033,0.269-0.103,0.491-0.408,0.667
				l-0.277,0.16c-0.161,0.093-0.353,0.16-0.575,0.197c-0.222,0.038-0.452,0.048-0.688,0.031c0.029,0.137,0.011,0.27-0.054,0.398
				C85.954,376.774,85.84,376.884,85.679,376.977z"/>
			<path fill="#FFFFFF" d="M89.394,380.624c-0.119-0.006-0.222-0.034-0.31-0.084c-0.088-0.051-0.137-0.109-0.145-0.176
				c-0.008-0.066,0.027-0.121,0.104-0.166l1.534-0.885c-0.3-0.057-0.563-0.151-0.79-0.281l-1.278-0.739
				c-0.352-0.202-0.544-0.438-0.579-0.708c-0.032-0.267,0.104-0.49,0.409-0.666l1.382-0.798c0.075-0.043,0.17-0.063,0.286-0.06
				s0.218,0.031,0.307,0.082c0.088,0.051,0.136,0.11,0.146,0.179c0.008,0.068-0.025,0.124-0.1,0.167l-1.382,0.798
				c-0.153,0.088-0.222,0.199-0.205,0.333s0.114,0.253,0.289,0.354l1.278,0.739c0.176,0.102,0.38,0.157,0.613,0.167
				c0.232,0.009,0.426-0.029,0.578-0.117l1.383-0.798c0.075-0.043,0.17-0.063,0.286-0.06s0.218,0.031,0.307,0.082
				c0.088,0.051,0.136,0.11,0.146,0.179c0.008,0.068-0.025,0.124-0.1,0.167l-3.871,2.235
				C89.607,380.609,89.511,380.628,89.394,380.624z"/>
			<path fill="#FFFFFF" d="M99.333,383.104c-0.037,0.022-0.055,0.049-0.05,0.083s0.028,0.063,0.071,0.088l1.757,1.015
				c0.353,0.204,0.546,0.439,0.579,0.708c0.032,0.267-0.103,0.491-0.408,0.667l-0.553,0.319c-0.305,0.177-0.691,0.254-1.156,0.236
				c-0.465-0.02-0.874-0.131-1.227-0.334l-1.278-0.738c-0.352-0.202-0.544-0.438-0.579-0.708c-0.032-0.268,0.104-0.49,0.409-0.667
				c0.078-0.045,0.175-0.064,0.29-0.06c0.117,0.006,0.219,0.035,0.308,0.085c0.088,0.051,0.136,0.11,0.145,0.176
				c0.008,0.066-0.026,0.122-0.104,0.167c-0.153,0.088-0.221,0.199-0.205,0.333c0.017,0.134,0.114,0.253,0.289,0.354l1.278,0.739
				c0.176,0.102,0.38,0.157,0.613,0.166c0.232,0.01,0.426-0.029,0.578-0.117l0.553-0.319c0.153-0.088,0.22-0.2,0.204-0.334
				s-0.113-0.252-0.289-0.354l-1.916-1.106c-0.176-0.102-0.273-0.221-0.29-0.355c-0.017-0.134,0.052-0.245,0.205-0.333l1.382-0.798
				c0.078-0.045,0.174-0.065,0.289-0.061s0.218,0.033,0.307,0.084l3.193,1.843c0.086,0.05,0.135,0.108,0.146,0.177
				c0.01,0.067-0.023,0.123-0.1,0.167s-0.173,0.063-0.29,0.058c-0.117-0.007-0.219-0.035-0.305-0.085l-2.714-1.567
				c-0.043-0.025-0.094-0.038-0.153-0.04c-0.059-0.002-0.108,0.008-0.148,0.032L99.333,383.104z"/>
			<path fill="#FFFFFF" d="M104.94,386.501l1.277,0.737c0.355,0.206,0.551,0.444,0.584,0.711c0.033,0.269-0.102,0.493-0.407,0.669
				l-0.553,0.319c-0.305,0.176-0.692,0.253-1.157,0.234c-0.464-0.018-0.876-0.131-1.232-0.337l-1.277-0.737
				c-0.353-0.204-0.545-0.44-0.579-0.708c-0.033-0.269,0.103-0.491,0.408-0.667l2.212-1.277c0.305-0.176,0.69-0.254,1.156-0.235
				c0.465,0.019,0.875,0.13,1.227,0.334l1.277,0.737c0.355,0.206,0.551,0.444,0.583,0.711c0.034,0.269-0.102,0.492-0.407,0.668
				c-0.078,0.045-0.175,0.064-0.292,0.058c-0.117-0.006-0.219-0.033-0.307-0.084c-0.088-0.051-0.137-0.109-0.145-0.176
				c-0.008-0.066,0.026-0.123,0.104-0.167c0.153-0.088,0.221-0.199,0.205-0.333c-0.017-0.135-0.116-0.254-0.295-0.358l-1.277-0.737
				c-0.175-0.101-0.38-0.157-0.613-0.167c-0.233-0.01-0.425,0.03-0.578,0.118l-0.704,0.407
				C104.451,386.277,104.714,386.371,104.94,386.501z M102.644,387.092c-0.153,0.088-0.221,0.199-0.205,0.333
				c0.017,0.134,0.114,0.253,0.289,0.354l1.277,0.737c0.179,0.104,0.386,0.161,0.619,0.171c0.233,0.01,0.425-0.03,0.578-0.119
				l0.553-0.319c0.153-0.088,0.221-0.199,0.204-0.333c-0.016-0.134-0.115-0.254-0.295-0.358l-1.277-0.737
				c-0.175-0.1-0.38-0.157-0.613-0.166c-0.232-0.01-0.425,0.03-0.577,0.118L102.644,387.092z"/>
			<path fill="#FFFFFF" d="M112.306,390.914l-3.787,0.527c-0.006,0-0.023,0.002-0.05,0.006c-0.027,0.004-0.049,0.007-0.067,0.008
				c-0.016,0.003-0.041,0.006-0.074,0.01c-0.035,0.002-0.062,0.006-0.083,0.007c-0.022,0-0.049,0-0.084-0.001
				c-0.034-0.002-0.063-0.004-0.086-0.008c-0.023-0.004-0.049-0.01-0.079-0.018c-0.028-0.008-0.053-0.018-0.073-0.029
				c-0.089-0.052-0.144-0.109-0.162-0.169c-0.019-0.06,0.021-0.118,0.12-0.175c0.058-0.033,0.203-0.056,0.436-0.067
				c1.216-0.17,2.386-0.344,3.51-0.523c0.109-0.017,0.221-0.047,0.336-0.088s0.203-0.079,0.265-0.108l0.091-0.047
				c0.153-0.088,0.22-0.2,0.204-0.334c-0.017-0.135-0.113-0.252-0.289-0.354l-0.639-0.369l-0.319-0.185l-1.277-0.737
				c-0.09-0.052-0.14-0.112-0.147-0.178c-0.009-0.066,0.026-0.121,0.103-0.165s0.172-0.065,0.288-0.061
				c0.116,0.004,0.22,0.033,0.31,0.084l1.277,0.737l0.319,0.185l0.639,0.369c0.353,0.203,0.545,0.439,0.579,0.708
				c0.033,0.268-0.103,0.491-0.408,0.667c-0.115,0.067-0.264,0.129-0.445,0.192C112.533,390.862,112.397,390.9,112.306,390.914z"/>
			<path fill="#FFFFFF" d="M116.33,394.674l-0.277,0.16c-0.305,0.176-0.692,0.253-1.157,0.234c-0.465-0.018-0.874-0.129-1.227-0.334
				l-1.277-0.737c-0.352-0.204-0.545-0.439-0.579-0.708c-0.033-0.269,0.103-0.491,0.408-0.667l0.277-0.16
				c0.161-0.093,0.352-0.159,0.572-0.198c0.221-0.039,0.451-0.049,0.692-0.029c-0.034-0.14-0.017-0.272,0.051-0.4
				c0.067-0.127,0.182-0.238,0.343-0.331l0.276-0.16c0.305-0.176,0.691-0.255,1.156-0.235c0.466,0.019,0.875,0.13,1.227,0.334
				l1.277,0.737c0.354,0.205,0.546,0.441,0.579,0.708c0.034,0.269-0.101,0.493-0.406,0.669l-0.277,0.159
				c-0.161,0.093-0.354,0.158-0.576,0.196s-0.451,0.049-0.688,0.031c0.03,0.138,0.011,0.27-0.055,0.398
				S116.491,394.581,116.33,394.674z M117.626,393.187c0.152-0.088,0.221-0.199,0.204-0.333s-0.113-0.253-0.29-0.355l-1.277-0.737
				c-0.175-0.101-0.38-0.157-0.613-0.167c-0.232-0.01-0.425,0.03-0.577,0.119l-0.277,0.16c-0.152,0.088-0.221,0.199-0.204,0.333
				c0.017,0.134,0.114,0.253,0.289,0.354l1.277,0.737c0.176,0.102,0.381,0.158,0.614,0.167c0.233,0.01,0.425-0.03,0.578-0.118
				L117.626,393.187z M115.69,394.304c0.152-0.088,0.221-0.198,0.204-0.333c-0.017-0.134-0.113-0.253-0.29-0.354l-1.277-0.737
				c-0.175-0.101-0.38-0.157-0.613-0.167c-0.233-0.01-0.425,0.03-0.578,0.118l-0.276,0.16c-0.153,0.088-0.221,0.199-0.205,0.333
				s0.114,0.253,0.289,0.354l1.277,0.737c0.176,0.102,0.381,0.158,0.614,0.168c0.232,0.01,0.425-0.03,0.578-0.119L115.69,394.304z"
				/>
			<path fill="#FFFFFF" d="M123.886,400.632l-1.277-0.737c-0.353-0.204-0.545-0.439-0.579-0.708
				c-0.033-0.269,0.103-0.491,0.408-0.668c0.075-0.043,0.172-0.061,0.289-0.057c0.118,0.005,0.222,0.033,0.31,0.084
				c0.088,0.051,0.135,0.11,0.142,0.177c0.007,0.067-0.026,0.123-0.102,0.166c-0.152,0.088-0.221,0.199-0.205,0.333
				c0.017,0.134,0.114,0.253,0.289,0.353l1.277,0.737c0.176,0.102,0.381,0.158,0.617,0.17c0.233,0.009,0.428-0.028,0.58-0.116
				l0.705-0.406c-0.301-0.057-0.565-0.152-0.796-0.286l-1.277-0.737c-0.352-0.204-0.545-0.44-0.579-0.708
				c-0.033-0.269,0.103-0.491,0.408-0.667l0.553-0.319c0.305-0.176,0.69-0.254,1.156-0.235c0.466,0.019,0.875,0.13,1.227,0.334
				l1.277,0.737c0.356,0.206,0.552,0.444,0.584,0.711c0.034,0.269-0.102,0.493-0.406,0.669l-2.212,1.277
				c-0.305,0.176-0.692,0.253-1.157,0.234C124.653,400.951,124.242,400.837,123.886,400.632z M127.849,399.089
				c0.152-0.088,0.22-0.2,0.203-0.334c-0.017-0.135-0.115-0.254-0.295-0.358l-1.277-0.737c-0.175-0.101-0.38-0.157-0.613-0.167
				c-0.233-0.009-0.425,0.03-0.578,0.119l-0.553,0.319c-0.153,0.088-0.221,0.199-0.205,0.333c0.017,0.134,0.114,0.253,0.289,0.354
				l1.277,0.737c0.177,0.102,0.382,0.158,0.617,0.17c0.233,0.009,0.428-0.028,0.581-0.117L127.849,399.089z"/>
			<path fill="#FFFFFF" d="M128.671,403.396l-1.916-1.106c-0.086-0.05-0.135-0.109-0.144-0.176c-0.01-0.067,0.023-0.123,0.099-0.167
				c0.077-0.044,0.173-0.064,0.292-0.059c0.118,0.005,0.22,0.032,0.306,0.083l0.639,0.369l2.765-1.597
				c0.152-0.088,0.221-0.198,0.204-0.331c-0.017-0.132-0.11-0.251-0.28-0.351c-0.004-0.003-0.006-0.004-0.01-0.006
				c-0.089-0.052-0.139-0.112-0.147-0.178s0.026-0.121,0.103-0.165c0.076-0.044,0.172-0.065,0.289-0.061
				c0.116,0.004,0.22,0.032,0.309,0.084l-0.004,0.002l0.004-0.002c0.353,0.203,0.545,0.439,0.579,0.708
				c0.034,0.269-0.103,0.491-0.408,0.667l-2.765,1.596l0.639,0.369c0.089,0.05,0.137,0.11,0.144,0.178s-0.027,0.123-0.104,0.167
				c-0.076,0.044-0.173,0.063-0.289,0.057C128.859,403.473,128.758,403.445,128.671,403.396z"/>
			<path fill="#FFFFFF" d="M132.827,405.794l-1.277-0.737c-0.352-0.204-0.545-0.439-0.579-0.708
				c-0.033-0.269,0.103-0.491,0.408-0.667l2.212-1.277c0.305-0.176,0.691-0.255,1.156-0.235c0.466,0.019,0.875,0.13,1.227,0.334
				l1.277,0.737c0.353,0.204,0.545,0.439,0.579,0.708c0.033,0.267-0.102,0.491-0.407,0.667l-2.212,1.277
				c-0.306,0.176-0.692,0.253-1.156,0.236C133.588,406.109,133.179,405.998,132.827,405.794z M132.103,404.738l1.277,0.737
				c0.103,0.06,0.228,0.105,0.374,0.136l0.429-2.811l-2.165,1.25c-0.153,0.088-0.221,0.199-0.205,0.333
				C131.83,404.517,131.926,404.636,132.103,404.738z M136.697,403.56l-1.277-0.737c-0.106-0.062-0.231-0.107-0.374-0.136
				l-0.428,2.811l2.165-1.25c0.152-0.088,0.22-0.2,0.203-0.334S136.874,403.661,136.697,403.56z"/>
			<path fill="#FFFFFF" d="M137.61,408.557l-1.917-1.107c-0.086-0.05-0.135-0.108-0.144-0.174c-0.01-0.067,0.023-0.123,0.1-0.167
				c0.077-0.044,0.173-0.064,0.292-0.059c0.117,0.004,0.219,0.031,0.306,0.081l0.639,0.369l2.765-1.596
				c0.153-0.088,0.222-0.197,0.205-0.33c-0.017-0.133-0.111-0.251-0.281-0.353c-0.003-0.002-0.005-0.002-0.01-0.006
				c-0.089-0.05-0.139-0.11-0.147-0.176c-0.008-0.066,0.026-0.121,0.103-0.165c0.076-0.044,0.172-0.065,0.288-0.061
				c0.116,0.004,0.22,0.033,0.309,0.083l-0.004,0.002l0.004-0.002c0.354,0.205,0.546,0.441,0.579,0.708
				c0.035,0.27-0.102,0.493-0.407,0.669l-2.765,1.596l0.639,0.369c0.088,0.051,0.137,0.111,0.144,0.178
				c0.007,0.067-0.028,0.122-0.104,0.166s-0.173,0.063-0.288,0.059C137.798,408.634,137.697,408.606,137.61,408.557z"/>
			<path fill="#FFFFFF" d="M146.55,413.718l-1.916-1.106c-0.087-0.05-0.135-0.108-0.145-0.176s0.023-0.123,0.1-0.167
				c0.076-0.044,0.173-0.064,0.292-0.059c0.118,0.005,0.22,0.033,0.306,0.083l0.639,0.369l2.765-1.596
				c0.153-0.088,0.221-0.199,0.205-0.331c-0.017-0.133-0.11-0.25-0.28-0.351c-0.003-0.002-0.007-0.004-0.01-0.006
				c-0.089-0.052-0.139-0.111-0.147-0.178s0.026-0.121,0.103-0.165c0.077-0.044,0.172-0.065,0.289-0.061
				c0.116,0.004,0.22,0.033,0.31,0.084l-0.004,0.002l0.004-0.002c0.353,0.204,0.545,0.439,0.579,0.708
				c0.034,0.269-0.102,0.491-0.408,0.667l-2.765,1.596l0.639,0.369c0.089,0.052,0.137,0.111,0.144,0.178
				c0.007,0.067-0.027,0.124-0.104,0.167c-0.076,0.044-0.172,0.063-0.289,0.058C146.738,413.795,146.637,413.768,146.55,413.718z"/>
			<path fill="#FFFFFF" d="M152.365,415.159l-1.277-0.737c-0.176-0.102-0.381-0.158-0.614-0.168s-0.425,0.03-0.578,0.118
				l-0.415,0.24c-0.037,0.021-0.055,0.049-0.05,0.083c0.004,0.034,0.028,0.064,0.071,0.089l2.719,1.57
				c0.086,0.05,0.134,0.109,0.143,0.177c0.009,0.068-0.025,0.124-0.102,0.168c-0.076,0.044-0.173,0.063-0.29,0.058
				c-0.116-0.006-0.218-0.034-0.304-0.083l-3.198-1.846c-0.086-0.05-0.135-0.108-0.145-0.176s0.024-0.124,0.102-0.168l0.83-0.479
				c0.305-0.177,0.69-0.255,1.156-0.236c0.465,0.02,0.875,0.131,1.227,0.334l1.277,0.737c0.176,0.102,0.381,0.158,0.616,0.168
				c0.234,0.011,0.428-0.028,0.581-0.116l0.553-0.319c0.153-0.088,0.22-0.2,0.204-0.334s-0.115-0.252-0.294-0.356l-1.277-0.737
				c-0.176-0.102-0.381-0.158-0.614-0.167c-0.232-0.01-0.425,0.03-0.577,0.118c-0.078,0.045-0.175,0.064-0.29,0.06
				c-0.114-0.005-0.216-0.033-0.304-0.083c-0.089-0.051-0.137-0.109-0.147-0.176c-0.01-0.067,0.024-0.124,0.102-0.168
				c0.305-0.176,0.69-0.255,1.156-0.235c0.465,0.019,0.875,0.13,1.227,0.334l1.277,0.737c0.356,0.206,0.551,0.443,0.584,0.711
				c0.033,0.269-0.102,0.491-0.408,0.667l-0.553,0.319c-0.306,0.176-0.691,0.255-1.156,0.235S152.72,415.365,152.365,415.159z"/>
			<path fill="#FFFFFF" d="M155.49,418.879l-1.916-1.106c-0.086-0.05-0.134-0.108-0.144-0.176c-0.01-0.067,0.023-0.123,0.1-0.167
				c0.076-0.044,0.173-0.063,0.291-0.059s0.22,0.032,0.307,0.083l0.639,0.368l2.765-1.596c0.153-0.088,0.221-0.199,0.205-0.331
				c-0.017-0.132-0.111-0.251-0.28-0.351c-0.004-0.003-0.006-0.004-0.01-0.006c-0.089-0.052-0.139-0.111-0.147-0.178
				s0.026-0.121,0.103-0.165c0.077-0.044,0.172-0.065,0.289-0.061c0.116,0.004,0.22,0.033,0.31,0.085l-0.005,0.002l0.005-0.002
				c0.353,0.203,0.545,0.439,0.579,0.708c0.034,0.269-0.103,0.491-0.408,0.667l-2.765,1.596l0.639,0.369
				c0.088,0.051,0.137,0.111,0.144,0.178c0.006,0.067-0.028,0.124-0.104,0.168c-0.076,0.044-0.173,0.063-0.289,0.057
				S155.576,418.929,155.49,418.879z"/>
			<path fill="#FFFFFF" d="M162.305,421.217l-0.276,0.16c-0.305,0.176-0.692,0.253-1.156,0.235c-0.465-0.02-0.874-0.131-1.227-0.334
				l-1.277-0.737c-0.353-0.204-0.546-0.44-0.579-0.708s0.103-0.491,0.408-0.667c0.075-0.043,0.169-0.063,0.286-0.06
				c0.116,0.004,0.218,0.031,0.307,0.082c0.088,0.051,0.137,0.111,0.145,0.179s-0.024,0.124-0.1,0.167
				c-0.152,0.088-0.221,0.199-0.205,0.333c0.017,0.134,0.114,0.253,0.29,0.355l1.277,0.737c0.176,0.102,0.38,0.157,0.613,0.167
				c0.233,0.01,0.426-0.029,0.579-0.117l0.276-0.16c0.153-0.088,0.22-0.2,0.204-0.334s-0.113-0.251-0.289-0.354l-0.319-0.185
				c-0.09-0.052-0.139-0.111-0.147-0.177c-0.008-0.066,0.026-0.121,0.103-0.165s0.172-0.065,0.289-0.061s0.22,0.033,0.31,0.084
				l0.319,0.184c0.176,0.102,0.381,0.157,0.613,0.167s0.426-0.029,0.579-0.117l0.276-0.159c0.153-0.088,0.22-0.2,0.204-0.334
				c-0.017-0.135-0.113-0.252-0.289-0.354l-1.277-0.737c-0.176-0.102-0.381-0.159-0.614-0.168c-0.233-0.01-0.425,0.03-0.577,0.118
				c-0.078,0.045-0.175,0.065-0.292,0.059c-0.116-0.006-0.219-0.035-0.307-0.086c-0.088-0.051-0.136-0.109-0.145-0.175
				c-0.008-0.066,0.027-0.122,0.105-0.167c0.305-0.176,0.69-0.254,1.156-0.235c0.465,0.02,0.875,0.131,1.227,0.334l1.277,0.737
				c0.353,0.204,0.545,0.439,0.579,0.708c0.033,0.267-0.103,0.491-0.408,0.667l-0.276,0.16c-0.161,0.093-0.354,0.158-0.576,0.196
				s-0.451,0.049-0.688,0.032c0.029,0.137,0.011,0.269-0.055,0.396C162.579,421.013,162.466,421.124,162.305,421.217z"/>
		</g>
		<g>
			<g id="XMLID_832_">
				<path fill="#FFFFFF" d="M141.408,421.009l-1.119-0.646c-0.05-0.029-0.079-0.063-0.084-0.103
					c-0.006-0.039,0.013-0.072,0.058-0.098c0.044-0.025,0.102-0.037,0.17-0.034c0.069,0.002,0.128,0.019,0.179,0.048l0.373,0.215
					l1.614-0.932c0.089-0.051,0.129-0.115,0.12-0.193s-0.064-0.146-0.164-0.205c-0.002-0.001-0.004-0.002-0.006-0.003
					c-0.052-0.03-0.081-0.065-0.086-0.104c-0.004-0.039,0.015-0.071,0.06-0.097c0.045-0.026,0.101-0.037,0.169-0.035
					c0.067,0.002,0.128,0.019,0.18,0.049l-0.002,0.001l0.002-0.001c0.206,0.119,0.319,0.257,0.338,0.414
					c0.02,0.157-0.06,0.287-0.238,0.39l-1.614,0.932l0.373,0.216c0.052,0.03,0.08,0.064,0.084,0.104
					c0.004,0.04-0.016,0.072-0.061,0.098c-0.045,0.026-0.101,0.037-0.168,0.034C141.518,421.055,141.458,421.038,141.408,421.009z"
					/>
				<path fill="#FFFFFF" d="M144.803,421.85l-0.746-0.43c-0.103-0.059-0.222-0.092-0.358-0.098
					c-0.136-0.006-0.248,0.018-0.337,0.069l-0.242,0.14c-0.022,0.013-0.032,0.028-0.03,0.048s0.017,0.037,0.042,0.052l1.588,0.917
					c0.05,0.029,0.078,0.063,0.083,0.103c0.005,0.04-0.015,0.073-0.06,0.099c-0.044,0.026-0.101,0.037-0.169,0.033
					c-0.068-0.003-0.127-0.02-0.178-0.049l-1.867-1.078c-0.05-0.029-0.079-0.063-0.084-0.103c-0.006-0.039,0.014-0.072,0.06-0.098
					l0.484-0.279c0.178-0.103,0.403-0.149,0.675-0.138c0.272,0.012,0.511,0.077,0.716,0.195l0.746,0.431
					c0.103,0.06,0.223,0.092,0.36,0.099c0.136,0.006,0.25-0.017,0.338-0.068l0.323-0.187c0.089-0.051,0.129-0.117,0.119-0.195
					c-0.01-0.078-0.067-0.148-0.172-0.208l-0.746-0.43c-0.103-0.059-0.222-0.092-0.358-0.098s-0.248,0.018-0.337,0.069
					c-0.045,0.026-0.102,0.038-0.169,0.035c-0.067-0.003-0.126-0.02-0.177-0.049c-0.052-0.03-0.081-0.064-0.086-0.104
					c-0.005-0.039,0.015-0.072,0.06-0.098c0.178-0.103,0.403-0.149,0.674-0.138c0.272,0.012,0.511,0.077,0.717,0.195l0.746,0.43
					c0.208,0.12,0.322,0.259,0.341,0.416c0.02,0.157-0.06,0.287-0.238,0.39l-0.323,0.187c-0.178,0.103-0.404,0.148-0.675,0.137
					C145.251,422.036,145.011,421.97,144.803,421.85z"/>
				<path fill="#FFFFFF" d="M149.277,424.434l-0.746-0.431c-0.103-0.059-0.222-0.092-0.358-0.098
					c-0.136-0.006-0.248,0.018-0.337,0.069l-0.242,0.14c-0.021,0.012-0.032,0.028-0.029,0.048s0.016,0.037,0.042,0.052l1.588,0.917
					c0.05,0.029,0.078,0.063,0.083,0.104c0.005,0.04-0.015,0.072-0.06,0.098c-0.044,0.026-0.101,0.037-0.168,0.034
					c-0.068-0.004-0.128-0.02-0.178-0.049l-1.867-1.078c-0.05-0.029-0.079-0.063-0.084-0.103c-0.005-0.039,0.015-0.072,0.06-0.098
					l0.484-0.28c0.179-0.103,0.403-0.148,0.675-0.138c0.272,0.012,0.511,0.077,0.716,0.195l0.746,0.431
					c0.103,0.06,0.223,0.092,0.36,0.099s0.25-0.017,0.339-0.068l0.323-0.187c0.089-0.051,0.129-0.116,0.119-0.195
					s-0.067-0.148-0.172-0.208l-0.746-0.431c-0.103-0.059-0.222-0.091-0.358-0.097c-0.136-0.006-0.248,0.018-0.337,0.069
					c-0.045,0.026-0.102,0.038-0.169,0.035c-0.067-0.002-0.126-0.019-0.177-0.049c-0.052-0.03-0.081-0.064-0.086-0.104
					c-0.005-0.039,0.014-0.072,0.06-0.098c0.178-0.103,0.403-0.148,0.674-0.138c0.272,0.012,0.511,0.077,0.716,0.195l0.746,0.431
					c0.208,0.12,0.321,0.258,0.341,0.416c0.02,0.156-0.06,0.287-0.238,0.39l-0.323,0.187c-0.179,0.103-0.404,0.148-0.675,0.137
					C149.725,424.619,149.485,424.553,149.277,424.434z"/>
				<path fill="#FFFFFF" d="M152.844,426.679l-0.162,0.093c-0.178,0.103-0.403,0.148-0.675,0.137
					c-0.271-0.011-0.51-0.076-0.716-0.195l-0.746-0.43c-0.206-0.119-0.318-0.257-0.338-0.414c-0.02-0.157,0.06-0.287,0.238-0.39
					c0.044-0.025,0.1-0.036,0.167-0.034c0.068,0.002,0.127,0.019,0.179,0.048c0.051,0.03,0.079,0.064,0.084,0.104
					c0.005,0.04-0.014,0.072-0.058,0.098c-0.089,0.052-0.129,0.116-0.119,0.194c0.01,0.079,0.066,0.148,0.169,0.207l0.746,0.431
					c0.103,0.059,0.222,0.092,0.358,0.097c0.136,0.006,0.248-0.017,0.337-0.069l0.162-0.093c0.089-0.052,0.128-0.117,0.119-0.195
					c-0.01-0.079-0.066-0.147-0.169-0.207l-0.186-0.107c-0.053-0.03-0.082-0.065-0.086-0.104c-0.004-0.039,0.015-0.071,0.06-0.097
					c0.045-0.026,0.101-0.038,0.169-0.035s0.128,0.019,0.181,0.049l0.187,0.107c0.103,0.06,0.222,0.092,0.358,0.098
					c0.136,0.006,0.249-0.017,0.337-0.069l0.162-0.093c0.089-0.052,0.128-0.117,0.119-0.195c-0.01-0.078-0.066-0.147-0.169-0.207
					l-0.746-0.431c-0.103-0.059-0.222-0.091-0.358-0.097c-0.136-0.006-0.248,0.018-0.337,0.069c-0.045,0.026-0.102,0.037-0.17,0.034
					c-0.068-0.003-0.128-0.02-0.179-0.049c-0.052-0.03-0.08-0.064-0.085-0.103s0.016-0.071,0.061-0.098
					c0.178-0.103,0.403-0.148,0.675-0.137c0.272,0.011,0.511,0.076,0.716,0.195l0.746,0.43c0.206,0.119,0.319,0.257,0.338,0.414
					c0.02,0.157-0.06,0.287-0.238,0.39l-0.162,0.093c-0.094,0.054-0.206,0.092-0.336,0.114c-0.13,0.022-0.264,0.029-0.402,0.019
					c0.017,0.08,0.006,0.157-0.032,0.232C153.004,426.56,152.938,426.625,152.844,426.679z"/>
			</g>
			<g id="XMLID_831_">
				<path fill="#FFFFFF" d="M145.05,423.564c-0.002-0.004-0.005-0.009-0.007-0.014c-0.026-0.063,0.004-0.136,0.067-0.163l3.24-1.346
					c0.063-0.026,0.14,0.005,0.163,0.067c0.026,0.063-0.003,0.136-0.067,0.163l-3.24,1.346
					C145.147,423.641,145.081,423.617,145.05,423.564z"/>
			</g>
		</g>
		<g id="XMLID_687_">
			<defs>
				<path id="XMLID_820_" d="M183.843,408.511l-10.838,6.257c-0.811,0.468-2.125,0.468-2.937,0l-13.226-7.537
					c-0.811-0.468-0.811-1.228,0-1.696l10.838-6.257c0.811-0.468,2.125-0.468,2.937,0c3.586,2.071,9.639,5.466,13.225,7.537
					C184.654,407.284,184.654,408.043,183.843,408.511z"/>
			</defs>
			<use xlink:href="#XMLID_820_"  overflow="visible" fill="#27DEBF"/>
			<clipPath id="XMLID_15_">
				<use xlink:href="#XMLID_820_"  overflow="visible"/>
			</clipPath>
			<path id="XMLID_830_" opacity="0.8" clip-path="url(#XMLID_15_)" fill="#FFFFFF" d="M183.843,408.511l-10.838,6.257
				c-0.811,0.468-2.125,0.468-2.937,0l-13.226-7.537c-0.811-0.468-0.811-1.228,0-1.696l10.838-6.257
				c0.811-0.468,2.125-0.468,2.937,0c3.586,2.071,9.639,5.466,13.225,7.537C184.654,407.284,184.654,408.043,183.843,408.511z"/>
			<g id="XMLID_828_" clip-path="url(#XMLID_15_)">
				<polygon id="XMLID_829_" fill="#27DEBF" points="183.437,411.735 184.433,411.544 162.761,399.131 161.765,399.322 				"/>
			</g>
			<g id="XMLID_826_" clip-path="url(#XMLID_15_)">
				<polygon id="XMLID_827_" fill="#27DEBF" points="169.65,409.96 170.646,410.152 176.167,406.964 175.171,406.772 				"/>
			</g>
			<g id="XMLID_823_" clip-path="url(#XMLID_15_)">
				<polygon id="XMLID_825_" fill="#27DEBF" points="164.493,407.099 165.49,407.291 171.002,404.107 170.006,403.916 				"/>
			</g>
			<g id="XMLID_821_" clip-path="url(#XMLID_15_)">
				<polygon id="XMLID_822_" fill="#27DEBF" points="177.904,414.93 178.9,414.738 157.228,402.325 156.232,402.517 				"/>
			</g>
		</g>
		<g>
			<g>
				<path id="XMLID_686_" fill="#455A64" d="M114.692,407.154l-51.785-29.898c-0.9-0.52-2.359-0.52-3.26,0l-0.227,0.131
					c-0.9,0.52-0.9,1.362,0,1.882l51.786,29.898c0.9,0.52,2.359,0.52,3.259,0l0.227-0.131
					C115.593,408.517,115.593,407.674,114.692,407.154z"/>
			</g>
		</g>
		<g>
			<path fill="#27DEBF" d="M109.882,349.774c0.101-0.042,0.201-0.059,0.301-0.052c0.103,0.008,0.186,0.031,0.252,0.071l0.817,0.471
				c0.074,0.043,0.115,0.095,0.121,0.158c0.008,0.062-0.034,0.115-0.119,0.156c-0.298,0.148-0.643,0.268-1.036,0.358
				c-0.395,0.091-0.823,0.131-1.288,0.12c-0.462-0.012-0.95-0.083-1.462-0.215c-0.51-0.132-1.028-0.35-1.553-0.652
				c-0.464-0.268-0.806-0.545-1.024-0.83c-0.22-0.286-0.33-0.571-0.334-0.857c-0.004-0.284,0.097-0.567,0.304-0.845
				c0.203-0.278,0.495-0.541,0.872-0.79c0.241-0.155,0.518-0.322,0.827-0.501c0.309-0.178,0.6-0.337,0.869-0.478
				c0.431-0.216,0.886-0.385,1.367-0.503c0.48-0.119,0.969-0.177,1.462-0.175c0.495,0.002,0.988,0.065,1.485,0.192
				c0.493,0.126,0.973,0.324,1.436,0.592c0.525,0.303,0.902,0.601,1.13,0.897c0.229,0.295,0.354,0.577,0.374,0.844
				c0.021,0.268-0.049,0.517-0.212,0.746c-0.161,0.229-0.366,0.427-0.612,0.594c-0.076,0.049-0.167,0.073-0.273,0.07
				c-0.108-0.005-0.199-0.028-0.272-0.07l-0.817-0.472c-0.068-0.039-0.11-0.089-0.127-0.149c-0.018-0.06,0.011-0.119,0.087-0.177
				c0.112-0.089,0.197-0.192,0.252-0.309c0.053-0.116,0.066-0.241,0.04-0.374c-0.026-0.131-0.106-0.272-0.237-0.421
				c-0.132-0.15-0.33-0.301-0.591-0.451c-0.262-0.152-0.531-0.261-0.806-0.327c-0.275-0.065-0.546-0.098-0.813-0.096
				c-0.266,0.002-0.527,0.037-0.787,0.104c-0.258,0.068-0.499,0.158-0.721,0.271c-0.269,0.141-0.559,0.3-0.866,0.478
				c-0.311,0.178-0.586,0.345-0.829,0.5c-0.203,0.133-0.359,0.272-0.474,0.42c-0.114,0.147-0.173,0.297-0.177,0.45
				c-0.003,0.154,0.053,0.311,0.167,0.469c0.114,0.16,0.302,0.315,0.565,0.467c0.262,0.15,0.523,0.264,0.781,0.34
				c0.26,0.076,0.504,0.123,0.735,0.14c0.233,0.017,0.45,0.011,0.653-0.021C109.548,349.89,109.726,349.841,109.882,349.774z"/>
			<path fill="#27DEBF" d="M120.145,350.131c0.84,0.484,1.284,0.967,1.33,1.444c0.049,0.478-0.275,0.917-0.969,1.317
				c-0.491,0.284-1.022,0.461-1.593,0.529c-0.571,0.07-1.161,0.028-1.766-0.127l-1.1,2.242c-0.021,0.035-0.047,0.063-0.082,0.083
				c-0.059,0.034-0.135,0.051-0.222,0.051c-0.087,0-0.161-0.017-0.222-0.052l-0.857-0.495c-0.134-0.078-0.203-0.153-0.203-0.228
				c0-0.073,0.013-0.133,0.042-0.181l1.03-2.12l-1.342-0.775l-2.352,1.357c-0.074,0.043-0.165,0.064-0.273,0.064
				c-0.106,0-0.197-0.021-0.271-0.063l-0.817-0.472c-0.074-0.043-0.112-0.096-0.112-0.157c0-0.063,0.038-0.116,0.112-0.158
				l6.518-3.763c0.074-0.043,0.165-0.064,0.273-0.063c0.106-0.001,0.199,0.021,0.273,0.063L120.145,350.131z M115.451,351.092
				l1.462,0.845c0.383,0.222,0.757,0.359,1.121,0.413c0.362,0.055,0.734-0.026,1.109-0.244c0.377-0.217,0.516-0.429,0.414-0.636
				c-0.101-0.205-0.343-0.419-0.727-0.641l-1.462-0.844L115.451,351.092z"/>
			<path fill="#27DEBF" d="M122.929,358.438c0.074,0.043,0.11,0.095,0.11,0.157c0,0.063-0.038,0.116-0.112,0.157l-0.715,0.414
				c-0.074,0.043-0.165,0.064-0.273,0.064c-0.108,0-0.197-0.021-0.271-0.064l-4.43-2.557c-0.074-0.043-0.112-0.096-0.112-0.157
				c0-0.063,0.038-0.116,0.112-0.157l6.518-3.765c0.074-0.042,0.165-0.063,0.273-0.063c0.106-0.001,0.199,0.021,0.273,0.063
				l4.348,2.511c0.074,0.043,0.11,0.096,0.11,0.158c0,0.062-0.036,0.115-0.11,0.156l-0.717,0.415
				c-0.074,0.042-0.165,0.063-0.273,0.063s-0.199-0.021-0.273-0.064l-3.258-1.881l-1.604,0.926l3.036,1.753
				c0.074,0.043,0.112,0.096,0.112,0.158c0,0.062-0.036,0.115-0.11,0.157l-0.717,0.413c-0.074,0.044-0.165,0.065-0.273,0.065
				s-0.199-0.021-0.273-0.065l-3.036-1.753l-1.676,0.967L122.929,358.438z"/>
			<path fill="#27DEBF" d="M133.017,357.563c0.499,0.288,0.865,0.576,1.1,0.863c0.235,0.288,0.354,0.572,0.358,0.854
				c0.004,0.282-0.101,0.559-0.313,0.833c-0.212,0.274-0.516,0.542-0.914,0.801c-0.47,0.303-0.967,0.59-1.492,0.862
				c-0.452,0.229-0.914,0.405-1.386,0.527c-0.476,0.123-0.954,0.183-1.438,0.183c-0.485,0-0.973-0.065-1.464-0.197
				c-0.491-0.133-0.979-0.337-1.464-0.618l-2.543-1.468c-0.074-0.042-0.11-0.095-0.11-0.157c0-0.063,0.036-0.115,0.11-0.158
				l6.518-3.763c0.074-0.042,0.167-0.063,0.273-0.063c0.108,0,0.199,0.021,0.273,0.063L133.017,357.563z M131.887,360.127
				c0.201-0.132,0.36-0.271,0.474-0.419c0.113-0.148,0.172-0.301,0.172-0.46c0-0.16-0.066-0.321-0.197-0.485
				c-0.131-0.165-0.341-0.332-0.631-0.499l-1.352-0.781l-4.54,2.623l1.401,0.81c0.277,0.16,0.554,0.275,0.833,0.347
				c0.281,0.072,0.554,0.107,0.823,0.107c0.269,0,0.533-0.034,0.792-0.102c0.258-0.068,0.502-0.161,0.732-0.277
				C130.918,360.717,131.417,360.43,131.887,360.127z"/>
			<path fill="#27DEBF" d="M130.565,364.305c-0.074-0.044-0.11-0.096-0.11-0.158c0-0.063,0.036-0.116,0.11-0.157l6.518-3.764
				c0.074-0.042,0.167-0.063,0.273-0.063c0.108-0.001,0.199,0.021,0.273,0.063l0.817,0.472c0.074,0.043,0.11,0.095,0.11,0.157
				c0.002,0.063-0.036,0.115-0.11,0.157l-6.518,3.764c-0.074,0.042-0.165,0.064-0.273,0.064c-0.108-0.001-0.199-0.022-0.273-0.063
				L130.565,364.305z"/>
			<path fill="#27DEBF" d="M144.997,364.479c0.074,0.042,0.11,0.095,0.11,0.157c0,0.063-0.038,0.114-0.112,0.158l-0.717,0.413
				c-0.074,0.043-0.163,0.064-0.271,0.064c-0.108,0-0.199-0.021-0.273-0.064l-1.816-1.049l-5.528,3.193
				c-0.074,0.042-0.165,0.063-0.273,0.064c-0.108-0.001-0.199-0.022-0.273-0.064l-0.817-0.471c-0.074-0.044-0.11-0.096-0.112-0.158
				c0.002-0.063,0.04-0.116,0.114-0.157l5.528-3.193l-1.817-1.049c-0.074-0.042-0.111-0.095-0.11-0.156
				c0-0.062,0.036-0.115,0.11-0.158l0.717-0.414c0.074-0.042,0.165-0.063,0.273-0.063c0.106-0.001,0.199,0.021,0.273,0.063
				L144.997,364.479z"/>
			<path fill="#27DEBF" d="M147.841,371.691c0.101-0.042,0.201-0.06,0.302-0.053c0.101,0.009,0.186,0.032,0.252,0.071l0.817,0.471
				c0.074,0.043,0.116,0.095,0.122,0.157c0.005,0.063-0.034,0.115-0.122,0.158c-0.296,0.147-0.641,0.267-1.033,0.358
				c-0.395,0.091-0.823,0.13-1.288,0.119c-0.463-0.011-0.95-0.083-1.462-0.216c-0.512-0.131-1.029-0.349-1.553-0.653
				c-0.465-0.267-0.806-0.544-1.024-0.83c-0.22-0.285-0.332-0.571-0.333-0.856c-0.004-0.286,0.097-0.567,0.303-0.846
				c0.203-0.277,0.495-0.541,0.873-0.789c0.241-0.156,0.518-0.322,0.827-0.5s0.599-0.338,0.869-0.478
				c0.43-0.217,0.885-0.385,1.367-0.504c0.48-0.118,0.969-0.176,1.462-0.174c0.495,0.001,0.988,0.066,1.484,0.192
				c0.493,0.126,0.973,0.323,1.436,0.591c0.525,0.303,0.903,0.603,1.13,0.897c0.229,0.295,0.354,0.577,0.374,0.845
				c0.021,0.267-0.051,0.516-0.212,0.745s-0.366,0.428-0.614,0.595c-0.074,0.05-0.165,0.073-0.271,0.07
				c-0.108-0.004-0.199-0.027-0.273-0.07l-0.817-0.472c-0.068-0.04-0.11-0.089-0.127-0.149c-0.017-0.06,0.012-0.12,0.087-0.178
				c0.112-0.089,0.198-0.192,0.252-0.308c0.053-0.117,0.066-0.241,0.04-0.374c-0.027-0.132-0.106-0.273-0.237-0.422
				c-0.132-0.149-0.33-0.3-0.591-0.451c-0.262-0.152-0.531-0.261-0.806-0.327c-0.275-0.065-0.548-0.098-0.813-0.096
				c-0.266,0.003-0.527,0.037-0.787,0.105c-0.258,0.068-0.499,0.157-0.721,0.271c-0.269,0.139-0.559,0.299-0.867,0.478
				c-0.311,0.178-0.586,0.345-0.829,0.5c-0.203,0.132-0.358,0.271-0.474,0.419c-0.114,0.148-0.172,0.298-0.176,0.451
				c-0.003,0.154,0.053,0.31,0.167,0.469c0.114,0.16,0.301,0.314,0.565,0.466c0.262,0.152,0.523,0.266,0.781,0.341
				c0.26,0.076,0.505,0.123,0.736,0.139c0.233,0.019,0.449,0.011,0.652-0.02C147.507,371.806,147.686,371.757,147.841,371.691z"/>
			<path fill="#27DEBF" d="M158.476,372.262c0.108,0.063,0.159,0.125,0.156,0.189c-0.004,0.064-0.042,0.141-0.116,0.229l-3.904,5.11
				c-0.014,0.016-0.034,0.031-0.061,0.046c-0.074,0.042-0.165,0.064-0.273,0.064c-0.106,0-0.197-0.022-0.271-0.064l-0.728-0.419
				c-0.133-0.078-0.199-0.149-0.197-0.212c0.006-0.065,0.025-0.118,0.057-0.162l0.687-0.896l-3.19-1.841l-1.553,0.396
				c-0.074,0.02-0.167,0.03-0.278,0.032c-0.11,0.002-0.233-0.036-0.368-0.114l-0.725-0.419c-0.076-0.043-0.111-0.095-0.111-0.158
				c0-0.063,0.038-0.114,0.111-0.157c0.025-0.015,0.053-0.026,0.08-0.034l8.85-2.255c0.154-0.042,0.287-0.064,0.398-0.066
				c0.11-0.002,0.22,0.027,0.328,0.089L158.476,372.262z M154.6,375.14l1.766-2.302l-3.984,1.021L154.6,375.14z"/>
			<path fill="#27DEBF" d="M165.136,376.106c0.84,0.484,1.284,0.967,1.33,1.444c0.049,0.478-0.275,0.917-0.969,1.318
				c-0.491,0.282-1.021,0.459-1.593,0.529c-0.571,0.07-1.161,0.027-1.766-0.128l-1.1,2.243c-0.021,0.036-0.047,0.063-0.08,0.083
				c-0.061,0.035-0.137,0.052-0.224,0.052s-0.161-0.017-0.222-0.053l-0.857-0.495c-0.135-0.078-0.201-0.153-0.203-0.228
				c0-0.073,0.013-0.133,0.042-0.18l1.03-2.12l-1.343-0.776l-2.352,1.358c-0.074,0.042-0.165,0.064-0.273,0.064
				c-0.106,0-0.197-0.021-0.271-0.064l-0.817-0.472c-0.074-0.042-0.112-0.095-0.112-0.156c0-0.063,0.038-0.115,0.112-0.158
				l6.518-3.763c0.074-0.043,0.165-0.064,0.272-0.064c0.106,0,0.199,0.021,0.273,0.064L165.136,376.106z M160.442,377.067
				l1.462,0.846c0.385,0.221,0.759,0.358,1.121,0.414c0.362,0.055,0.733-0.027,1.109-0.245c0.377-0.218,0.516-0.429,0.415-0.635
				c-0.101-0.206-0.343-0.419-0.728-0.641l-1.462-0.845L160.442,377.067z"/>
			<path fill="#27DEBF" d="M171.893,380.038c0.499,0.287,0.865,0.574,1.1,0.862c0.235,0.287,0.355,0.572,0.358,0.854
				c0.004,0.281-0.102,0.559-0.313,0.833c-0.214,0.273-0.518,0.54-0.914,0.8c-0.47,0.304-0.969,0.591-1.494,0.863
				c-0.449,0.229-0.914,0.405-1.386,0.527c-0.474,0.123-0.952,0.184-1.438,0.184c-0.484,0-0.973-0.066-1.464-0.199
				c-0.491-0.131-0.979-0.337-1.462-0.616l-2.543-1.469c-0.074-0.042-0.112-0.096-0.112-0.156c0-0.063,0.038-0.116,0.112-0.158
				l6.518-3.764c0.074-0.042,0.165-0.064,0.273-0.063c0.106-0.001,0.199,0.021,0.273,0.063L171.893,380.038z M170.763,382.602
				c0.201-0.132,0.358-0.273,0.474-0.42c0.114-0.147,0.17-0.3,0.17-0.46c0-0.159-0.064-0.322-0.197-0.487
				c-0.131-0.165-0.341-0.331-0.629-0.498l-1.352-0.78l-4.542,2.621l1.403,0.81c0.275,0.16,0.554,0.275,0.833,0.347
				c0.279,0.072,0.554,0.108,0.823,0.108s0.533-0.035,0.792-0.103c0.258-0.067,0.502-0.159,0.73-0.276
				C169.793,383.191,170.291,382.903,170.763,382.602z"/>
		</g>
	</g>
</g>
<g id="Character">
	<g id="Character_1_">
		<g>
			<path fill="#FFA8A7" d="M387.24,122.101c-2.91,6.26-7.889,16.615-10.615,22.358l-10.684-12.575h-8.974
				c0,0,10.801,23.026,17.241,28.378c2.416,2.007,5.461,1.768,7.369-0.444c1.908-2.211,4.335-5.495,7.231-9.964
				c5.104-7.875,7.378-11.277,7.378-11.277l6.428-27.012C396.981,111.116,391.279,113.412,387.24,122.101z"/>
			<path fill="#27DEBF" d="M403.652,111.513c-3.435-0.135-7.16-0.559-10.436,2.296c-2.153,1.878-4.917,4.841-7.132,10.04
				c-2.215,5.198-5.636,11.787-5.636,11.787s2.389,3.711,6.406,6.684c4.017,2.973,7.684,3.234,7.684,3.234L403.652,111.513z"/>
			<path opacity="0.45" d="M403.652,111.513c-3.435-0.135-7.16-0.559-10.436,2.296c-2.153,1.878-4.917,4.841-7.132,10.04
				c-2.215,5.198-5.636,11.787-5.636,11.787s2.389,3.711,6.406,6.684c4.017,2.973,7.684,3.234,7.684,3.234L403.652,111.513z"/>
			<path fill="#F28F8F" d="M376.625,144.459c0,0,2.587,3.089,3.283,4.481c0,0-1.146-4.241-2.709-5.69L376.625,144.459z"/>
			<g id="XMLID_42_">
				<g id="XMLID_43_">
					<path id="XMLID_46_" fill="#455A64" d="M354.266,115.166l-0.018,0.004l0.852-0.893l0.002,0.012
						c0.193-0.189,0.514-0.273,0.945-0.201l10.345,1.757c0.959,0.163,2.065,1.011,2.472,1.895l9.295,20.213
						c0.215,0.469,0.185,0.849-0.029,1.082l0.009,0.002l-0.879,0.92l-0.001-0.012c-0.191,0.195-0.517,0.282-0.954,0.208
						l-10.345-1.756c-0.959-0.163-2.065-1.011-2.471-1.895c-1.826-3.974-7.471-16.242-9.296-20.214
						C353.964,115.79,354.014,115.394,354.266,115.166z"/>
					<path id="XMLID_45_" fill="#263238" d="M377.304,138.848l-9.295-20.214c-0.406-0.883-1.513-1.732-2.472-1.895l-10.344-1.756
						c-0.959-0.163-1.407,0.421-1.001,1.305c1.825,3.973,7.47,16.241,9.296,20.214c0.406,0.884,1.512,1.732,2.471,1.895
						l10.345,1.756C377.262,140.316,377.71,139.731,377.304,138.848z"/>
					<path id="XMLID_44_" fill="#37474F" d="M366.691,117.213c0.565,0.363,1.072,0.89,1.319,1.423l9.297,20.207
						c0.202,0.454,0.192,0.827,0.001,1.059l0.827-0.861l-0.011-0.008c0.219-0.235,0.248-0.61,0.034-1.081l-9.298-20.216
						c-0.226-0.499-0.691-0.983-1.22-1.349L366.691,117.213z"/>
				</g>
			</g>
			<path id="XMLID_41_" fill="#FFA8A7" d="M359.161,135.16c-4.278-4.915-4.161-11.063-2.193-12.836l1.305,2.84
				c0,0,6.548,1.455,9.696,1.214c3.149-0.241,5.724-0.988,6.586-0.381c1.827,1.288,2.352,6.775-2.883,8.768
				C367.221,136.459,359.161,135.16,359.161,135.16z"/>
		</g>
		<g id="Botom_1_">
			<g id="XMLID_13_">
				<g id="XMLID_27_">
					<path id="XMLID_40_" fill="#FFA8A7" d="M434.407,296.512c-2.764,1.483-6.132,1.363-9.42,0l-1.364-17.921l10.785,1.422
						L434.407,296.512z"/>
					<path id="XMLID_39_" fill="#FFA8A7" d="M401.34,285.799c-2.334,5.047-6.548,3.65-11.297,0.417l0.834-18.009h11.452
						L401.34,285.799z"/>
					<g>
						<path id="XMLID_38_" fill="#263238" d="M414.227,313.471c-0.305,0.286-0.213,2.241,0.123,2.768
							c0.359,0.565,2.426,2.327,6.161,2.594c3.569,0.256,6.758-0.226,8.854-1.557c2.096-1.331,3.11-2.798,3.308-4.832
							c0.197-2.034-0.029-3.996,0.94-5.561c0.895-1.445,2.321-3.074,2.632-3.857c0.676-1.705,0.024-4.142,0.024-4.142
							L414.227,313.471z"/>
						<path id="XMLID_37_" fill="#37474F" d="M424.021,295.721c-0.061,0.754-0.188,1.504-0.437,2.261
							c-0.517,1.577-1.304,3.062-2.186,4.473c-0.455,0.727-0.935,1.441-1.489,2.1c-1.079,1.285-2.421,2.34-3.563,3.572
							c-1.144,1.232-2.114,2.727-2.204,4.382c-0.152,2.8,2.887,3.751,5.227,4.168c2.498,0.445,5.164,0.311,7.603-0.382
							c2.713-0.771,4.671-2.873,5.121-5.58c0.129-0.777,0.081-1.572,0.173-2.354c0.21-1.784,1.134-3.415,2.178-4.898
							c0.605-0.86,1.264-1.701,1.671-2.666c0.729-1.733,0.145-3.683-0.322-5.41c-0.403-1.491-0.859-3.178-1.384-3.038
							c-0.003,0.301,0.021,0.622-0.124,0.896c-0.172,0.325-0.304,0.504-0.413,0.882c-0.113,0.394-0.242,0.785-0.425,1.153
							c-0.278,0.562-0.688,1.077-1.242,1.372c-0.035-1.057-0.07-2.114-0.104-3.171c-0.012-0.327-0.032-0.682-0.244-0.931
							c-0.216-0.253-0.568-0.328-0.895-0.389c-1.978-0.368-3.993-0.737-5.99-0.496c-0.299,0.036-0.63,0.105-0.804,0.352
							c-0.144,0.202-0.142,0.469-0.134,0.716C424.064,293.752,424.1,294.74,424.021,295.721z"/>
						<path id="XMLID_36_" fill="#F5F5F5" d="M421.021,303.042c1.043-0.781,3.379-0.792,4.656-0.655
							c1.6,0.172,2.896,0.732,3.631,1.274c0.326,0.24,0.782,0.199,1.069-0.084l0,0c0.345-0.34,0.313-0.901-0.079-1.189
							c-0.779-0.574-2.19-1.38-4.086-1.514c-3.144-0.221-4.065,0.317-4.065,0.317S420.713,302.114,421.021,303.042z"/>
						<path id="XMLID_35_" fill="#F5F5F5" d="M418.624,305.911c1.312-0.775,3.881-0.663,5.158-0.526
							c1.6,0.171,2.795,0.801,3.531,1.343c0.325,0.24,0.782,0.199,1.069-0.084l0,0c0.345-0.34,0.313-0.901-0.079-1.19
							c-0.78-0.573-2.278-1.5-4.175-1.634c-3.143-0.222-3.962,0.42-3.962,0.42S418.841,304.753,418.624,305.911z"/>
						<path id="XMLID_34_" fill="#F5F5F5" d="M427.465,297.865c-2.173-0.224-3.094,0.019-3.952,0.332
							c-0.554,0.31-0.919,1.185-0.562,1.407c0.699-0.388,1.959-0.55,3.502-0.481c1.036,0.046,2.341,0.465,3.4,0.934
							c0.269,0.119,0.587,0.287,0.865,0.441c0.376,0.208,0.854,0.06,1.034-0.322l0,0c0.153-0.324,0.039-0.709-0.272-0.898
							C430.721,298.818,429.22,298.047,427.465,297.865z"/>
					</g>
					<g>
						<path id="XMLID_33_" fill="#263238" d="M371.283,297.32c-0.294,0.613-0.209,1.763,0.14,2.492
							c0.348,0.729,4.156,2.877,9.294,2.53c5.137-0.347,8.665-2.416,10.624-3.713c1.958-1.296,3.997-1.539,6.542-1.685
							c2.544-0.146,5.884-1.414,6.442-2.604c0.558-1.19-0.084-3.239-0.084-3.239L371.283,297.32z"/>
						<path id="XMLID_32_" fill="#37474F" d="M391.929,281.521c-0.444-0.163-0.889-0.326-1.333-0.488
							c-0.245-0.09-0.516-0.18-0.76-0.088c-0.328,0.124-0.457,0.511-0.545,0.851c-0.179,0.694-0.252,1.595-0.561,2.232
							c-0.279,0.578-0.961,1.108-1.441,1.514c-1.246,1.054-2.678,1.88-4.111,2.65c-1.678,0.902-3.322,1.602-5.055,2.381
							c-1.768,0.795-4.114,1.281-5.497,2.213c-2.017,1.359-2.276,4.772,0.021,6.121c1.981,1.163,7.194,2.423,12.663,0.875
							c2.979-0.844,6.284-4.027,10.194-4.333c2.486-0.195,7.188-0.893,8.788-2.781c0.592-0.837-0.198-3.492-0.847-5.783
							c-0.708-2.501-0.978-6.413-1.807-6.193c-0.058,0.832-0.777,1.313-1.214,2.011c-0.386,0.616-0.603,1.32-0.893,1.987
							s-0.681,1.327-1.298,1.711s-1.507,0.407-2.014-0.115c-0.732-0.755-0.299-2.083-0.832-2.991
							c-0.361-0.615-1.083-0.903-1.753-1.148C393.066,281.939,392.497,281.73,391.929,281.521z"/>
						<path id="XMLID_31_" fill="#F5F5F5" d="M385.5,286.84c0,0,0.357-0.954,1.836-1.229c1.132-0.21,3.129,0.623,4.371,1.646
							c0.509,0.419,0.442,1.214-0.134,1.532l0,0c-0.343,0.19-0.764,0.14-1.06-0.117C389.699,287.964,387.874,286.677,385.5,286.84z"
							/>
						<path id="XMLID_30_" fill="#F5F5F5" d="M381.994,288.804c0,0,0.73-1.143,2.175-1.121c0,0,2.954,0.085,4.783,1.789
							c0.466,0.435,0.434,1.175-0.125,1.482l0,0c-0.332,0.183-0.737,0.134-1.021-0.118
							C386.983,290.1,385.332,288.554,381.994,288.804z"/>
						<path id="XMLID_29_" fill="#F5F5F5" d="M378.123,290.574c0,0,0.813-1.034,2.259-1.012c0,0,2.753,0.103,4.581,1.807
							c0.466,0.435,0.435,1.175-0.125,1.481l0,0c-0.332,0.183-0.737,0.134-1.021-0.118
							C382.994,291.997,381.461,290.324,378.123,290.574z"/>
					</g>
					<path id="XMLID_28_" fill="#37474F" d="M433.036,161.62c0.646,19.609,0.597,67.048,0.597,67.048
						c0.207,2.439,1.198,7.449,2.011,17.215c1.059,12.702-1.235,40.638-1.235,40.638s-4.66,2.379-10.235,0.056
						c0,0-6.134-39.818-8.077-52.382c-1.708-11.039-5.059-35.834-5.059-35.834l-3.863,32.243c0,0,0.925,7.626-0.395,16.111
						c-0.899,5.78-4.903,29.545-4.903,29.545s-5.28,1.62-11.352-0.431c0,0-0.378-41.17-0.481-46.523
						c-0.117-6.103,2.703-72.525,2.703-72.525L433.036,161.62z"/>
					<path fill="#263238" d="M411.037,198.361l-2.9-16.068c0,0-8.039-0.703-12.479-5.185c0,0,0.791,4.395,10.897,7.031l2.898,16.259
						l-2.279,30.207L411.037,198.361z"/>
				</g>
			</g>
		</g>
		<g id="XMLID_1_">
			<path id="XMLID_12_" fill="#FAFAFA" d="M393.735,126.608c0.866-6.278,1.694-14.718,11.427-15.105l12.555,0.598
				c3.092,0.804,15.115,2.231,15.115,2.231l0.224,27.239c0,0,0.769,19.636,0.531,30.148c-8.991,5.701-28.55,7.549-40.841-1.776
				C392.382,161.266,392.878,132.826,393.735,126.608z"/>
			<g id="XMLID_2_">
				<g id="XMLID_10_">
					<g>
						<path fill="#37474F" d="M395.354,79.187c-0.962,1.696-1.545,3.641-1.612,5.726c-0.166,5.108,2.772,9.593,7.113,11.652
							l-2.266,1.552l22.583,2.023l-0.292,5.437c0,0,1.596-0.368,2.408-1.816c0.813-1.449,3.013-10.353,3.013-10.353
							c2.116-4.861,3.157-9.86,1.639-11.518c-0.725-0.791-1.56-1.146-2.247-1.304l3.032-1.503c-0.577-1.269-2.039-1.806-3.264-1.199
							c-0.264,0.131-0.488,0.311-0.684,0.515c0.073-0.317,0.134-0.638,0.155-0.967c0.063-0.988-0.112-2.021-0.678-2.833
							c-0.403-0.581-0.981-1.018-1.582-1.392c-2.543-1.585-5.557-2.18-8.382-3.18c-1.603-0.567-3.153-1.27-4.73-1.905
							c-1.06-0.427-2.202-0.831-3.322-0.607c-1.12,0.224-2.142,1.328-1.854,2.433c-1.46-1.145-2.974-1.441-4.667-0.708
							c-1.398,0.605-2.481,2.115-2.278,3.677c-1.024-0.207-2.135-0.187-3.062,0.297c-0.927,0.483-1.615,1.506-1.487,2.544
							C393.045,77.011,394.155,78.226,395.354,79.187z"/>
						<path fill="#FFA8A7" d="M411.252,82.367c2.075-0.247,4.138-0.583,6.202-0.908c0.187-0.029,0.399-0.052,0.545,0.068
							c0.093,0.077,0.137,0.196,0.176,0.31c1.354,3.952,1.319,8.25,2.395,12.287c0.098,0.365,0.327,0.992,0.775,1.044
							c0.8,0.093,1.345-0.619,1.688-1.237c0.256-0.462,0.512-0.925,0.769-1.388c0.162-0.293,0.354-0.481,0.564-0.713
							c0.968-0.894,3.834-1.984,5.161,1.063c1.374,3.157-1.513,7.174-3.82,7.817c-3.978,1.108-4.486-1.437-4.486-1.437
							l-0.763,14.193c-3.516,3.681-15.091,2.399-12.798-0.792l0.151-4.322c0,0-3.585,0.426-5.316,0.1
							c-2.881-0.542-4.629-2.886-5.405-6.048c-1.247-5.08-1.112-11.296-0.132-19.024c0.124-0.979,0.393-1.858,0.709-2.658
							C401.716,82.954,406.646,82.915,411.252,82.367z"/>
					</g>
					<path id="XMLID_11_" fill="#F28F8F" d="M407.811,108.353c0,0,6.506-1.092,8.805-2.22c1.539-0.755,2.83-2.108,3.225-2.989
						c0,0-0.485,1.904-1.893,3.588c-1.722,2.059-10.192,3.341-10.192,3.341L407.811,108.353z"/>
				</g>
				<g id="XMLID_3_">
					<path id="XMLID_9_" fill="#263238" d="M408.739,92.329c-0.025,0.796,0.575,1.46,1.341,1.482c0.766,0.023,1.408-0.604,1.434-1.4
						c0.026-0.796-0.574-1.459-1.34-1.482C409.408,90.907,408.766,91.534,408.739,92.329z"/>
					<path id="XMLID_8_" fill="#263238" d="M410.675,86.551l2.908,1.253c0.329-0.833-0.055-1.788-0.858-2.134
						C411.922,85.324,411.004,85.719,410.675,86.551z"/>
					<path id="XMLID_7_" fill="#B16668" d="M410.421,99.883l-4.561,1.544c0.403,1.306,1.752,2.019,3.012,1.593
						S410.825,101.189,410.421,99.883z"/>
					<path fill="#F28F8F" d="M408.872,103.02c0.806-0.273,1.375-0.946,1.578-1.737c-0.254-0.114-0.534-0.18-0.83-0.18
						c-1.103,0-1.994,0.875-2.034,1.967C407.998,103.17,408.439,103.167,408.872,103.02z"/>
					<path id="XMLID_6_" fill="#263238" d="M397.185,87.722l2.896-1.11c-0.284-0.792-1.163-1.186-1.963-0.879
						S396.9,86.929,397.185,87.722z"/>
					<path id="XMLID_5_" fill="#263238" d="M398.201,92.329c-0.026,0.801,0.578,1.469,1.35,1.492
						c0.771,0.023,1.417-0.608,1.443-1.409c0.025-0.801-0.578-1.469-1.35-1.492S398.227,91.528,398.201,92.329z"/>
					<path id="XMLID_4_" fill="#F28F8F" d="M404.982,91.904l-0.209,7.672l-4.282-1.236l3.991-6.5
						C404.668,91.822,404.832,91.849,404.982,91.904z"/>
				</g>
			</g>
			<path fill="#27DEBF" d="M392.208,134.425c0.337-7.957,0.956-14.981,3.917-18.714c2.962-3.734,4.556-4.445,11.578-4.333
				l-0.02,0.479c-0.816,0.074-1.532,0.473-1.987,1.155c-1.288,1.934-3.907,6.323-5.401,11.999
				c-2.035,7.732-2.387,24.989-2.491,34.291s0,16.786,0,16.786s-4.699-1.097-6.155-3.451
				C391.648,172.638,391.872,142.381,392.208,134.425z"/>
			<path opacity="0.35" d="M392.208,134.425c0.337-7.957,0.956-14.981,3.917-18.714c2.962-3.734,4.556-4.445,11.578-4.333
				l-0.02,0.479c-0.816,0.074-1.532,0.473-1.987,1.155c-1.288,1.934-3.907,6.323-5.401,11.999
				c-2.035,7.732-2.387,24.989-2.491,34.291s0,16.786,0,16.786s-4.699-1.097-6.155-3.451
				C391.648,172.638,391.872,142.381,392.208,134.425z"/>
			<path fill="#27DEBF" d="M416.482,121.761c1-4.238,3.069-7.034,3.996-9.193l8.78,1.241c3.232,1.491,7.436,5.054,7.123,8.6
				l-2.3,26.063l0.639,24.674c-5.016,7.796-19.976,6.357-19.976,6.357s-0.425-11.102,0.057-32.546
				C415.071,134.936,415.206,127.165,416.482,121.761z"/>
			<path opacity="0.35" d="M416.482,121.761c1-4.238,3.069-7.034,3.996-9.193l8.78,1.241c3.232,1.491,7.436,5.054,7.123,8.6
				l-2.3,26.063l0.639,24.674c-5.016,7.796-19.976,6.357-19.976,6.357s-0.425-11.102,0.057-32.546
				C415.071,134.936,415.206,127.165,416.482,121.761z"/>
			<path fill="#37474F" d="M416.07,123.849c0.578-2.724,0.892-7.784,1.366-8.8c0.475-1.017,3.089-3.048,3.19-4.412l0.047-0.89
				c0,0,1.058,0.125,2.193,1.134c0.818,0.728,3.245,2.423,3.245,2.423s-0.24,2.4-1.821,4.68c-1.437,2.07-3.445,3.421-3.755,2.911
				c-0.291-0.479-0.258-1.293-0.786-2.5c-0.66-1.509-0.815-2.147-1.518-0.656C417.67,118.933,416.07,123.849,416.07,123.849z"/>
			<path fill="#37474F" d="M401.098,122.365c-0.713,2.293,1.167-7.942,2.382-9.743c1.214-1.801,4.321-2.51,4.321-2.51l-0.134,2.212
				c0,0-1.012,0.124-1.981,1.378C404.904,114.714,402.073,119.224,401.098,122.365z"/>
			<g>
				<path fill="#27DEBF" d="M415.754,126.021c5.926,0.555,12.63,1.604,20.032,3.133l-0.065,0.738
					c-7.416-1.534-14.127-2.585-20.051-3.139C415.696,126.506,415.725,126.261,415.754,126.021z"/>
				<path fill="#27DEBF" d="M392.832,125.857c2.188-0.256,4.676-0.484,7.406-0.616c-0.061,0.241-0.12,0.49-0.179,0.747
					c-2.696,0.135-5.157,0.364-7.313,0.62C392.774,126.356,392.802,126.104,392.832,125.857z"/>
			</g>
		</g>
		<path fill="#FFA8A7" d="M452.765,148.941c-9.381-23.816-11.438-31.233-18.052-33.973c-2.547-1.055-5.454-1.159-5.454-1.159
			c-1.625,2.983-4.024,14.522,3.816,22.536c0,0,5.681,14.016,8.544,20.627c-0.094,6.653,0.392,12.206-1.639,21.208
			c-0.215,0.951-1.367,2.538-2.263,3.032c-2.379,1.311-2.774,2.788-4.533,4.479c-1.375,1.322-2.577,1.625-2.373,2.065
			c0.262,0.565,1.313,1.5,3.043,1.066c0.87-0.218,2.297-1.148,3.683-1.933c0.229,0.27-1.99,3.822-4.312,6.41
			c-3.422,3.814-4.254,6.564,2.595,6.83c4.291,0.167,8.922-3.347,11.828-11.896c0.575-1.692,1.172-4.139,1.78-6.513
			c0.443-1.024,3.577-17.064,4.24-21.963C454.508,153.557,454.287,152.808,452.765,148.941z"/>
		<g>
			<path fill="#27DEBF" d="M428.093,113.809c0,0,4.592-0.776,8.306,1.46c3.713,2.237,4.995,4.197,9.471,14.623
				c4.475,10.426,5.353,12.428,5.353,12.428s-2.021,5.936-13.938,6.621l-5.353-12.196c0,0-4.445-5.535-4.849-12.366
				C426.68,117.547,428.093,113.809,428.093,113.809z"/>
			<path opacity="0.45" d="M428.093,113.809c0,0,4.592-0.776,8.306,1.46c3.713,2.237,4.995,4.197,9.471,14.623
				c4.475,10.426,5.353,12.428,5.353,12.428s-2.021,5.936-13.938,6.621l-5.353-12.196c0,0-4.445-5.535-4.849-12.366
				C426.68,117.547,428.093,113.809,428.093,113.809z"/>
		</g>
	</g>
</g>
</svg>
