<?xml version="1.0" encoding="utf-8"?>
<!-- Generator: Adobe Illustrator 16.0.0, SVG Export Plug-In . SVG Version: 6.00 Build 0)  -->
<!DOCTYPE svg PUBLIC "-//W3C//DTD SVG 1.1//EN" "http://www.w3.org/Graphics/SVG/1.1/DTD/svg11.dtd">
<svg version="1.1" xmlns="http://www.w3.org/2000/svg" xmlns:xlink="http://www.w3.org/1999/xlink" x="0px" y="0px" width="500px"
	 height="500px" viewBox="0 0 500 500" enable-background="new 0 0 500 500" xml:space="preserve">
<g id="Floor">
	<path id="Floor_1_" fill="#F5F5F5" d="M96.132,443.557c86.063,44.959,225.598,44.961,311.66,0.001
		c86.063-44.961,86.063-117.855,0-162.815c-86.063-44.96-225.599-44.96-311.661-0.001C10.069,325.702,10.069,398.597,96.132,443.557
		z"/>
</g>
<g id="Shadows">
	<path id="Shadow_1_" fill="#E0E0E0" d="M358.404,401.535c-15.97,9.22-41.861,9.22-57.831,0c-15.969-9.22-15.97-24.169,0-33.389
		s41.861-9.22,57.831,0C374.373,377.367,374.373,392.315,358.404,401.535z"/>
	<path id="Shadow" fill="#E0E0E0" d="M429.779,361.584c-14.124,8.155-37.023,8.155-51.148,0c-14.124-8.155-14.124-21.376,0-29.531
		c14.124-8.154,37.024-8.154,51.148,0C443.904,340.208,443.904,353.43,429.779,361.584z"/>
</g>
<g id="Clouds">
	<g id="Clouds_4_">
		<path id="XMLID_1271_" fill="#EBEBEB" d="M372.082,78.837l6.395,3.692c-0.032-0.286-0.055-0.569-0.055-0.847V79.83
			c0-3.296,2.314-4.633,5.17-2.984c1.155,0.667,2.219,1.725,3.08,2.962c0.468-4.145,3.72-5.689,7.67-3.409
			c4.271,2.466,7.732,8.462,7.732,13.394v2.771c0,1.277-0.236,2.353-0.654,3.21l5.311,3.066c1.584,0.915,2.867,3.138,2.867,4.966
			c0,1.828-1.283,2.569-2.867,1.655l-34.648-20.004c-1.583-0.914-2.867-3.138-2.867-4.966
			C369.215,78.664,370.499,77.923,372.082,78.837z"/>
		<path id="XMLID_1268_" fill="#EBEBEB" d="M344.72,97.467l4.825,2.786c-0.023-0.215-0.041-0.43-0.041-0.639v-1.398
			c0-2.488,1.747-3.497,3.901-2.252c0.873,0.504,1.676,1.302,2.325,2.236c0.353-3.128,2.808-4.293,5.788-2.572
			c3.224,1.861,5.836,6.387,5.836,10.108v2.091c0,0.964-0.178,1.776-0.494,2.423l4.009,2.314c1.195,0.69,2.164,2.368,2.164,3.748
			c0,1.38-0.969,1.939-2.164,1.25l-26.149-15.097c-1.195-0.69-2.164-2.368-2.164-3.748S343.524,96.777,344.72,97.467z"/>
	</g>
</g>
<g id="Plants">
	<g id="Plants_2_">
		<path id="XMLID_158_" fill="#455A64" d="M78.483,395.777c-0.637,0.346-12.412,3.688-16.774-2.073
			c-4.362-5.761,2.875-14.742-1.216-18.052c-4.092-3.31-15.558,0.019-18.318-6.954s5.421-9.96,0.824-16.978
			c-2.896-4.42-11.006-6.864-10.634-10.981c0.544-6.018,11.617-7.639,21.296-1.192c9.679,6.447,14.183,1.166,17.254,0.733
			s9.691,0.521,9.479,11.302S78.483,395.777,78.483,395.777z"/>
		<g id="XMLID_156_">
			<path id="XMLID_157_" fill="#FFFFFF" d="M79.261,380.446c-0.308,0-0.581-0.223-0.632-0.537
				c-3.37-20.458-27.151-37.108-39.516-40.681c-0.341-0.098-0.537-0.454-0.438-0.794c0.098-0.34,0.454-0.536,0.794-0.438
				c12.645,3.654,36.968,20.714,40.427,41.705c0.057,0.35-0.18,0.68-0.529,0.737C79.331,380.443,79.296,380.446,79.261,380.446z"/>
		</g>
		<g id="XMLID_154_">
			<path id="XMLID_155_" fill="#FFFFFF" d="M51.224,363.323c-0.219,0-0.432-0.112-0.553-0.313c-0.18-0.305-0.081-0.698,0.224-0.879
				c0.385-0.229,9.534-5.577,18.549-3.076c0.342,0.095,0.542,0.448,0.447,0.79s-0.445,0.545-0.79,0.447
				c-8.481-2.354-17.462,2.89-17.551,2.942C51.447,363.294,51.335,363.323,51.224,363.323z"/>
		</g>
	</g>
	<g id="Plants_1_">
		<g id="XMLID_532_">
			<g id="XMLID_163_">
				<g id="XMLID_543_">
					<g id="XMLID_166_">
						<path id="XMLID_329_" fill="#27DEBF" d="M423.097,341.459l-3.115-1.443c0,0-1.018-11.184,0.047-18.653
							c1.981-13.91,11.716-25.901,20.358-27.31c11.146-1.816,9.166,8.441,2.793,12.862
							C433.035,313.954,425.096,324.727,423.097,341.459z"/>
					</g>
				</g>
				<g id="XMLID_38_" opacity="0.1">
					<g id="XMLID_55_">
						<path id="XMLID_56_" d="M423.097,341.459l-3.115-1.443c0,0-1.018-11.184,0.047-18.653c1.981-13.91,11.716-25.901,20.358-27.31
							c11.146-1.816,9.166,8.441,2.793,12.862C433.035,313.954,425.096,324.727,423.097,341.459z"/>
					</g>
				</g>
				<g id="XMLID_164_">
					<g id="XMLID_165_">
						<path id="XMLID_326_" fill="#FFFFFF" d="M421.922,336.979c0.019-0.001,0.037-0.004,0.055-0.007
							c0.296-0.056,0.489-0.341,0.434-0.635c-2.158-11.428,7.254-32.619,19.838-38.632c0.271-0.129,0.385-0.455,0.256-0.725
							s-0.451-0.386-0.726-0.256c-12.964,6.196-22.662,28.036-20.437,39.815C421.394,336.815,421.646,337.002,421.922,336.979z"/>
					</g>
				</g>
			</g>
			<g id="XMLID_160_">
				<g id="XMLID_161_">
					<g id="XMLID_162_">
						<path id="XMLID_322_" fill="#27DEBF" d="M419.981,340.016c-0.228-1.653-0.329-4.077-0.36-4.672
							c-0.111-2.099,0.163-4.228,0.906-6.199c0.976-2.585,2.781-4.883,5.171-6.271c1.297-0.753,2.817-1.295,3.662-2.535
							c0.727-1.066,0.797-2.428,0.954-3.708c0.257-2.09,0.908-4.301,2.584-5.576c1.666-1.268,3.947-1.313,6.03-1.092
							c3.001,0.318,5.808,0.722,8.608-0.652c2.273-1.115,4.525-2.295,6.92-3.118c2.992-1.029,9.712-2.5,11.125,1.709
							c0.384,1.141,0.042,2.425-0.614,3.434s-1.596,1.794-2.521,2.563c-1.563,1.3-3.126,2.6-4.689,3.9
							c-0.531,0.441-1.073,0.896-1.423,1.492c-0.912,1.557-0.266,3.532-0.468,5.325c-0.205,1.82-1.341,3.473-2.871,4.478
							c-1.531,1.005-3.421,1.393-5.247,1.269c-2.448-0.167-6.445-2.049-7.943,0.844c-0.49,0.947-0.586,2.042-0.724,3.1
							s-0.349,2.159-1.015,2.994c-0.976,1.224-2.669,1.574-4.227,1.734c-2.174,0.222-4.413,0.242-6.448,1.037
							c-0.84,0.329-1.369,1.403-1.859,2.113C424.002,341.614,422.321,340.998,419.981,340.016z"/>
					</g>
				</g>
			</g>
		</g>
		<g id="XMLID_530_">
			<g id="XMLID_531_">
				<path id="XMLID_317_" fill="#FFFFFF" d="M421.372,339.16c-0.076,0.006-0.155-0.004-0.232-0.035
					c-0.259-0.104-0.384-0.398-0.279-0.658c6.303-15.647,26.404-26.857,38.378-30.574c0.273-0.083,0.549,0.066,0.632,0.332
					c0.082,0.266-0.066,0.549-0.333,0.632c-11.788,3.66-31.568,14.666-37.739,29.988
					C421.724,339.029,421.556,339.145,421.372,339.16z"/>
			</g>
		</g>
	</g>
</g>
<g id="Pen">
	<g id="Pen_1_">
		<g id="XMLID_268_">
			<path id="XMLID_276_" fill="#27DEBF" d="M278.841,311.202c0,3.573,2.512,7.919,5.608,9.706c1.2,0.697,2.312,0.896,3.222,0.683
				c-0.18,0.193-0.387,0.352-0.607,0.476l1.346-0.766c0.027-0.021,0.048-0.035,0.075-0.048c0.069-0.041,0.132-0.089,0.201-0.138
				c0.089-0.062,0.172-0.138,0.248-0.214c0.048-0.048,0.097-0.097,0.145-0.152c0.014-0.007,0.021-0.014,0.027-0.028
				c0.042-0.048,0.09-0.104,0.131-0.166c0.187-0.241,0.339-0.517,0.463-0.834c0.034-0.09,0.068-0.18,0.097-0.269
				c0.021-0.048,0.034-0.09,0.041-0.138c0.027-0.083,0.048-0.166,0.063-0.248c0.104-0.421,0.151-0.883,0.151-1.394
				c0-3.573-2.511-7.919-5.602-9.706c-0.903-0.524-1.752-0.766-2.511-0.766h-0.021c-0.117,0-0.234,0.007-0.345,0.021l-0.324,0.055
				c-0.069,0.014-0.132,0.034-0.193,0.055l-0.117,0.034c-0.076,0.028-0.151,0.055-0.228,0.097l-0.049,0.021
				c-0.068,0.034-0.145,0.069-0.214,0.11l-1.173,0.669c0.187-0.097,0.394-0.172,0.607-0.214
				C279.228,308.732,278.841,309.802,278.841,311.202z M288.074,321.462c0.034-0.014,0.064-0.032,0.098-0.047
				C288.139,321.43,288.108,321.448,288.074,321.462z"/>
			<path id="XMLID_273_" fill="#EBEBEB" d="M162.432,375.716l7.905,13.741l1.338-0.772l115.388-66.618
				c0.221-0.124,0.428-0.283,0.607-0.476c0.648-0.683,1.035-1.752,1.035-3.152c0-3.573-2.512-7.919-5.608-9.706
				c-0.896-0.524-1.752-0.766-2.504-0.766c-0.249,0-0.483,0.028-0.711,0.083c-0.214,0.042-0.421,0.117-0.607,0.214
				c-0.034,0.014-0.068,0.034-0.096,0.048l-0.035,0.021c-0.007,0.007-0.007,0.007-0.014,0.007L162.432,375.716z"/>
			<path id="XMLID_272_" fill="#27DEBF" d="M166.396,376.108c-3.095-1.787-5.604-0.338-5.604,3.236c0,3.574,2.509,7.919,5.604,9.707
				c3.095,1.787,5.604,0.338,5.604-3.236C172,382.241,169.491,377.895,166.396,376.108z"/>
		</g>
		<path id="XMLID_267_" fill="#E0E0E0" d="M154.347,384.436c0.042-0.055,0.09-0.11,0.138-0.159l7.153-7.864
			c0-0.007,0.007-0.014,0.014-0.021l0.055-0.06c0.042-0.05,0.087-0.095,0.131-0.142l0.076-0.082l0.003,0.005
			c1.022-0.981,2.645-1.065,4.478-0.007c3.095,1.787,5.604,6.133,5.604,9.707c0,2.074-0.849,3.426-2.162,3.852l0.003,0.005
			l-0.086,0.018c-0.131,0.038-0.266,0.067-0.406,0.087l-0.088,0.019c-0.007,0-0.021,0-0.028,0.007l-10.368,2.263
			c-0.518,0.117-1.138-0.007-1.808-0.393c-1.773-1.021-3.208-3.504-3.208-5.546C153.851,385.394,154.03,384.829,154.347,384.436z"/>
		<g id="XMLID_236_">
			<path id="XMLID_240_" fill="#455A64" d="M245.958,333.401c0.007-0.014,0.021-0.021,0.034-0.021l0.187-0.11
				c0.345-0.151,0.8-0.104,1.304,0.187c1.097,0.635,1.994,2.187,1.994,3.456c0,0.559-0.172,0.973-0.462,1.2
				c0,0.007-0.007,0.007-0.007,0.007l-0.242,0.138l-85.174,49.172l-5.602-3.235L245.958,333.401z"/>
			<path id="XMLID_239_" fill="#37474F" d="M171.5,382.863l-7.909,4.566l-5.602-3.235l10.708-6.183
				C169.938,379.375,170.938,381.105,171.5,382.863z"/>
		</g>
		<g id="XMLID_224_">
			<g id="XMLID_231_">
				<path id="XMLID_234_" fill="#27DEBF" d="M151.529,388.174L151.529,388.174l-0.007-0.007l6.488-7.133
					c0.056-0.068,0.112-0.137,0.174-0.192c0.72-0.72,1.881-0.782,3.197-0.025c2.186,1.26,3.961,4.333,3.961,6.86
					c0,1.459-0.59,2.415-1.509,2.726c-0.024,0.006-0.043,0.012-0.062,0.019l-0.261,0.056l-9.512,2.074l-0.004-0.004
					c-0.291,0.064-0.643-0.001-1.023-0.221c-0.996-0.575-1.803-1.973-1.803-3.123C151.169,388.738,151.306,388.392,151.529,388.174z
					"/>
				<path id="XMLID_232_" opacity="0.1" d="M151.529,388.174L151.529,388.174l-0.007-0.007l6.488-7.133
					c0.056-0.068,0.112-0.137,0.174-0.192c0.72-0.72,1.881-0.782,3.197-0.025c2.186,1.26,3.961,4.333,3.961,6.86
					c0,1.459-0.59,2.415-1.509,2.726c-0.024,0.006-0.043,0.012-0.062,0.019l-0.261,0.056l-9.512,2.074l-0.004-0.004
					c-0.291,0.064-0.643-0.001-1.023-0.221c-0.996-0.575-1.803-1.973-1.803-3.123C151.169,388.738,151.306,388.392,151.529,388.174z
					"/>
			</g>
			<g id="XMLID_226_">
				<path id="XMLID_230_" fill="#27DEBF" d="M151.168,389.204c0,1.148,0.807,2.545,1.807,3.123c0.379,0.217,0.733,0.286,1.019,0.217
					l0.006,0.006l4.806-1.049c0.757-0.161,1.254-0.875,1.254-2.018c0-1.838-1.292-4.079-2.881-4.998
					c-0.943-0.546-1.782-0.503-2.31,0.006l-0.13,0.143l-3.216,3.532l0.006,0.006C151.305,388.39,151.168,388.738,151.168,389.204z"
					/>
				<path id="XMLID_229_" opacity="0.1" d="M152.972,388.162c-0.996-0.575-1.803-0.109-1.803,1.041c0,1.15,0.808,2.548,1.803,3.123
					s1.803,0.109,1.803-1.041C154.775,390.135,153.968,388.737,152.972,388.162z"/>
			</g>
		</g>
		<g id="XMLID_203_">
			<path id="XMLID_211_" fill="#FAFAFA" d="M267.17,321.149c0.358-0.214,0.854-0.179,1.406,0.138
				c1.098,0.634,1.987,2.173,1.98,3.435c0,0.642-0.221,1.09-0.586,1.29l0,0l-20.958,12.1c0.29-0.228,0.462-0.642,0.462-1.2
				c0-1.27-0.897-2.821-1.994-3.456c-0.503-0.29-0.959-0.338-1.304-0.187L267.17,321.149z"/>
			<path id="XMLID_207_" fill="#F5F5F5" d="M266.59,322.433c0,1.263,0.89,2.801,1.986,3.436c0.545,0.31,1.035,0.345,1.387,0.138
				c0.366-0.2,0.594-0.642,0.594-1.283c0.007-1.262-0.883-2.801-1.98-3.435c-0.552-0.317-1.048-0.352-1.406-0.138
				C266.811,321.356,266.59,321.805,266.59,322.433z"/>
		</g>
		<path id="XMLID_201_" fill="#27DEBF" d="M271.025,313.948l-0.003-0.005l0.063-0.037c0.029-0.018,0.059-0.034,0.088-0.051
			l8.269-4.769c0.063-0.04,0.127-0.077,0.192-0.111l0.046-0.026l0.002,0.004c0.899-0.44,2.097-0.339,3.417,0.423
			c2.786,1.608,5.044,5.52,5.044,8.736c0,1.617-0.571,2.75-1.493,3.273v0l-8.369,4.831c-0.015,0.009-0.029,0.018-0.045,0.026
			l-0.049,0.028l-0.002-0.004c-0.906,0.482-2.136,0.394-3.491-0.389c-2.786-1.608-5.044-5.52-5.044-8.736
			C269.65,315.597,270.175,314.499,271.025,313.948z"/>
		<path id="XMLID_199_" opacity="0.05" d="M271.025,313.948l-0.003-0.005l0.063-0.037c0.029-0.018,0.059-0.034,0.088-0.051
			l8.269-4.769c0.063-0.04,0.127-0.077,0.192-0.111l0.046-0.026l0.002,0.004c0.899-0.44,2.097-0.339,3.417,0.423
			c2.786,1.608,5.044,5.52,5.044,8.736c0,1.617-0.571,2.75-1.493,3.273v0l-8.369,4.831c-0.015,0.009-0.029,0.018-0.045,0.026
			l-0.049,0.028l-0.002-0.004c-0.906,0.482-2.136,0.394-3.491-0.389c-2.786-1.608-5.044-5.52-5.044-8.736
			C269.65,315.597,270.175,314.499,271.025,313.948z"/>
		<path id="XMLID_197_" opacity="0.1" d="M274.694,314.23c-2.786-1.608-5.044-0.304-5.044,2.912c0,3.217,2.258,7.128,5.044,8.736
			c2.785,1.608,5.044,0.304,5.044-2.912C279.738,319.75,277.479,315.838,274.694,314.23z"/>
		<g id="XMLID_190_">
			<path id="XMLID_195_" fill="#455A64" d="M148.879,391.176L148.879,391.176l3.421-2.053l0.002,0.002
				c0.168-0.108,0.405-0.102,0.67,0.051c0.51,0.295,0.924,1.012,0.924,1.601c0,0.294-0.104,0.501-0.271,0.598l0,0l-3.408,2.062l0,0
				c-0.188,0.104-0.404,0.163-0.634,0.163c-0.726,0-1.314-0.588-1.314-1.314C148.269,391.819,148.513,391.409,148.879,391.176z"/>
			<path id="XMLID_192_" fill="#263238" d="M148.68,391.333l0.007-0.007c0.055-0.048,0.119-0.102,0.182-0.144
				c0.007,0,0.007-0.007,0.014-0.007c0.159-0.062,0.367-0.028,0.594,0.103c0.51,0.297,0.924,1.007,0.924,1.601
				c0,0.29-0.097,0.49-0.262,0.586c-0.021,0.014-0.048,0.027-0.069,0.034c-0.021,0.014-0.067,0.032-0.067,0.032
				c-0.131,0.055-0.271,0.071-0.422,0.071c-0.724,0-1.311-0.593-1.311-1.317C148.27,391.906,148.425,391.567,148.68,391.333z"/>
		</g>
	</g>
</g>
<g id="Agreement">
	<g id="Contract_1_">
		<g id="XMLID_123_">
			<path id="XMLID_126_" fill="#27DEBF" d="M82.667,400.314l-3.489-2.015c-1.1-0.635-1.991-2.179-1.991-3.449l-0.002-258.562
				c0-1.27,0.892-2.814,1.991-3.449l160.407-92.611c1.1-0.635,2.883-0.635,3.983,0l3.491,2.015c1.1,0.635,1.991,2.18,1.991,3.449
				v258.562c0,1.27-0.892,2.814-1.991,3.449L86.65,400.314C85.55,400.949,83.767,400.949,82.667,400.314z"/>
			<path id="XMLID_125_" opacity="0.4" fill="#FFFFFF" d="M249.024,45.37c-0.138-1.03-0.975-1.407-1.968-0.828L86.649,137.153
				c-0.552,0.313-1.04,0.855-1.407,1.481l-7.478-4.313c0.368-0.625,0.855-1.159,1.407-1.481l160.407-92.611
				c1.104-0.634,2.888-0.634,3.983,0l3.495,2.015C248.059,42.823,248.896,44.175,249.024,45.37z"/>
			<path id="XMLID_124_" opacity="0.15" d="M86.3,400.473c-0.037,0.028-0.083,0.037-0.12,0.046
				c-0.064,0.027-0.129,0.055-0.203,0.073c-0.027,0.009-0.055,0.019-0.083,0.028c-0.12,0.037-0.239,0.064-0.368,0.092h-0.046
				c-0.791,0.147-1.665,0.083-2.373-0.193c-0.156-0.055-0.303-0.129-0.441-0.203l-3.495-2.014c-1.094-0.644-1.987-2.18-1.987-3.449
				V136.289c0-0.635,0.221-1.343,0.58-1.968l7.478,4.313c-0.368,0.625-0.589,1.334-0.589,1.968v258.564
				c0,0.451,0.11,0.809,0.304,1.048c0.248,0.304,0.625,0.432,1.067,0.34C86.116,400.537,86.208,400.51,86.3,400.473z"/>
		</g>
		<g id="XMLID_101_">
			<path id="XMLID_115_" fill="#455A64" d="M198.943,87.836c-0.092-0.055-0.193-0.11-0.294-0.175l-3.311-1.904
				c-0.772-0.488-1.987-0.957-3.863-1.371c-0.57-0.129-1.085-0.276-1.536-0.423c-0.561-0.193-1.039-0.386-1.462-0.598l0.248-0.303
				v-0.009l-3.744-2.162v0.009c-0.294-0.166-0.607-0.304-0.984-0.396c-1.407-0.34-3.514,0.478-5.62,0.239
				c-1.333-0.147-2.667-0.727-3.817-2.271c-1.279-1.72-2.051-4.737-3.183-7.229l0.984-1.453c-0.101-0.064-0.203-0.12-0.313-0.175
				l-3.431-1.987c-0.552-0.322-1.187-0.515-1.913-0.515c-1.002,0-2.18,0.349-3.596,1.168c-8.214,4.746-8.49,16.013-11.451,23.417
				c-2.962,7.423-7.146,9.731-9.428,12.923c-2.299,3.182-2.438,5.546-7.487,12.509c-5.049,6.962-5.252,8.664-5.252,9.979v10.375
				l3.734,2.152l67.226-38.824L198.943,87.836z M137.301,127.818c-0.874,0.497-1.591-0.174-1.591-1.527
				c0-1.343,0.717-2.86,1.591-3.366c0.874-0.506,1.582,0.184,1.582,1.536C138.883,125.804,138.174,127.312,137.301,127.818z
				 M166.834,98.708c-2.207,1.278-4.139,0.552-5.178-1.582c-2.603,0.506-4.544-2.014-4.544-6.337c0-5.095,2.686-10.771,5.997-12.684
				c2.207-1.278,4.139-0.552,5.169,1.582c2.612-0.515,4.543,1.996,4.543,6.337C172.822,91.119,170.146,96.794,166.834,98.708z
				 M189.157,97.871c-0.874,0.506-1.582-0.175-1.582-1.518c0-1.352,0.708-2.852,1.582-3.357c0.883-0.506,1.591,0.175,1.591,1.527
				C190.748,95.865,190.04,97.365,189.157,97.871z"/>
			<path id="XMLID_114_" opacity="0.5" fill="#37474F" d="M136.959,129.674l-7.229-4.174c-0.211,0.694-0.238,1.176-0.238,1.61
				v10.375l3.734,2.152l3.733-2.156V129.674z"/>
			<path id="XMLID_113_" opacity="0.5" fill="#37474F" d="M144.432,116.732l3.736-8.629l-5.937-3.483c0,0-0.001,0.001-0.001,0.001
				c-1.743,2.412-2.248,4.359-4.588,8.19L144.432,116.732z"/>
			<path id="XMLID_112_" opacity="0.5" fill="#37474F" d="M159.376,99.476l0.485-2.515c-1.651-0.692-2.749-2.922-2.749-6.173
				c0-4.327,1.939-9.063,4.551-11.567l-5.178-2.988c-2.208,5.027-3.024,10.959-4.827,15.466c-0.382,0.958-0.785,1.827-1.201,2.627
				L159.376,99.476z"/>
			<path id="XMLID_106_" fill="#37474F" d="M198.943,87.836c-0.092-0.055-0.193-0.11-0.294-0.175
				c-0.773-0.396-1.876-0.772-3.449-1.122c-2.98-0.671-4.25-1.72-5.261-2.576c-0.414-0.349-0.782-0.662-1.214-0.901
				c-0.294-0.175-0.616-0.313-1.002-0.405c-2.263-0.543-6.383,1.922-9.345-1.914c-0.028-0.037-0.065-0.083-0.092-0.119
				c-2.069-2.787-2.823-9.005-5.923-10.835c-0.101-0.064-0.203-0.12-0.313-0.175c-1.279-0.598-2.943-0.487-5.215,0.819
				c-8.213,4.746-8.489,16.013-11.451,23.417c-2.962,7.422-7.147,9.731-9.428,12.923c-2.299,3.182-2.428,5.546-7.487,12.509
				c-5.05,6.962-5.243,8.664-5.243,9.979v10.375l67.226-38.824V90.448C200.452,89.593,200.369,88.682,198.943,87.836z
				 M141.025,129.97c-0.874,0.506-1.582-0.175-1.582-1.527c0-1.343,0.708-2.86,1.582-3.366c0.883-0.506,1.582,0.184,1.582,1.536
				C142.607,127.956,141.909,129.464,141.025,129.97z M166.834,98.708c-2.207,1.278-4.139,0.552-5.178-1.582
				c-0.524-1.067-0.819-2.483-0.819-4.185c0-5.095,2.686-10.771,5.997-12.684c0.497-0.285,0.984-0.478,1.444-0.57
				c2.612-0.515,4.543,1.996,4.543,6.337C172.822,91.119,170.146,96.794,166.834,98.708z M192.891,100.022
				c-0.883,0.506-1.591-0.174-1.591-1.518c0-1.352,0.708-2.851,1.591-3.357c0.874-0.506,1.582,0.175,1.582,1.527
				C194.473,98.018,193.765,99.517,192.891,100.022z"/>
			<path id="XMLID_105_" fill="#263238" d="M172.822,86.024c0,5.095-2.676,10.771-5.988,12.684
				c-2.207,1.278-4.139,0.552-5.178-1.582c0.469-0.092,0.947-0.276,1.453-0.57c3.311-1.913,5.987-7.588,5.987-12.684
				c0-1.702-0.294-3.118-0.818-4.185C170.891,79.172,172.822,81.683,172.822,86.024z"/>
			<path id="XMLID_104_" fill="#263238" d="M141.029,129.966c-0.875,0.506-1.59-0.173-1.59-1.521c0-1.348,0.714-2.859,1.59-3.365
				c0.875-0.505,1.583,0.186,1.583,1.533C142.612,127.96,141.904,129.461,141.029,129.966"/>
			<path id="XMLID_103_" fill="#263238" d="M192.887,100.029c-0.875,0.505-1.589-0.174-1.589-1.521c0-1.348,0.714-2.859,1.589-3.365
				s1.583,0.185,1.583,1.533C194.471,98.023,193.763,99.524,192.887,100.029"/>
		</g>
		<g id="XMLID_97_">
			<path id="XMLID_100_" fill="#F5F5F5" d="M97.057,161.34l139.584-80.588c0.66-0.381,1.729-0.381,2.39,0l1.346,0.777
				c0.66,0.381,1.195,1.308,1.195,2.069v212.947c0,0.762-0.535,1.688-1.195,2.069l-139.581,80.588c-0.66,0.381-1.73,0.381-2.39,0
				l-1.349-0.779c-0.66-0.381-1.195-1.307-1.195-2.069V163.41C95.862,162.647,96.396,161.721,97.057,161.34z"/>
			<path id="XMLID_99_" fill="#FAFAFA" d="M241.528,83.237c-0.147-0.487-0.607-0.644-1.15-0.331l-139.583,80.59
				c-0.331,0.193-0.634,0.515-0.846,0.892l-3.734-2.152c0.211-0.377,0.515-0.708,0.846-0.892l139.583-80.59
				c0.653-0.386,1.729-0.386,2.382,0l1.352,0.773C240.939,81.857,241.409,82.565,241.528,83.237z"/>
			<path id="XMLID_98_" fill="#E0E0E0" d="M100.51,379.328c-0.138,0.055-0.285,0.092-0.441,0.12
				c-0.073,0.009-0.156,0.018-0.229,0.027c-0.239,0.019-0.488,0.009-0.727-0.027c-0.157-0.028-0.304-0.064-0.442-0.12
				c-0.092-0.037-0.184-0.083-0.267-0.129l-1.343-0.772c-0.663-0.386-1.196-1.306-1.196-2.07V163.413
				c0-0.386,0.129-0.809,0.35-1.177l3.734,2.152c-0.212,0.377-0.35,0.8-0.35,1.177v212.944
				C99.6,379.162,99.986,379.484,100.51,379.328z"/>
		</g>
		<g id="XMLID_80_">
			<path id="XMLID_93_" fill="#455A64" d="M210.127,110.913l-3.716-2.152c-0.957-0.552-2.216-0.562-3.734,0.11
				c-4.341,1.914-6.217,2.778-8.461,3.716c-0.515,0.211-1.04,0.423-1.619,0.653c-0.874,0.35-2.63,0.055-2.088-3.008l5.767-15.535
				c-0.028-0.019-0.055-0.027-0.083-0.046l-3.652-2.116c-0.166-0.101-0.368-0.174-0.607-0.211c-0.12-0.019-0.257-0.037-0.405-0.037
				c-2.364-0.055-3.035-15.287-3.053-15.755c0-0.01,0-0.01,0-0.01l-0.166-0.092l-3.614-2.079c-0.598-0.35-1.297-0.524-2.061-0.524
				c-1.012,0-2.161,0.313-3.421,0.966c-5.675,2.98-11.405,11.81-12.803,19.738c-0.883,5.003-5.914,12.702-8.82,15.535
				c-2.916,2.852-3.109,5.206-3.109,5.206l-2.263,12.821l-0.727,4.103c-0.534,3.063-3.67,6.024-3.67,6.024l-11.708,8.774
				c-7.331,6.089-9.4,12.233-10.808,19.839c0,0.009-0.009,0.046-0.009,0.055c-0.046,0.267,0.009,0.451,0.128,0.524
				c0.046,0.027,0.092,0.027,0.129,0.009c0,0,0,0,0-0.009c0.009,0.009,0.009,0.009,0.019,0l1.499-0.855l80.553-46.458
				c0.322-0.166,0.653-0.681,0.736-1.122c0.009-0.009,0.009-0.027,0.018-0.037c0-0.019-0.009-0.019,0-0.028
				c0.46-2.777,1.803-7.974,1.803-7.974C210.164,110.931,210.146,110.922,210.127,110.913z M186.839,87.376
				c-0.864,4.875-4.378,10.311-7.873,12.141c-2.41,1.26-4.167,0.478-4.755-1.739c-1.067,0.331-1.969,0.193-2.64-0.34
				c-1.123-0.883,9.142-18.496,9.979-18.11c0.745,0.34,1.279,1.067,1.545,2.106C185.975,80.561,187.612,82.998,186.839,87.376z"/>
			<path id="XMLID_92_" opacity="0.5" fill="#37474F" d="M136.96,155.558l-5.868-3.387c-3.407,4.481-4.773,9.193-5.786,14.664
				c0,0.009-0.009,0.046-0.009,0.055c-0.046,0.267,0.009,0.451,0.128,0.524c0.046,0.027,0.092,0.027,0.129,0.009c0,0,0,0,0-0.009
				c0.009,0.009,0.009,0.009,0.019,0l0.016-0.01l4.63-3.668L136.96,155.558z"/>
			<path id="XMLID_91_" opacity="0.5" fill="#37474F" d="M151.104,133.526l8.273,4.776l3.735-21.571l-7.461-4.308
				c-1.069,1.683-1.169,2.849-1.169,2.849l-2.263,12.821l-0.727,4.103C151.415,132.645,151.275,133.09,151.104,133.526z"/>
			<path id="XMLID_90_" opacity="0.5" fill="#37474F" d="M170.334,84.231c-1.886,3.234-3.315,6.852-3.923,10.3
				c-0.378,2.143-1.519,4.779-2.926,7.316l7.1,4.099l3.528-8.147c-1.022,0.292-1.892,0.156-2.542-0.361
				c-0.577-0.454,1.857-5.331,4.472-9.911L170.334,84.231z"/>
			<path id="XMLID_86_" fill="#37474F" d="M210.183,110.94c-0.019-0.009-0.037-0.019-0.055-0.028
				c-0.957-0.542-2.208-0.542-3.716,0.12c-5.326,2.346-6.935,3.118-10.09,4.369c-0.846,0.34-2.548,0.064-2.106-2.814
				c0-0.064,0.018-0.129,0.027-0.193l0.727-4.102l2.014-11.175c0,0,0.46-1.757-0.708-2.419c-0.028-0.019-0.055-0.027-0.083-0.046
				c-0.239-0.12-0.543-0.193-0.929-0.203c-1.122-0.027-2.391-0.8-3.33-2.125c-1.076-1.508-1.72-3.734-1.251-6.393
				c0.846-4.792-0.083-8.149-2.207-9.399c-0.056-0.037-0.111-0.074-0.166-0.102c-1.37-0.727-3.21-0.607-5.362,0.524
				c-5.675,2.98-11.405,11.81-12.803,19.738c-0.883,5.003-5.914,12.702-8.821,15.535c-2.916,2.851-3.109,5.206-3.109,5.206
				l-2.263,12.822l-0.727,4.102c-0.533,3.063-3.679,6.024-3.679,6.024l-11.699,8.774c-5.5,4.571-8.112,9.363-9.63,14.579
				c0,0-4.388,3.403-4.664,3.679c0,0.009,0,0.009,0,0.009c-0.009,0.009-0.009,0.009,0.009,0l0.009-0.009l1.499-0.855l80.783-46.439
				c0,0,0.929-0.506,1.132-0.635c0.202-0.12,3.458-3.201,3.458-3.201C212.308,113.635,211.535,111.75,210.183,110.94z
				 M186.839,87.376c-0.864,4.875-4.378,10.311-7.873,12.141c-2.41,1.26-4.167,0.478-4.755-1.739
				c-0.249-0.993-0.276-2.271-0.01-3.78c0.865-4.875,4.388-10.311,7.883-12.131c0.35-0.184,0.69-0.331,1.012-0.433
				C185.975,80.561,187.612,82.998,186.839,87.376z"/>
			<path id="XMLID_85_" fill="#263238" d="M186.839,87.376c-0.864,4.875-4.378,10.311-7.873,12.141
				c-2.41,1.26-4.167,0.478-4.755-1.739c0.322-0.101,0.662-0.239,1.021-0.423c3.495-1.831,7.018-7.266,7.873-12.141
				c0.267-1.508,0.249-2.787-0.009-3.78C185.975,80.561,187.612,82.998,186.839,87.376z"/>
			<path id="XMLID_82_" fill="#263238" d="M183.468,81.645L183.468,81.645c0.748,0,1.298,0.267,1.685,0.815
				c1.448,2.056,0.061,7.303-0.539,8.979c-0.836,2.335-6.251,7.808-7.747,7.807c-1.323-0.063-2.29-1.347-2.443-1.563
				c-0.242-1.001-0.241-2.26,0.004-3.644c0.854-4.814,4.336-10.183,7.763-11.968c0.337-0.178,0.657-0.315,0.951-0.41
				C183.255,81.65,183.364,81.645,183.468,81.645 M183.468,81.415c-0.119,0-0.244,0.006-0.373,0.02
				c-0.322,0.102-0.662,0.249-1.012,0.433c-3.495,1.821-7.018,7.257-7.883,12.131c-0.267,1.509-0.239,2.787,0.01,3.78
				c0,0,1.069,1.622,2.646,1.697c0.011,0,0.021,0.001,0.032,0.001c1.618,0,7.069-5.521,7.942-7.96
				C185.685,89.128,187.587,81.414,183.468,81.415L183.468,81.415z"/>
			<path id="XMLID_81_" fill="#263238" d="M125.565,167.424l82.287-47.303c0,0,0.933-0.51,1.134-0.632
				c0.2-0.123,3.458-3.208,3.458-3.208l-82.224,47.455C130.22,163.736,125.238,167.596,125.565,167.424z"/>
		</g>
		<g id="XMLID_34_">
			<g id="XMLID_68_">
				<g id="XMLID_71_">
					<path id="XMLID_74_" fill="#E0E0E0" d="M114.542,200.591v1.872c0,1.016,0.713,1.428,1.593,0.92l108.898-62.867
						c0.88-0.508,1.593-1.743,1.593-2.759v-1.879c0-1.016-0.713-1.427-1.593-0.919l-108.898,62.873
						C115.255,198.339,114.542,199.575,114.542,200.591z"/>
					<path id="XMLID_73_" fill="#E0E0E0" d="M114.542,211.897v1.872c0,1.016,0.713,1.428,1.593,0.92l108.898-62.867
						c0.88-0.508,1.593-1.743,1.593-2.759v-1.879c0-1.016-0.713-1.427-1.593-0.919l-108.898,62.873
						C115.255,209.646,114.542,210.881,114.542,211.897z"/>
					<path id="XMLID_72_" fill="#E0E0E0" d="M114.542,223.141v1.872c0,1.016,0.713,1.428,1.593,0.92l108.898-62.867
						c0.88-0.508,1.593-1.743,1.593-2.759v-1.878c0-1.016-0.713-1.428-1.593-0.92l-108.898,62.873
						C115.255,220.889,114.542,222.125,114.542,223.141z"/>
				</g>
			</g>
			<g id="XMLID_57_">
				<g id="XMLID_59_">
					<path id="XMLID_62_" fill="#E0E0E0" d="M114.542,248.047v1.873c0,1.016,0.713,1.428,1.593,0.92l108.898-62.867
						c0.88-0.508,1.593-1.744,1.593-2.759v-1.879c0-1.016-0.713-1.428-1.593-0.919l-108.898,62.873
						C115.255,245.796,114.542,247.031,114.542,248.047z"/>
					<path id="XMLID_61_" fill="#E0E0E0" d="M114.542,259.353v1.873c0,1.016,0.713,1.428,1.593,0.92l108.898-62.867
						c0.88-0.508,1.593-1.743,1.593-2.759v-1.879c0-1.016-0.713-1.428-1.593-0.919l-108.898,62.873
						C115.255,257.102,114.542,258.337,114.542,259.353z"/>
					<path id="XMLID_60_" fill="#E0E0E0" d="M114.542,270.597v1.872c0,1.016,0.713,1.428,1.593,0.92l108.898-62.867
						c0.88-0.508,1.593-1.743,1.593-2.759v-1.878c0-1.016-0.713-1.428-1.593-0.92l-108.898,62.873
						C115.255,268.346,114.542,269.581,114.542,270.597z"/>
				</g>
			</g>
			<g id="XMLID_47_">
				<g id="XMLID_48_">
					<path id="XMLID_51_" fill="#E0E0E0" d="M114.542,295.503v1.873c0,1.016,0.713,1.428,1.593,0.919l108.898-62.867
						c0.88-0.508,1.593-1.743,1.593-2.759v-1.879c0-1.016-0.713-1.428-1.593-0.919l-108.898,62.873
						C115.255,293.252,114.542,294.488,114.542,295.503z"/>
					<path id="XMLID_50_" fill="#E0E0E0" d="M114.542,306.81v1.872c0,1.016,0.713,1.428,1.593,0.92l108.898-62.867
						c0.88-0.508,1.593-1.743,1.593-2.759v-1.878c0-1.016-0.713-1.428-1.593-0.919L116.135,304.05
						C115.255,304.559,114.542,305.794,114.542,306.81z"/>
					<path id="XMLID_49_" fill="#E0E0E0" d="M114.542,318.054v1.872c0,1.016,0.713,1.428,1.593,0.92l108.898-62.867
						c0.88-0.508,1.593-1.743,1.593-2.759v-1.879c0-1.016-0.713-1.428-1.593-0.919l-108.898,62.873
						C115.255,315.802,114.542,317.038,114.542,318.054z"/>
				</g>
			</g>
		</g>
		<polygon id="XMLID_35_" fill="#E0E0E0" points="170.584,319.564 226.625,287.209 226.626,288.288 170.584,320.643 		"/>
		<path fill="#455A64" d="M183.621,302.765c2.332-1.564,4.932-4.192,4.512-7.307c-0.255-1.89-1.79-2.613-3.528-1.947
			c-3.412,1.307-5.568,6.444-6.759,9.543c-1.042,2.71-2.362,7.819,1.702,8.683c4.776,1.016,8.467-5.987,9.54-9.636
			c0.15-0.51-0.68-0.788-0.914-0.331c-0.425,0.828-3.238,6.305-0.146,5.622c1.098-0.242,1.735-1.951,2.128-2.82
			c0.705-1.563,1.057-3.734,2.156-5.074c-0.271-0.123-0.541-0.247-0.812-0.37c0.045,1.439,0.041,2.422,0.962,3.538
			c0.153,0.184,0.477,0.306,0.679,0.118c1.576-1.472,1.689-3.861,3.427-5.195c-0.237-0.112-0.474-0.225-0.71-0.337
			c-0.02,0.455-0.204,1.766-0.239,2.383c-0.016,0.287,0.393,0.472,0.625,0.387c0.565-0.209,0.724-0.309,0.994-0.861
			c-0.253-0.092-0.506-0.185-0.759-0.277c0.657,3.523,3.669,0.021,4.701-1.34c3.042-4.014,5.139-8.288,5.225-13.417
			c0.007-0.411-0.772-0.615-0.782-0.123c-0.072,3.935-1.79,7.549-2.897,11.262c-1.199,4.02-2.185,8.096-2.974,12.216
			c0.238,0.085,0.476,0.171,0.714,0.256c0.07-2.938,1.121-5.719,2.2-8.418c0.913-2.282,1.94-4.632,3.782-6.319
			c-0.219-0.083-0.437-0.166-0.656-0.249c0.487,2.037-0.357,4.215-1.6,5.82c-0.211,0.273,0.26,0.775,0.472,0.508
			c1.099-1.38,2.911-1.82,4.085-3.156c1.225-1.394,1.972-3.198,2.954-4.76c-0.18-0.09-0.36-0.181-0.54-0.271
			c-0.072,3.355,3.099-1.882,3.525-2.445c-0.173-0.066-0.346-0.132-0.52-0.199c0.209,0.693,0.496,1.151,1.275,1.158
			c1.546,0.012,2.13-2.257,3.295-2.521c0.01-0.002,0.515,0.437,0.692,0.452c0.714,0.062,1.22,0.013,1.87-0.353
			c1.323-0.742,2.344-2.117,3.064-3.417c0.175-0.316-0.433-0.717-0.637-0.368c-0.763,1.3-3.166,4.747-4.912,3.056
			c-0.104-0.1-0.34-0.193-0.455-0.052c-0.467,0.578-3.157,3.661-3.657,2.035c-0.062-0.203-0.353-0.42-0.52-0.199
			c-0.407,0.542-0.737,1.144-1.114,1.707c-0.207,0.31-1.385,2.282-1.34,1.281c0.011-0.235-0.376-0.523-0.54-0.271
			c-1.09,1.67-1.892,3.867-3.407,5.222c-1.131,1.011-2.62,1.386-3.594,2.593c0.157,0.169,0.315,0.339,0.472,0.508
			c1.374-1.75,2.362-4.082,1.826-6.318c-0.067-0.279-0.433-0.452-0.655-0.248c-1.873,1.717-2.926,4.137-3.852,6.458
			c-1.103,2.763-2.166,5.589-2.245,8.591c-0.008,0.312,0.636,0.657,0.714,0.256c0.862-4.438,1.931-8.848,3.29-13.163
			c1.095-3.478,2.592-6.83,2.663-10.531c-0.26-0.041-0.521-0.082-0.782-0.123c-0.063,4.012-1.295,7.348-3.468,10.694
			c-0.568,0.875-1.155,1.74-1.793,2.565c-0.284,0.368-2.763,3.605-3.084,1.725c-0.047-0.271-0.578-0.646-0.759-0.277
			c-0.241,0.212-0.481,0.425-0.722,0.637c0.208,0.129,0.417,0.258,0.625,0.387c0.048-0.811,0.207-1.576,0.245-2.389
			c0.015-0.318-0.478-0.515-0.71-0.337c-1.765,1.351-1.891,3.74-3.488,5.209c0.226,0.039,0.452,0.078,0.678,0.117
			c-0.55-0.955-0.801-1.96-0.752-3.014c-0.006-0.347-0.541-0.694-0.811-0.37c-1.222,1.463-1.6,3.788-2.405,5.493
			c-0.44,0.931-2.036,3.413-1.494,0.764c0.221-1.074,0.905-2.138,1.404-3.104c-0.305-0.11-0.609-0.221-0.914-0.331
			c-0.944,3.18-3.452,8.009-6.883,9.037c-4.385,1.314-3.623-4.118-2.818-6.533c0.928-2.785,2.379-5.5,4.175-7.824
			c0.347-0.449,0.706-0.917,1.127-1.298c0.89-0.806,1.157-0.96,2.396-0.295c1.3,0.697,1.295,1.107,0.956,2.439
			c-0.168,0.658-0.468,1.316-0.818,1.894c-0.75,1.238-1.825,2.243-2.943,3.141C183.207,302.458,183.438,302.887,183.621,302.765
			L183.621,302.765z"/>
	</g>
</g>
<g id="Characters_1_">
	<g id="Characters">
		<g id="XMLID_53_">
			<g id="XMLID_169_">
				<g id="XMLID_218_">
					<path id="XMLID_380_" fill="#B16668" d="M317.969,240.377c-3.623-0.855-7.604,1.719-9.938,7.407
						c-2.332,5.688-6.993,20.192-7.963,23.993c-0.435,1.703,12.483,16.768,12.021,16.542c-0.143-0.069,4.208-7.349,4.208-7.349
						l-6.27-9.647l3.928-10.477L317.969,240.377z"/>
				</g>
				<g id="XMLID_180_">
					<g id="XMLID_186_">
						<path id="XMLID_378_" fill="#263238" d="M309.619,375.18c-0.49,0.186-0.615,1.121-0.689,2.979
							c-0.057,1.407-0.357,3.862,1.29,4.353s4.062,0.24,5.117-1.086c1.318-1.655,2.209-3.112,4.09-5.131
							c1.632-1.751,3.396-3.387,4.055-5.843c0.596-2.22,0.1-3.183-1.414-3.828c-2.083-0.888-5.354,2.012-6.986,2.469
							C313.676,369.486,310.11,374.994,309.619,375.18z"/>
					</g>
					<g id="XMLID_185_">
						<path id="XMLID_376_" fill="#B16668" d="M309.619,373.458v2.282c0,0,2.373,1.824,5.768,0.156
							c0.1-0.22,0.599-3.265,0.599-3.265L309.619,373.458z"/>
					</g>
					<g id="XMLID_184_">
						<path id="XMLID_374_" fill="#263238" d="M326.604,387.308c0,0-0.655,1.985-1.008,3.721c-0.281,1.379-0.683,3.686-0.199,4.724
							c0.483,1.038,2.368,1.708,5.29,1.686c1.893-0.015,4.842,1.271,6.861,2.397c2.086,1.164,4.349,1.168,6.556,0.909
							c2.6-0.305,5.293-1.813,5.713-2.889c0.421-1.077-0.119-1.594-6.247-4.205c-0.056-0.024-6.461-2.917-9.425-6.188
							L326.604,387.308z"/>
					</g>
					<g id="XMLID_183_">
						<path id="XMLID_372_" fill="#B16668" d="M326.604,384.841c0,0,0.008,1.694,0,2.662c-0.009,0.968,1.135,2.411,4.094,2.305
							c2.078-0.074,3.529-0.633,3.447-2.345v-2.467L326.604,384.841z"/>
					</g>
					<g id="XMLID_182_">
						<path id="XMLID_370_" fill="#27DEBF" d="M307.372,341.817c1.045-7.458,2.786-11.739,2.786-11.739s-1.287-10.098-2.034-19.8
							c-1.339-17.384-0.264-23.068,3.155-30.866c0,0,29.174-2.957,30.063,9.167c1.108,15.099-0.361,44.278-0.763,49.612
							c-0.4,5.334-0.896,7.736-2.783,18.883c-1.437,8.481-3.652,27.922-3.652,27.922c-3.872,2.093-7.541-0.154-7.541-0.154
							s-2.386-24.277-2.136-30.432c0.306-7.516,2.334-13.434,2.334-13.434s-1.81-24.606-2.337-28.523c0,0-0.91,7.806-1.311,13.14
							c-0.401,5.334-1.985,10.428-3.528,20.336c-1.338,8.594-3.825,27.804-3.825,27.804c-3.871,2.093-6.182-0.274-6.182-0.274
							S306.327,349.275,307.372,341.817z"/>
					</g>
					<g id="XMLID_64_" opacity="0.35">
						<path id="XMLID_134_" d="M307.372,341.817c1.045-7.458,2.786-11.739,2.786-11.739s-1.287-10.098-2.034-19.8
							c-1.339-17.384-0.264-23.068,3.155-30.866c0,0,29.174-2.957,30.063,9.167c1.108,15.099-0.361,44.278-0.763,49.612
							c-0.4,5.334-0.896,7.736-2.783,18.883c-1.437,8.481-3.652,27.922-3.652,27.922c-3.872,2.093-7.541-0.154-7.541-0.154
							s-2.386-24.277-2.136-30.432c0.306-7.516,2.334-13.434,2.334-13.434s-1.81-24.606-2.337-28.523c0,0-0.91,7.806-1.311,13.14
							c-0.401,5.334-1.985,10.428-3.528,20.336c-1.338,8.594-3.825,27.804-3.825,27.804c-3.871,2.093-6.182-0.274-6.182-0.274
							S306.327,349.275,307.372,341.817z"/>
					</g>
				</g>
				<g id="XMLID_497_">
					<g id="XMLID_498_">
						<polygon id="XMLID_365_" fill="#B16668" points="332.911,236.452 331.54,247.725 321.629,246.83 322.762,234.317 						"/>
					</g>
				</g>
				<g id="XMLID_179_">
					<g id="XMLID_496_">
						<path id="XMLID_362_" fill="#EBEBEB" d="M310.754,246.026c1.089-2.965,4.794-6.268,8.604-5.56
							c0.993,0.184,1.865,0.329,2.8,0.517c0.086,2.597,4.979,3.941,9.857,2.366c1.467,0.42,2.81,0.849,4.028,1.284
							c3.488,1.246,4.891,7.041,4.968,16.735c0.077,9.694,1.108,33.873,1.108,33.873l-4.079,1.282l-1.905-7.073l-0.768,8.472
							c-4.415,1.112-9.05,1.032-14.085-0.068c-10.482-2.291-13.745-7.946-13.745-7.946s1.288-8.775,7.476-18.326
							C309.759,257.607,309.137,250.427,310.754,246.026z"/>
					</g>
				</g>
				<g id="XMLID_302_">
					<g id="XMLID_293_">
						<path id="XMLID_295_" fill="#263238" d="M340.275,222.132c0,0,2.077-3.946-0.746-8.38c-3.328-5.224-9.742-6.115-17.343-4.077
							c-3.768,1.01-9.036,5.013-9.508,12.24c-0.364,5.574,15.181,9.686,14.826,13.504L340.275,222.132z"/>
					</g>
					<g id="XMLID_290_">
						<path id="XMLID_292_" fill="#9A4A4D" d="M340.61,224.249c0,0,2.108,3.383,1.813,3.727s-1.704,0.681-1.704,0.681
							L340.61,224.249z"/>
					</g>
					<g id="XMLID_287_">
						<path id="XMLID_289_" fill="#B16668" d="M334.176,213.536c2.107,1.162,5.746,3.302,6.484,11.2
							c0.757,8.108-1.118,10.868-2.248,11.898c-0.764,0.694-4.608,0.851-6.593,0.175c-2.484-0.845-7.838-3.673-10.27-7.913
							c-2.86-4.988-3.302-11.546,0.222-14.017C326.729,211.402,332.393,212.553,334.176,213.536z"/>
					</g>
					<g id="XMLID_284_">
						<path id="XMLID_286_" fill="#263238" d="M334.798,213.891c0,0,1.664,7.423-0.693,12.022c0,0-1.229-2.913-3.725-2.154
							c-2.512,0.764-2.373,4.09-0.46,5.839c1.914,1.75,3.838,0.924,3.838,0.924s-1.141,3.128-3.707,5.598
							c0,0-7.388,3.294-13.785-3.927c-5.805-6.552-4.726-17.979,4.164-20.675C329.319,208.825,334.798,213.891,334.798,213.891z"/>
					</g>
					<path id="XMLID_54_" fill="#263238" d="M313.731,214.657c0.729,0.627,0.813,1.728,0.185,2.457l-2.641-2.272
						C311.902,214.112,313.003,214.03,313.731,214.657z"/>
				</g>
			</g>
			<g id="XMLID_131_">
				<path id="XMLID_225_" fill="#B16668" d="M361.128,262.489c1.438-1.644,1.987-5.299,3.905-7.797
					c1.872-2.439,2.615-4.334,3.372-3.24c1.001,1.445-1.258,4.337-0.757,4.626c0.501,0.29,2.38,4.102,2.569,6.221
					s-5.419,7.442-5.419,7.442L361.128,262.489z"/>
			</g>
			<g id="XMLID_39_">
				<path id="XMLID_208_" fill="#B16668" d="M367.492,255.755c0,0,6.781-0.589,7.77-0.019c0.988,0.571,0.689,3.522,0,5.322
					c-0.69,1.8-4.148,2.972-7.358,5.145C367.896,265.895,367.492,255.755,367.492,255.755z"/>
			</g>
			<g id="XMLID_174_">
				<path id="XMLID_200_" fill="#B16668" d="M335.177,244.334c2.914,1.014,5.464,2.188,8.184,7.298
					c3.494,6.567,9.849,19.43,9.849,19.43l7.919-8.573c0,0,1.152-1.624,3.296,1.918c2.143,3.542,1.196,4.521,1.196,4.521
					s-9.214,12.34-10.904,13.911c-1.691,1.57-4.47,0.35-6.282-2.121c-1.812-2.47-13.257-16.781-13.257-16.781
					S328.927,255.718,335.177,244.334z"/>
			</g>
			<path id="XMLID_130_" opacity="0.2" d="M324.465,312.453l-0.552-5.897c0,0-4.283-0.414-8.899-3.368c0,0,1.894,3.037,7.096,4.42
				l0.542,7.502l0.32,12.295L324.465,312.453z"/>
			<path id="XMLID_132_" fill="#263238" d="M303.695,242.765L303.695,242.765c5.667,0,10.261-4.593,10.261-10.26v-15.588l0,0
				c-5.067-1.64-10.261,2.138-10.261,7.463V242.765z"/>
			<path id="XMLID_5_" fill="#E0E0E0" d="M341.241,271.547c0,0-5.693-7.335-7.507-10.292l7.703,16.28L341.241,271.547z"/>
		</g>
		<g id="XMLID_458_">
			<g id="XMLID_191_">
				<path id="XMLID_310_" fill="#FFA8A7" d="M391.135,211.275c-2.162,6.364-6.771,25.362-6.771,25.362s-8.797,11.696-11.211,13.923
					c-1.345,1.241-4.377,3.472-4.377,3.472l2.521,1.856c0,0,4.206-1.278,4.549,1.035c4.698-3.708,9.876-8.704,12.404-11.403
					c0.964-1.03,1.645-2.29,1.965-3.665l3.765-16.154c0,0-0.023-12.999,1.993-14.705s1.208-5.548,1.208-5.548
					C395.835,205.489,392.832,206.277,391.135,211.275z"/>
			</g>
			<g id="XMLID_170_">
				<path id="XMLID_348_" fill="#27DEBF" d="M397.281,204.815c0,0,1.123,3.161,2.217,5.027c0.883,1.506-5.853,28.661-6.299,30.679
					c-0.446,2.018-13.498,13.785-13.498,13.785s-3.306-1.073-5.225-5.24l9.425-12.253c0,0,2.925-12.867,4.471-18.761
					S391.553,205.449,397.281,204.815z"/>
				<g id="XMLID_347_">
					<path id="XMLID_8_" opacity="0.1" d="M397.281,204.815c0,0,1.123,3.161,2.217,5.027c0.883,1.506-5.853,28.661-6.299,30.679
						c-0.446,2.018-13.498,13.785-13.498,13.785s-3.306-1.073-5.225-5.24l9.425-12.253c0,0,2.925-12.867,4.471-18.761
						S391.553,205.449,397.281,204.815z"/>
				</g>
				<g id="XMLID_171_">
					<g id="XMLID_330_">
						<rect id="XMLID_346_" x="418.342" y="332.401" fill="#FFA8A7" width="6.505" height="11.136"/>
						<polygon id="XMLID_336_" fill="#FFA8A7" points="398.241,335.104 391.74,335.328 391.415,323.543 398.241,323.32 						"/>
						<path id="XMLID_335_" fill="#37474F" d="M423.933,252.909c0,6.211,0.428,42.328,0.428,42.328
							c0.151,1.788,1.872,4.965,2.006,11.403c0.194,9.336-1.241,31.328-1.241,31.328s-3.158,1.845-7.243,0.143
							c0,0-5.108-31.106-6.274-40.348c-1.018-8.065-4.526-29.596-4.526-29.596l-4.972,27.263c0,0,1.199,4.811,0.806,10.338
							c-0.304,4.274-4.262,25.685-4.262,25.685s-3.062,2.078-7.511,0.575c0,0-0.388-33.608-0.463-37.53
							c-0.086-4.471,1.864-42.934,1.864-42.934L423.933,252.909z"/>
						<path id="XMLID_334_" fill="#263238" d="M418.342,340.326c0,0,0.001-0.929,0-0.929c-0.349-0.008-0.564,0.339-0.698,1.176
							c-0.095,0.599-0.184,1.052-0.38,1.84c-0.302,1.205-0.573,1.941-1.137,3.329c-0.919,2.266-1.691,3.11-3.797,5.759
							c-0.5,0.628-1.627,1.627-2.021,2.327c-0.394,0.7-0.531,2.647,0.137,3.093c2.456,1.637,6.186,1.683,8.823,0.91
							c2.029-0.595,3.494-2.216,3.83-4.304c0.098-0.6,0.062-1.213,0.13-1.816c0.157-1.376,0.849-2.634,1.629-3.778
							c0.453-0.664,0.946-1.312,1.25-2.057c0.546-1.337,0.108-2.841-0.241-4.172c-0.301-1.15-0.628-2.415-1.021-2.307
							c-0.001,0.141,0,0.709,0,0.709c-0.473,0.523-1.778,1.042-3.252,1.099C420.643,341.24,418.334,341.051,418.342,340.326z"/>
						<path id="XMLID_333_" fill="#263238" d="M391.672,333.322c-0.338,0.012-0.613,0.488-1.358,1.294
							c-0.9,0.975-2.373,2.026-3.826,2.753c-2.436,1.219-7.171,3.095-9.314,4.06c-1.339,0.603-1.276,2.221,0.108,3.141
							c1.384,0.92,4.725,1.584,8.737,0.687c2.186-0.489,5.03-2.508,6.831-2.398c1.802,0.109,5.171,0.083,6.5-0.833
							c1.33-0.916,0.798-2.873,0.422-4.555c-0.409-1.835-0.922-4.697-1.53-4.572v0.633c-0.782,1.184-4.817,1.666-6.535,0.794
							L391.672,333.322z"/>
						<path id="XMLID_331_" fill="#263238" d="M407.081,268.168c0,0-5.199-1.464-9.059-5.193c0,0,1.748,3.272,6.946,6.318
							l-2.516,24.25L407.081,268.168z"/>
					</g>
					<g id="XMLID_325_">
						<path id="XMLID_328_" fill="#F5F5F5" d="M412.654,205.254c2.211,0.532,6.672,1.262,7.674,5.673
							c1.202,5.295,1.594,16.826,1.594,16.826l0.41,25.657c-4.479,3.263-20.932,5.039-30.359-1.846c0,0,1.153-30.809,1.153-35.605
							c0-4.795,2.664-10.557,10.021-10.984L412.654,205.254z"/>
						<path id="XMLID_18271_" fill="#27DEBF" d="M403.251,204.479c0,0-3.308,2.625-4.202,6.505
							c-0.896,3.879-1.04,47.208-1.04,47.208s-4.599-0.851-6.753-2.542c0,0,0.278-34.203,0.717-39.856
							c0.664-8.576,0.594-11.048,11.271-11.952L403.251,204.479z"/>
						<path id="XMLID_18267_" fill="#27DEBF" d="M414.592,203.841c0-0.004-6.13,3.773-6.198,18.777
							c-0.059,12.974-0.493,35.573-0.493,35.573s10.15,1.491,16.58-2.351c0,0,0.767-31.459,0.645-36.332
							c-0.141-5.579-1.445-12.789-3.232-13.506C418.636,204.695,414.592,203.841,414.592,203.841z"/>
						<g id="XMLID_52_">
							<g id="XMLID_43_">
								<path id="XMLID_44_" fill="#FFA8A7" d="M437.395,238.301c-6.103-24.943-10.615-33.263-18.027-33.166
									c-2.164,2.587-1.566,10.4,1.854,15.142c0,0,7.626,16.087,8.843,21.806c1.068,5.024,2.279,11.346,2.202,15.665
									c-0.014,0.765-0.328,1.492-0.848,2.055c-1.392,1.509-1.397,2.725-2.3,4.394c-0.706,1.307-1.479,1.795-1.259,2.089
									c0.283,0.378,1.178,0.871,2.289,0.169c0.56-0.353,0.924-0.767,1.735-1.664c0,0-0.222,2.023-1.376,4.627
									c-1.565,3.529-1.184,5.33,3.58,4.073c2.985-0.788,4.859-3.274,5.307-10.449c0.129-2.067,0.323-5.328,0.078-7.941
									C438.836,248.296,438.377,242.315,437.395,238.301z"/>
							</g>
							<path id="XMLID_46_" fill="#27DEBF" d="M418.1,204.729c0,0,4.913-0.224,7.572,2.467c2.66,2.69,6.253,8.349,9.731,20.725
								c3.479,12.375,4.543,21.406,4.72,28.373c0,0-4.358,2.035-8.381-0.288c0,0-1.781-10.765-3.36-16.493
								s-7.472-17.803-7.472-17.803S415.279,213.344,418.1,204.729z"/>
							<path id="XMLID_45_" opacity="0.1" d="M418.1,204.729c0,0,4.913-0.224,7.572,2.467c2.66,2.69,6.253,8.349,9.731,20.725
								c3.479,12.375,4.543,21.406,4.72,28.373c0,0-4.358,2.035-8.381-0.288c0,0-1.781-10.765-3.36-16.493
								s-7.472-17.803-7.472-17.803S415.279,213.344,418.1,204.729z"/>
						</g>
						<polygon id="XMLID_18470_" opacity="0.1" points="415.279,212.047 412.473,215.521 413.876,219.478 410.186,228.935 
							414.635,219.478 413.077,215.744 						"/>
						<polygon id="XMLID_18374_" opacity="0.1" points="395.478,210.93 396.088,214.522 393.656,217.687 397.037,228.334 
							394.42,217.805 396.662,214.846 						"/>
					</g>
					<g id="XMLID_173_">
						<g id="XMLID_315_">
							<circle id="XMLID_324_" fill="#263238" cx="402.128" cy="183.875" r="8.939"/>
							<path id="XMLID_323_" fill="#263238" d="M417.581,190.231c0,0-1.449,6.806-2.03,7.924c-0.58,1.118-1.781,1.436-1.781,1.436
								l0.102-4.788L417.581,190.231z"/>
							<path id="XMLID_321_" fill="#263238" d="M415.763,180.481c0,0,1.561-0.268,2.776,0.976c1.192,1.219,0.526,5.036-0.958,8.773
								l-2.729,0.313L415.763,180.481z"/>
							<path id="XMLID_320_" fill="#FFA8A7" d="M414.033,190.546c0.548,0.327,1.328-0.724,2.003-1.43s2.878-1.67,3.977,0.645
								c1.119,2.36-0.97,5.478-2.704,6.021c-2.989,0.938-3.438-0.979-3.438-0.979l-0.221,11.11l0,0
								c-2.066,2.649-6.709,5.763-9.208,5.318c-1.994-0.354-2.43-3.725-0.522-5.933l0.008-3.281c0,0-2.707,0.411-4.028,0.207
								c-2.198-0.34-3.581-2.074-4.247-4.453c-1.071-3.821-1.478-6.906-0.569-14.421c0.995-8.237,10.576-8.323,15.75-5.066
								S414.033,190.546,414.033,190.546z"/>
							<path id="XMLID_319_" fill="#263238" d="M414.033,191.467c0.275,0.005,1.322-1.731,2.003-2.351
								c0.944-0.858-0.273-8.635-0.273-8.635s1.167-2.198-0.649-4.198c-1.293-1.423-3.097-3.161-8.963-2.467
								c-4.183,0.495-8.734,1.799-12.411-0.007c-0.551,2.288-0.106,4.84,2.18,6.648c0,0,1.331,0.858,4.832,1.284
								c3.501,0.426,8.954-0.082,9.699-0.184c1.016-0.139,1.232,0.845,1.779,3.533C412.71,187.45,413.108,191.449,414.033,191.467z"
								/>
							<path id="XMLID_318_" fill="#263238" d="M415.757,181.086l3.309-1.776c-0.47-0.948-1.591-1.319-2.504-0.829
								C415.647,178.972,415.287,180.138,415.757,181.086z"/>
							<path id="XMLID_316_" fill="#F28F8F" d="M403.928,202.018c0,0,4.906-0.988,6.621-1.9c1.148-0.61,2.094-1.668,2.371-2.346
								c0,0-0.321,1.456-1.347,2.767c-1.254,1.604-7.646,2.785-7.646,2.785V202.018z"/>
						</g>
						<g id="XMLID_303_">
							<ellipse id="XMLID_314_" fill="#263238" cx="406.09" cy="189.317" rx="0.983" ry="1.022"/>
							<path id="XMLID_312_" fill="#263238" d="M406.15,185.608l2.103,1.161c0.311-0.604,0.091-1.354-0.49-1.675
								S406.46,185.004,406.15,185.608z"/>
							<path id="XMLID_311_" fill="#F28F8F" d="M404.372,196.111l-2.244,0.842c0.222,0.644,0.904,0.977,1.524,0.744
								C404.272,197.465,404.595,196.755,404.372,196.111z"/>
							<path id="XMLID_309_" fill="#263238" d="M396.34,186.427l1.918-1.478c-0.392-0.549-1.138-0.664-1.667-0.256
								C396.061,185.102,395.948,185.877,396.34,186.427z"/>
							<ellipse id="XMLID_307_" fill="#263238" cx="397.913" cy="189.037" rx="0.983" ry="1.021"/>
							<polygon id="XMLID_305_" fill="#F28F8F" points="401.939,188.107 401.616,194.021 398.529,192.968 							"/>
						</g>
						<g id="XMLID_175_">
							<path id="XMLID_300_" fill="#27DEBF" d="M400.871,210.553c0.604,1.433,1.716,2.017,3.733,2.244
								c2.018,0.226,4.468-0.773,5.581-1.942l-2.51-2.498l-3.182,2.397l-0.271-2.671L400.871,210.553z"/>
							<path id="XMLID_296_" opacity="0.1" d="M400.871,210.553c0.604,1.433,1.716,2.017,3.733,2.244
								c2.018,0.226,4.468-0.773,5.581-1.942l-2.51-2.498l-3.182,2.397l-0.271-2.671L400.871,210.553z"/>
							<g id="XMLID_215_">
								<path id="XMLID_283_" fill="#27DEBF" d="M402.452,209.771c0,0-0.497,1.383-0.332,2.685c0.178,1.394,0.896,2.238,0.896,2.238
									s0.801,0.636,2.168,0.235c1.069-0.986,2.146-2.566,2.063-4.489l-2.754,0.314L402.452,209.771z"/>
								<path id="XMLID_281_" fill="#27DEBF" d="M403.017,214.693c0,0-3.265,18.019-3.397,19.473
									c-0.132,1.454,1.876,6.621,3.12,6.665c1.245,0.044,3.688-4.633,3.726-5.955s-1.28-19.947-1.28-19.947L403.017,214.693z"/>
								<path id="XMLID_227_" opacity="0.1" d="M405.185,214.929c0,0-1.112,0.551-2.168-0.235l-0.052,0.285
									c0,0,0.913,0.827,2.255,0.446L405.185,214.929z"/>
							</g>
							<g id="XMLID_176_">
								<g id="XMLID_177_">
									<path id="XMLID_181_" fill="#E0E0E0" d="M404.494,210.754l9.199-7.008l0.041-2.079c0,0,2.139,0.812,2.619,4.585
										c-1.311,3.044-3.686,5.643-7.174,7.631l-1.932-3.444L404.494,210.754z"/>
									<path id="XMLID_178_" fill="#E0E0E0" d="M403.928,202.623c0,0-2.045,0.303-2.967,1.824c-0.921,1.518-0.71,7.323-0.71,7.323
										l2.201-1.999l2.042,0.983c-0.195-1.935-0.574-5.455-0.574-5.455L403.928,202.623z"/>
								</g>
							</g>
						</g>
					</g>
				</g>
			</g>
			<g id="XMLID_355_">
				<path id="XMLID_202_" fill="#FFA8A7" d="M368.038,266.271c0.918-1.339,1.2-2.218,1.456-4.11c0.255-1.892,5.441-3.92,5.604-2.512
					c0.164,1.409,0.639,2.585-0.956,4.288C372.547,265.641,370.41,267.537,368.038,266.271z"/>
				<path id="XMLID_206_" fill="#FFA8A7" d="M368.27,254.059c-1.239,1.604-2.008,4.713-2.661,5.758s-1.438,1.96,0,2.157
					c1.438,0.196,3.529-2.614,4.313-4.313c0.392-0.849,0.914-1.39,1.339-1.717c0.425-0.328,0.752-0.444,0.752-0.444
					c-0.678-0.227-0.319-2.929-0.797-3.301C371.216,252.198,368.776,253.197,368.27,254.059z"/>
			</g>
		</g>
	</g>
</g>
</svg>
